{"glyphs":{"0":{"ha":674,"x_min":64,"x_max":608,"o":"m 608 676 l 608 317 l 608 317 q 535 86 608 172 q 336 -1 461 -1 q 138 86 211 -1 q 65 317 65 172 l 65 317 l 65 676 q 136 893 65 817 q 336 971 207 971 q 538 893 465 971 q 608 676 608 817 m 458 97 q 503 317 503 174 l 503 676 q 457 874 500 804 q 336 949 415 940 q 217 874 258 940 q 169 676 172 804 l 169 317 q 214 100 169 176 q 338 21 257 26 q 458 97 417 25 z "},"1":{"ha":350,"x_min":44,"x_max":289,"o":"m 276 22 q 288 11 288 22 q 276 0 288 0 l 121 0 q 110 11 110 0 q 121 22 110 22 l 147 22 l 147 819 l 60 819 q 50 825 53 819 q 54 840 44 835 q 157 901 119 874 q 231 968 196 929 q 240 972 235 972 q 251 961 251 972 l 251 22 l 276 22 z "},"2":{"ha":685,"x_min":50,"x_max":625,"o":"m 601 228 q 613 239 601 239 q 624 228 624 239 l 624 10 q 613 -1 624 -1 l 61 -1 q 50 11 50 -1 q 50 13 50 11 q 64 107 53 63 q 99 189 75 151 q 144 254 122 226 q 205 312 167 282 q 268 360 243 342 q 338 406 293 378 q 463 540 415 458 q 518 717 513 625 l 518 718 q 481 876 524 814 q 350 950 436 944 l 349 950 l 343 950 l 342 950 l 340 950 q 233 913 272 947 q 189 803 193 875 q 188 785 188 797 q 188 754 188 764 q 129 697 181 693 l 126 697 q 94 718 107 700 q 83 758 83 736 q 85 764 83 761 l 85 767 l 85 768 q 86 779 85 774 l 86 782 l 88 785 l 88 788 l 88 790 q 90 799 89 794 l 90 801 l 92 801 l 92 804 l 93 807 l 93 810 l 94 811 l 94 813 l 96 814 l 96 817 l 97 819 l 99 822 l 99 825 l 100 828 l 101 829 l 103 832 l 104 835 l 104 838 l 106 839 l 107 842 l 108 844 l 110 846 l 111 849 l 113 851 l 114 853 l 115 856 l 117 858 l 118 860 l 119 863 l 121 864 l 124 867 l 125 869 l 126 871 l 128 874 l 129 875 l 131 875 q 133 879 131 878 l 135 881 l 136 883 l 138 885 l 140 888 l 142 889 l 143 890 l 146 893 l 147 894 l 150 896 l 151 899 l 153 900 l 156 901 l 157 904 l 160 906 l 161 907 l 164 908 l 165 911 l 168 913 l 169 914 l 172 915 l 175 917 l 175 918 l 176 919 l 178 919 l 179 921 l 182 922 l 185 924 l 186 925 l 189 926 l 189 928 l 190 928 l 193 929 l 194 931 l 196 932 l 197 932 l 199 932 l 200 933 l 201 935 l 203 935 q 204 935 203 935 q 207 938 206 936 l 208 938 l 210 939 l 211 940 l 213 940 l 214 940 l 215 942 l 217 942 l 217 943 l 219 943 l 219 944 l 221 944 l 222 944 l 225 946 l 228 947 l 231 949 l 233 950 l 236 950 l 236 951 l 239 951 l 242 953 l 242 953 l 244 954 l 247 954 q 253 957 249 956 l 254 957 l 256 957 l 258 958 q 264 960 261 960 l 267 961 l 269 961 l 271 963 l 272 963 q 290 967 281 965 l 293 967 l 296 968 l 299 968 q 304 969 301 968 l 307 969 q 318 971 313 969 l 321 971 l 322 971 q 326 971 325 971 l 328 971 q 350 972 339 972 l 351 972 q 354 972 354 972 l 356 972 l 358 972 l 360 972 l 363 972 l 367 972 l 371 971 l 375 971 l 378 971 l 379 971 q 389 969 383 971 l 390 969 l 393 969 q 400 968 397 968 l 404 967 l 408 967 l 411 965 l 415 965 l 418 964 l 422 964 l 425 963 l 428 961 l 432 961 l 435 960 l 439 958 l 439 958 l 442 958 l 444 957 l 447 956 l 449 956 l 451 954 l 454 953 l 457 951 l 460 950 l 464 950 l 467 949 l 467 947 l 469 947 l 472 946 l 475 943 l 478 942 l 481 940 l 483 939 l 486 938 l 488 938 l 489 936 l 492 935 l 494 933 l 497 931 l 500 929 l 503 928 l 506 926 l 507 924 l 510 922 l 513 921 l 515 918 l 517 917 l 519 914 l 522 913 l 524 911 l 526 908 q 531 904 529 907 l 533 903 l 535 900 l 538 899 l 539 896 l 542 893 l 543 892 l 546 889 l 547 888 l 550 885 q 556 878 551 882 l 557 875 l 558 874 l 560 871 l 563 868 l 564 865 l 565 864 l 567 861 l 568 858 l 569 856 l 571 853 l 574 851 l 575 849 l 576 846 l 578 843 l 579 840 l 581 838 l 582 836 l 582 833 l 583 831 l 585 828 l 586 825 l 588 822 l 589 819 l 589 818 l 589 817 l 590 814 l 592 811 l 593 808 l 593 806 l 594 803 l 596 800 l 596 797 l 597 794 l 597 792 l 599 789 l 600 786 l 600 783 l 601 781 l 601 778 l 601 775 l 603 772 l 603 769 l 604 767 l 604 764 l 604 761 l 606 758 l 606 756 l 606 753 l 606 750 l 607 747 l 607 744 l 607 742 l 607 739 l 607 736 l 608 733 l 608 731 l 608 728 l 608 725 l 608 722 l 608 719 l 608 718 l 608 715 l 608 714 l 608 713 q 608 707 608 708 q 607 700 607 703 q 607 696 607 699 q 607 693 607 693 l 607 692 l 607 689 q 606 685 606 686 q 606 678 606 681 q 539 533 593 592 q 386 411 485 475 l 381 407 l 374 403 l 357 392 l 349 388 q 349 386 349 386 q 265 330 296 353 q 194 272 235 307 q 127 194 153 236 q 88 104 101 153 l 436 104 q 567 128 536 104 q 601 226 597 150 l 601 228 z "},"3":{"ha":674,"x_min":43,"x_max":615,"o":"m 614 293 l 614 290 q 613 257 614 274 q 522 72 601 140 l 519 69 l 517 68 l 514 65 l 511 64 l 508 61 l 506 60 l 503 57 l 500 56 l 497 53 l 496 53 l 494 51 l 492 50 l 488 47 l 485 46 l 482 44 l 479 42 l 476 40 l 474 39 l 469 38 l 467 36 l 464 35 l 461 33 l 461 32 l 457 31 l 454 29 l 451 28 l 449 26 l 447 26 l 444 25 l 442 25 l 439 24 l 438 24 l 435 22 l 432 21 l 429 19 l 425 18 l 422 17 l 418 17 l 415 15 l 413 14 l 411 14 l 408 13 l 406 13 l 406 13 l 401 11 q 396 10 399 11 l 394 10 l 392 8 l 389 8 l 388 8 l 385 7 q 375 6 379 7 l 371 6 q 364 4 367 4 l 361 3 l 360 3 l 357 3 l 354 3 q 346 1 350 1 q 338 1 342 1 q 331 1 335 1 q 322 0 326 0 l 322 0 l 319 0 l 315 0 l 314 0 q 299 0 307 0 l 299 0 l 297 0 l 297 0 l 292 0 q 283 1 288 0 l 281 1 l 279 1 l 278 1 l 275 1 q 267 3 269 1 l 265 3 l 264 3 l 263 3 l 261 3 l 260 3 q 253 4 257 3 l 250 4 l 247 4 l 244 6 l 242 6 l 239 6 l 236 7 l 233 7 l 231 7 l 228 8 l 226 8 l 225 8 l 224 8 l 222 8 l 221 10 l 218 10 l 215 11 l 213 11 l 210 13 l 207 13 l 204 14 l 203 14 l 201 14 l 200 15 l 199 15 l 197 15 l 194 17 l 193 17 l 190 18 l 188 18 l 185 19 l 183 21 l 182 21 l 181 21 l 179 21 l 178 22 l 175 24 l 174 24 l 171 25 l 169 25 l 168 26 l 167 26 l 164 28 l 163 29 l 161 29 l 160 29 l 157 31 l 156 32 l 153 33 l 151 33 l 150 35 l 149 35 l 147 36 l 144 38 l 143 38 l 143 39 l 142 39 l 140 39 l 140 40 l 138 40 l 136 42 q 44 161 61 86 l 44 163 l 44 163 l 44 163 l 44 163 l 44 163 l 44 163 l 44 163 l 44 164 q 44 178 44 171 q 60 215 46 200 q 92 232 72 231 q 99 232 96 233 q 107 231 103 232 l 108 231 q 129 213 122 226 q 135 179 136 200 q 128 150 133 167 q 124 124 124 136 q 149 72 125 96 q 211 38 171 50 q 299 22 251 24 l 299 22 l 300 22 l 300 22 l 301 22 l 303 22 q 310 22 307 22 l 313 22 l 314 22 l 315 22 q 424 66 379 26 q 492 168 469 106 q 510 283 510 222 q 489 397 510 344 q 420 499 467 460 q 307 540 374 538 l 307 540 q 300 543 303 540 q 299 545 299 544 q 297 546 299 546 l 297 546 l 297 547 l 297 547 l 297 549 q 296 551 296 550 l 296 553 q 297 553 296 553 q 297 556 297 554 l 297 557 q 299 558 299 557 l 300 558 l 300 560 l 300 560 l 300 560 l 301 560 l 301 560 l 301 561 l 301 561 l 303 561 l 303 561 l 303 561 l 304 561 q 304 563 304 561 l 304 563 q 307 563 306 563 l 308 563 l 319 563 l 322 563 l 322 563 q 411 593 375 564 q 465 669 447 622 q 481 755 481 710 q 467 840 481 800 q 414 917 449 888 q 329 950 379 947 l 317 950 q 243 938 276 949 q 197 910 214 926 q 181 875 181 894 q 183 856 181 867 q 189 833 188 843 q 184 807 190 818 q 167 792 178 796 q 158 790 163 790 q 151 790 156 790 q 126 804 136 792 q 113 835 114 817 q 114 846 113 840 q 114 847 114 846 q 117 861 115 854 l 118 863 l 118 864 l 119 865 l 119 867 l 121 868 l 121 869 l 121 871 l 122 872 l 122 872 l 122 874 l 124 875 l 124 876 l 125 878 l 125 879 l 126 881 l 126 882 l 128 883 l 128 885 l 129 886 l 129 888 l 131 888 l 131 889 l 132 890 l 133 892 l 133 893 l 135 894 l 136 896 l 136 896 l 136 897 l 138 899 l 139 899 l 139 900 l 139 901 l 140 903 l 142 903 l 142 904 l 143 904 l 143 906 l 144 906 l 144 907 l 146 908 l 147 910 l 149 911 l 150 913 l 150 913 l 151 913 l 151 914 l 153 915 l 154 917 l 157 918 l 157 919 l 158 919 l 160 921 l 161 922 l 163 924 l 164 924 l 164 925 l 165 925 l 167 926 l 168 928 l 168 928 l 169 928 l 169 929 l 171 929 l 171 931 l 172 931 l 174 932 l 175 932 l 176 933 l 178 935 l 179 936 l 181 936 l 182 936 l 182 938 l 183 938 l 185 939 l 186 940 l 188 940 l 190 942 l 192 943 l 193 943 l 194 943 l 194 944 l 197 944 l 197 946 l 199 946 l 200 947 l 201 947 l 203 949 l 204 949 l 206 949 l 207 950 l 208 951 l 210 951 l 211 951 l 213 953 l 214 953 l 215 953 l 217 954 l 218 954 l 219 956 l 222 956 l 224 957 l 226 957 l 228 958 l 229 958 l 231 958 l 232 960 l 233 960 l 235 960 l 236 960 l 236 961 l 238 961 l 239 961 l 242 961 l 242 963 l 243 963 l 246 963 l 247 964 l 250 964 l 251 964 l 253 964 l 254 965 l 256 965 l 257 965 l 258 965 l 260 965 l 260 967 l 261 967 l 263 967 l 264 967 l 267 967 l 267 967 l 268 968 l 271 968 l 272 968 l 274 968 l 275 968 l 276 969 l 278 969 l 279 969 l 281 969 l 282 969 l 283 969 l 286 969 l 288 971 l 290 971 l 292 971 l 294 971 l 297 971 l 299 971 l 300 971 l 301 971 l 303 971 l 304 972 l 307 972 l 308 972 l 310 972 l 313 972 l 314 972 l 315 972 q 329 972 322 972 l 329 972 l 331 972 l 332 972 l 333 972 l 335 972 l 336 972 l 338 972 l 339 972 l 340 972 l 342 972 l 343 972 l 344 972 l 346 971 l 347 971 l 349 971 l 350 971 l 351 971 l 354 971 l 356 971 l 357 971 l 358 971 l 360 971 l 361 971 l 363 969 l 364 969 l 365 969 l 367 969 l 368 969 l 369 969 l 371 969 l 374 968 l 376 968 l 379 968 l 382 967 l 385 967 l 388 965 l 390 965 l 393 965 l 396 964 l 399 964 l 399 964 l 401 963 l 404 963 l 407 961 l 410 961 l 411 960 l 414 960 l 414 958 l 415 958 l 417 958 l 419 957 l 422 957 l 425 956 l 428 954 l 428 954 l 431 954 l 431 953 l 433 953 l 435 951 l 436 951 l 438 950 l 440 950 l 440 949 l 443 949 l 446 947 l 446 947 l 449 946 l 450 944 l 453 943 l 456 942 l 456 942 q 460 940 457 942 l 460 940 l 463 939 q 467 936 464 938 l 468 936 l 469 935 l 472 933 l 475 932 l 475 931 l 476 929 l 479 928 l 481 926 l 482 926 l 483 925 l 486 924 l 488 922 l 490 919 l 492 918 l 494 917 l 496 915 l 497 914 l 499 914 l 499 913 l 500 913 l 500 911 l 501 911 l 501 910 l 503 910 l 503 908 l 504 908 l 504 908 l 506 907 l 506 906 l 507 906 l 508 904 l 510 903 l 510 903 l 511 901 l 511 900 l 514 899 l 514 899 l 515 897 l 515 896 l 517 896 l 517 894 l 518 894 l 518 893 l 519 892 l 519 892 l 521 890 l 521 889 l 522 889 l 522 888 l 524 888 l 524 886 l 525 886 l 525 885 l 526 885 l 526 883 l 528 882 l 531 879 l 531 878 l 532 875 l 533 875 l 533 874 l 533 872 l 535 872 l 535 871 l 536 871 l 536 869 l 536 868 l 538 868 l 538 867 l 539 865 l 539 864 l 540 864 l 540 863 q 568 775 563 824 q 568 750 569 763 q 515 614 568 671 q 411 550 475 568 l 414 550 l 418 549 l 421 547 l 425 546 l 428 544 l 432 544 l 435 543 l 438 542 l 442 540 l 444 539 l 449 538 l 451 536 l 454 535 l 457 533 l 461 532 l 464 531 l 467 529 l 469 528 l 472 526 l 475 525 l 479 522 l 482 521 l 485 519 l 488 518 l 490 517 l 493 514 l 496 513 l 499 511 l 501 508 l 503 507 l 506 506 l 508 503 l 511 501 l 514 499 l 517 497 l 518 496 l 521 493 l 524 492 l 526 489 l 528 488 l 531 485 l 533 482 l 535 481 l 538 478 l 539 476 l 542 474 l 543 471 l 546 469 l 547 467 l 550 464 l 551 463 l 554 460 l 556 457 l 557 456 l 560 453 l 561 450 q 565 444 563 449 l 567 443 l 568 440 l 569 438 l 572 435 l 574 432 l 575 429 l 576 428 l 578 425 l 579 422 l 581 419 l 582 417 l 583 414 l 585 411 l 586 408 l 588 406 l 589 403 l 590 400 l 592 397 l 593 394 l 594 392 l 594 389 l 596 386 l 597 383 l 599 381 l 599 378 l 600 375 l 601 372 l 601 369 l 603 367 l 604 364 l 604 361 l 606 358 l 606 356 l 607 351 l 607 349 l 608 346 l 608 343 l 610 340 l 610 338 l 610 335 l 611 332 q 611 325 611 329 q 613 319 613 322 q 613 314 613 318 l 614 311 l 614 308 l 614 304 l 614 301 l 614 299 l 614 296 l 614 293 z "},"4":{"ha":722,"x_min":46,"x_max":663,"o":"m 650 356 q 663 344 663 356 q 650 333 663 333 l 617 333 l 617 22 l 642 22 q 654 11 654 22 q 642 0 654 0 l 486 0 q 475 11 475 0 q 486 22 475 22 l 513 22 l 513 333 l 63 333 q 56 336 58 333 q 54 353 47 343 l 514 875 q 515 875 515 875 l 546 910 l 597 968 l 597 969 l 599 969 l 599 971 l 600 971 l 600 971 l 601 971 l 601 972 l 603 972 l 603 972 l 604 972 l 604 972 l 606 972 l 607 972 l 608 972 l 608 972 l 608 972 l 610 971 l 610 971 l 611 971 l 611 971 l 613 969 l 613 969 l 613 969 l 614 969 l 614 968 l 614 968 l 614 968 l 614 968 l 614 968 l 614 968 l 615 968 l 615 967 l 615 967 l 615 967 l 615 967 l 615 967 l 615 967 l 615 965 l 615 965 l 615 965 l 615 965 l 615 965 l 617 965 l 617 964 l 617 964 l 617 964 l 617 964 l 617 964 l 617 964 l 617 964 l 617 963 l 617 963 l 617 963 l 617 963 l 617 963 l 617 963 l 617 963 l 617 961 l 617 356 l 650 356 m 513 356 l 513 838 l 88 356 l 513 356 z "},"5":{"ha":722,"x_min":63,"x_max":665,"o":"m 664 364 l 664 360 q 663 318 665 339 q 568 94 651 178 l 565 92 l 563 89 l 560 86 l 557 83 l 556 83 l 553 81 l 550 78 l 547 75 l 544 74 l 542 71 l 539 68 l 535 67 l 535 65 l 532 64 l 529 61 l 526 60 l 522 57 l 519 56 l 517 53 l 513 51 l 510 49 l 507 47 l 503 46 l 500 43 l 496 42 l 493 40 l 489 39 l 486 36 l 483 35 l 479 33 l 476 32 l 472 31 l 469 29 l 465 28 l 463 26 l 458 25 l 456 24 l 454 24 l 451 22 l 449 22 l 449 21 l 447 21 l 444 21 l 442 19 l 440 19 l 438 18 l 435 18 l 433 17 l 431 17 q 424 15 428 15 l 424 14 l 422 14 l 419 14 l 415 13 l 413 13 l 411 13 l 408 11 l 406 11 q 399 10 401 10 l 397 10 l 394 8 l 393 8 l 390 8 l 386 8 l 383 7 l 381 7 l 379 7 l 375 7 l 372 7 l 371 7 l 368 6 l 365 6 l 364 6 l 361 6 l 358 6 l 357 6 l 354 6 l 350 6 l 350 6 l 349 6 q 331 6 340 6 l 331 6 q 321 6 326 6 l 318 6 q 297 8 308 7 q 292 8 293 8 l 289 8 l 286 10 q 257 15 271 11 q 246 18 253 17 l 243 18 l 240 19 l 238 19 l 238 21 l 235 21 l 232 22 l 231 22 l 229 22 l 228 24 l 226 24 l 225 24 l 225 25 l 222 25 l 219 26 l 218 26 l 217 28 l 214 28 l 211 29 l 210 31 l 208 31 l 206 32 l 203 33 l 201 33 l 200 35 l 199 35 l 197 36 l 196 36 l 194 38 l 192 38 l 192 39 l 190 39 l 189 39 l 188 40 l 185 42 l 185 42 q 176 46 181 44 l 175 47 l 174 47 l 172 49 l 171 50 l 169 50 l 168 51 l 167 53 l 165 53 l 164 54 l 161 56 l 160 57 q 64 201 82 111 q 64 203 64 203 l 64 204 q 64 224 64 214 q 81 267 67 250 q 114 286 94 285 q 120 285 117 286 q 128 285 124 285 q 151 263 143 279 q 157 221 160 246 q 151 189 156 206 q 146 154 146 171 q 179 82 147 113 q 261 39 211 53 q 332 28 296 29 l 333 28 l 333 28 l 335 28 l 336 28 l 349 28 q 463 80 415 32 q 535 203 511 128 q 556 351 556 272 q 532 497 556 429 q 491 583 517 546 q 426 642 465 619 q 342 668 388 665 q 179 617 247 667 q 100 493 113 568 q 89 483 99 483 q 78 496 78 483 l 78 961 q 89 972 78 972 l 578 972 q 589 961 589 972 l 589 878 l 589 743 q 578 732 589 732 q 567 743 567 732 l 567 744 q 532 843 561 821 q 401 867 501 867 l 100 867 l 100 561 q 165 635 124 603 q 340 690 240 689 l 342 690 l 343 690 l 356 690 l 357 690 l 358 690 l 358 690 l 358 690 l 360 690 l 360 690 l 361 690 l 361 690 l 361 690 l 363 690 l 363 690 l 363 690 l 364 690 l 364 690 l 365 690 l 365 690 l 365 690 l 367 690 l 367 690 l 367 690 l 368 690 l 368 690 l 369 690 l 369 690 l 369 690 l 371 690 l 371 690 l 371 690 l 372 690 l 372 690 l 374 690 l 374 690 l 374 690 l 375 689 l 375 689 l 376 689 l 376 689 l 376 689 l 378 689 l 378 689 l 378 689 l 379 689 l 381 689 l 385 689 l 389 689 l 393 688 l 397 688 l 401 686 l 406 686 l 410 685 l 414 685 l 418 683 l 422 683 l 426 682 l 431 681 l 435 681 l 438 679 l 442 678 l 446 676 l 450 676 l 453 675 l 457 674 l 461 672 l 464 671 l 468 669 l 472 668 l 475 667 l 479 665 l 482 664 l 486 661 l 489 660 l 493 658 l 496 657 l 500 656 l 503 653 l 507 651 l 510 650 l 513 647 l 517 646 l 519 643 l 522 642 l 525 640 l 528 638 l 532 635 l 535 633 l 538 631 l 540 629 l 543 626 l 546 624 l 549 622 l 551 619 l 554 617 l 557 615 l 560 613 l 563 610 l 565 607 l 568 604 l 569 603 l 572 600 l 575 597 l 578 594 l 581 592 l 582 589 l 585 586 l 588 583 l 589 581 l 592 578 l 594 575 l 596 572 l 599 569 l 600 567 l 603 563 l 604 560 l 606 557 l 608 554 l 610 551 l 613 549 l 614 544 l 615 542 l 618 539 l 619 536 l 621 532 l 622 529 l 625 526 l 626 522 l 628 519 l 629 517 l 631 513 l 632 510 l 633 506 l 635 503 l 636 500 l 638 496 l 639 493 l 640 489 l 642 486 l 643 482 l 644 479 l 646 475 l 646 472 l 647 468 l 649 465 l 650 461 l 650 458 l 651 454 l 653 451 l 653 447 l 654 444 l 656 440 l 656 438 l 657 433 l 657 429 l 658 426 l 658 422 l 660 419 l 660 415 l 660 411 l 661 408 l 661 404 l 663 400 l 663 397 l 663 393 l 663 390 l 664 386 l 664 382 l 664 379 l 664 375 l 664 371 l 664 368 l 664 364 z "},"6":{"ha":710,"x_min":64,"x_max":651,"o":"m 651 378 q 563 107 651 215 q 356 1 478 4 l 353 1 q 256 18 301 1 l 251 19 l 249 21 l 244 22 l 242 24 l 238 25 l 235 26 l 232 28 l 228 29 l 225 31 l 221 32 l 218 35 l 215 36 l 211 38 l 208 40 q 206 42 206 40 l 201 43 l 199 46 l 196 47 l 192 50 l 189 51 l 186 54 l 183 57 l 181 58 l 176 61 l 174 64 l 171 65 l 168 68 l 165 71 l 163 74 q 160 76 160 75 l 157 79 l 154 82 l 151 85 l 149 88 l 146 90 l 143 93 l 140 96 q 64 340 64 186 l 64 654 l 64 660 l 64 661 l 64 665 l 64 667 q 64 672 64 669 l 64 674 l 64 679 l 65 681 l 65 685 l 65 690 l 65 693 l 65 697 l 67 701 l 67 703 q 193 925 82 853 l 194 925 l 196 926 l 199 928 l 200 928 l 201 929 l 203 931 l 207 932 q 215 938 211 935 l 219 939 l 222 940 l 224 942 l 225 942 l 226 943 l 229 944 l 231 944 l 232 946 l 235 946 l 236 947 l 238 949 q 246 951 243 950 l 247 951 l 250 953 l 251 953 l 253 954 l 254 954 l 256 954 q 343 972 297 969 l 344 972 q 374 972 358 972 l 375 972 l 376 972 l 378 972 l 379 972 l 381 972 l 382 972 l 383 971 l 385 971 l 386 971 l 388 971 l 389 971 l 392 971 l 393 971 l 394 971 l 397 971 l 399 969 l 400 969 l 401 969 l 403 969 l 406 969 l 407 969 l 408 969 q 456 958 432 965 q 481 950 469 956 l 483 949 l 485 949 l 486 949 l 488 947 l 490 946 l 492 946 q 529 925 511 938 q 600 835 583 889 l 601 835 l 601 832 l 603 829 l 603 829 q 603 826 603 828 l 603 825 q 604 822 604 824 l 604 819 l 606 817 q 606 814 606 815 q 578 758 607 774 q 557 751 568 751 q 536 757 546 751 q 510 813 510 772 q 472 914 506 879 q 379 949 439 946 l 378 949 l 376 949 l 374 950 q 344 949 360 950 q 215 882 261 943 q 168 713 168 819 l 168 574 q 279 664 203 636 q 385 681 329 682 q 493 654 443 678 q 646 444 621 594 l 646 443 q 647 438 647 440 l 647 435 l 647 433 l 649 429 l 649 428 l 649 424 l 649 421 l 650 417 l 650 415 l 650 410 q 650 403 650 407 q 651 397 650 403 l 651 396 q 651 390 651 394 l 651 385 l 651 378 m 526 217 q 544 358 544 285 q 526 499 544 435 q 467 613 507 569 q 368 657 426 657 q 288 643 325 657 q 203 586 236 625 q 168 493 171 547 l 168 333 q 215 108 168 186 q 353 25 263 33 q 460 80 415 26 q 526 217 504 133 z "},"7":{"ha":663,"x_min":51,"x_max":631,"o":"m 618 972 q 629 961 629 972 q 626 953 629 956 l 560 871 q 378 624 450 733 l 378 622 q 269 367 304 485 q 225 22 224 208 l 239 22 q 250 11 250 22 q 239 0 250 0 l 215 0 q 214 0 215 0 l 174 0 l 111 0 q 100 11 100 0 q 111 22 100 22 l 126 22 l 126 28 q 203 349 133 182 q 342 608 253 467 q 528 867 415 725 l 239 867 q 108 843 139 867 q 74 744 78 821 l 74 743 q 63 732 74 732 q 51 743 51 732 l 51 961 q 63 972 51 972 l 618 972 z "},"8":{"ha":700,"x_min":57,"x_max":647,"o":"m 518 519 q 613 403 579 474 q 643 257 647 333 q 601 122 639 185 q 506 33 564 61 q 419 7 468 15 q 335 0 381 0 q 333 0 335 0 q 289 3 311 0 q 114 96 176 17 q 58 265 58 167 q 61 304 58 285 q 142 474 74 407 q 261 538 193 525 q 225 557 242 547 q 201 574 213 565 q 178 593 189 583 q 129 650 149 618 q 96 778 93 711 q 142 896 99 846 q 188 933 161 918 q 271 964 222 956 q 363 972 311 972 q 492 942 439 972 q 569 863 544 913 q 592 778 590 824 q 576 692 593 733 q 428 572 535 594 q 518 519 482 546 m 213 703 q 368 600 257 650 l 371 599 q 392 589 386 592 q 449 601 422 592 q 495 626 475 611 q 531 659 515 640 q 556 700 546 678 q 569 778 571 738 q 550 853 568 818 q 510 902 535 881 q 448 937 486 924 q 363 950 410 950 q 238 914 289 950 q 181 824 188 878 q 213 703 171 753 m 533 236 q 489 384 536 317 q 351 494 442 451 l 329 504 q 299 519 310 514 q 157 458 217 517 q 83 301 94 396 q 81 265 81 283 q 132 110 81 175 q 292 25 189 38 q 333 22 311 22 l 335 22 q 471 83 417 25 q 533 236 529 144 z "},"9":{"ha":713,"x_min":57,"x_max":649,"o":"m 571 878 q 647 633 647 788 l 647 319 l 647 315 l 647 313 l 647 308 l 647 307 q 647 301 647 306 l 647 300 l 647 296 l 647 294 l 647 289 l 646 283 l 646 281 l 646 276 l 646 274 l 644 271 q 518 50 629 121 l 517 49 l 515 47 l 514 47 l 513 46 l 510 44 l 508 43 l 506 42 q 496 36 500 39 l 493 35 l 492 35 l 490 33 l 489 33 l 486 32 l 485 31 l 483 31 l 481 29 l 479 29 l 479 28 l 478 28 l 476 28 l 475 26 l 474 26 q 465 24 469 24 l 464 22 l 463 21 l 460 21 l 458 21 l 458 19 l 456 19 q 369 3 415 6 l 368 3 q 339 1 353 1 l 335 3 l 333 3 l 329 3 l 328 3 q 322 3 328 3 l 321 3 l 319 3 l 317 3 l 315 4 l 314 4 l 313 4 l 311 4 l 310 4 l 308 4 l 307 4 l 306 4 l 303 6 l 301 6 l 300 6 l 299 6 q 295 6 297 6 q 293 7 293 7 q 256 15 274 10 q 231 24 243 19 l 228 25 l 226 25 l 224 26 l 221 28 l 219 28 q 183 49 200 38 q 111 139 128 85 l 110 142 l 110 144 l 108 146 q 108 149 108 146 l 107 151 l 107 154 l 107 156 l 107 158 l 106 158 l 106 160 q 133 217 106 200 q 154 222 143 222 q 176 217 167 222 q 201 161 201 203 q 240 61 206 94 q 333 25 272 28 l 335 25 l 336 25 l 338 25 q 367 25 351 24 q 496 92 450 32 q 543 261 543 154 l 543 400 q 432 310 508 338 q 339 294 388 294 l 336 294 q 324 294 331 294 q 203 328 257 297 q 103 423 142 361 q 61 574 65 485 q 58 615 58 596 q 58 643 58 631 q 147 885 65 794 q 357 972 228 972 l 358 972 q 456 956 410 972 l 460 954 l 463 954 l 467 953 l 469 951 l 474 950 l 476 947 l 481 946 l 483 944 l 488 943 l 490 942 l 493 940 l 497 938 l 500 936 l 503 935 q 507 932 504 933 l 510 931 l 513 929 l 517 926 l 519 925 l 522 922 l 525 919 l 529 918 l 532 915 l 535 913 l 538 911 l 540 908 l 543 906 l 546 903 l 549 900 q 553 897 551 899 l 556 894 l 558 892 l 561 889 l 563 886 l 565 883 l 568 881 l 571 878 m 543 482 l 543 640 q 496 865 543 788 q 358 950 450 940 q 251 894 296 947 q 185 758 207 842 q 167 615 167 690 q 185 476 167 540 q 244 361 204 404 q 343 317 285 318 q 425 331 386 317 q 483 364 458 343 q 525 415 508 385 q 543 482 542 444 z "},"\u0000":{"ha":0,"x_min":0,"x_max":0,"o":""},"\n":{"ha":0,"x_min":0,"x_max":0,"o":""},"\r":{"ha":0,"x_min":0,"x_max":0,"o":""}," ":{"ha":583,"x_min":0,"x_max":0,"o":""},"!":{"ha":267,"x_min":61,"x_max":206,"o":"m 82 144 q 133 169 103 169 q 185 144 163 169 q 204 87 204 121 q 185 29 204 53 q 133 4 163 4 q 82 29 103 4 q 61 87 61 53 q 82 144 61 121 m 132 968 q 133 968 133 968 q 135 968 133 968 q 165 958 153 968 q 178 932 178 947 q 170 777 174 919 q 164 457 167 635 q 161 268 161 279 q 144 235 160 243 q 133 231 139 231 q 121 235 126 231 q 104 268 106 243 q 101 458 104 281 q 95 777 99 635 q 88 932 92 919 q 101 958 88 947 q 132 968 114 968 z "},"\"":{"ha":429,"x_min":44,"x_max":386,"o":"m 65 954 q 116 979 86 979 q 168 954 146 979 q 188 900 186 932 q 172 799 192 838 q 107 743 153 757 q 94 750 97 739 q 101 764 90 761 q 153 808 136 775 q 161 831 157 818 q 117 813 142 813 q 65 838 86 813 q 44 896 44 863 q 65 954 44 929 m 361 954 q 382 900 381 932 q 367 799 385 838 q 301 743 346 757 q 287 750 290 739 q 294 764 283 761 q 346 808 331 775 q 354 831 351 818 q 310 813 335 813 q 258 838 279 813 q 238 896 238 863 q 258 954 238 929 q 310 979 279 979 q 361 954 340 979 z "},"#":{"ha":935,"x_min":33,"x_max":900,"o":"m 156 607 q 149 609 153 607 q 144 615 146 611 q 142 622 142 618 q 146 633 142 629 q 156 638 150 638 l 357 638 l 485 967 q 504 975 490 981 q 513 956 518 969 l 389 638 l 664 638 l 792 967 q 811 975 797 981 q 819 956 825 969 l 696 638 l 885 638 q 895 633 890 638 q 900 623 900 629 q 895 612 900 617 q 885 607 890 607 l 683 607 l 589 365 l 778 365 q 789 360 785 365 q 793 349 793 356 q 789 339 793 343 q 778 335 785 335 l 578 335 l 449 6 q 430 -3 444 -8 q 421 17 415 3 l 544 335 l 271 335 l 143 6 q 124 -3 138 -8 q 115 17 110 3 l 239 335 l 50 335 q 39 339 43 335 q 35 349 35 343 q 39 360 35 356 q 50 365 43 365 l 250 365 l 344 607 l 156 607 m 557 365 l 651 607 l 378 607 l 282 365 l 557 365 z "},"$":{"ha":717,"x_min":54,"x_max":664,"o":"m 340 81 q 331 81 333 81 q 143 136 221 79 q 57 285 67 192 q 70 302 56 300 q 88 289 85 304 q 161 160 96 208 q 331 111 231 110 q 474 160 417 113 q 533 281 533 211 q 475 381 535 339 q 332 446 436 408 q 293 458 318 450 q 239 478 257 471 q 190 499 221 485 q 144 524 160 513 q 108 553 128 535 q 78 590 88 571 q 65 636 69 610 q 63 694 60 663 q 161 839 72 782 q 340 892 236 886 l 340 985 q 344 996 340 992 q 356 1000 349 1000 q 363 998 360 1000 q 369 992 367 996 q 371 985 371 989 l 371 892 q 540 849 463 889 q 640 746 619 808 q 631 727 646 732 q 613 736 617 722 q 526 822 594 788 q 364 861 451 861 q 357 861 361 861 q 356 861 357 861 q 233 815 282 856 q 178 708 181 771 q 221 611 175 647 q 343 553 251 588 q 404 532 361 546 q 460 513 442 519 q 513 491 479 506 q 563 465 546 476 q 603 435 581 454 q 638 397 626 417 q 656 351 649 378 q 663 293 664 324 q 633 208 660 250 q 560 138 607 167 q 371 82 483 89 l 371 -12 q 366 -24 371 -19 q 355 -28 361 -28 q 344 -24 349 -28 q 340 -12 340 -19 l 340 81 z "},"%":{"ha":644,"x_min":44,"x_max":600,"o":"m 150 6 q 131 -3 144 -8 q 122 17 117 3 l 493 967 q 513 975 499 981 q 521 956 526 969 l 150 6 m 463 286 l 463 308 q 560 263 519 308 q 599 154 599 218 q 560 46 599 90 q 463 0 519 0 l 463 22 l 467 22 q 525 60 500 25 q 553 154 553 99 q 525 249 553 210 q 467 286 500 283 l 463 286 m 463 22 l 463 0 q 365 46 406 0 q 326 154 326 90 q 365 263 326 218 q 463 308 406 308 l 463 286 q 399 249 426 286 q 371 154 371 210 q 399 60 371 99 q 463 22 426 22 m 181 950 l 181 972 q 278 926 238 972 q 317 818 317 882 q 278 710 317 754 q 181 664 238 664 l 181 686 l 185 686 q 244 724 219 689 q 272 818 272 763 q 244 913 272 874 q 185 950 219 947 l 181 950 m 181 664 q 83 710 124 664 q 44 818 44 754 q 83 926 44 882 q 181 972 124 972 l 181 950 q 118 913 144 950 q 90 818 90 874 q 118 724 90 763 q 181 686 144 686 l 181 664 z "},"&":{"ha":814,"x_min":51,"x_max":767,"o":"m 536 942 q 610 850 596 908 l 610 850 l 610 849 l 610 849 l 610 849 l 610 849 l 610 849 l 610 849 l 610 849 l 610 849 l 610 849 l 610 849 l 610 849 l 610 847 q 610 836 610 842 q 597 806 608 818 q 571 793 586 794 q 564 792 568 792 q 556 794 560 793 q 539 809 544 799 q 533 835 533 819 q 539 858 535 846 q 542 878 543 868 q 525 913 542 897 q 479 939 508 929 q 390 951 432 953 q 311 921 347 949 q 256 843 275 893 q 242 757 242 803 q 257 671 242 711 q 288 618 269 642 q 336 580 307 594 q 400 564 365 565 l 400 564 q 407 561 404 564 q 408 560 408 560 q 410 558 408 560 l 410 558 l 410 558 q 410 557 410 557 l 410 556 q 411 553 411 554 l 411 551 q 410 550 410 551 l 410 550 l 410 549 q 407 544 408 547 q 399 542 403 542 q 377 542 390 542 q 358 543 364 543 q 339 541 351 543 q 311 535 326 539 q 189 440 232 513 q 153 279 146 367 q 228 100 160 176 q 406 22 297 24 q 579 90 507 22 q 654 244 651 157 q 606 374 657 314 q 488 433 556 433 q 435 424 461 433 q 390 369 397 406 q 399 297 385 339 q 399 296 399 297 q 388 238 407 256 q 367 228 379 229 q 344 232 356 226 q 314 286 315 247 q 314 288 314 286 l 314 290 l 314 292 l 314 294 l 314 296 l 314 297 l 314 299 l 315 301 l 315 303 l 315 304 l 315 306 l 315 307 l 315 308 l 315 310 l 317 311 l 317 313 q 367 407 326 369 q 407 436 385 424 l 410 438 q 490 456 447 456 q 500 456 496 456 l 501 456 q 665 503 608 461 q 674 508 669 506 q 690 549 689 524 q 678 603 692 574 q 669 676 654 649 q 694 693 678 690 q 722 689 708 696 l 724 689 q 753 650 744 676 q 733 546 767 607 q 679 483 714 510 q 592 446 643 458 q 689 389 650 429 q 750 246 749 328 q 728 149 751 196 q 663 68 706 101 q 440 -1 578 3 q 144 76 242 -7 q 53 276 57 151 q 54 315 53 296 l 54 318 l 54 322 l 56 325 l 56 328 l 56 331 l 57 333 l 57 336 l 57 339 l 58 343 l 58 346 l 60 349 l 60 351 l 61 354 l 61 357 l 63 360 l 63 363 l 64 365 l 64 368 l 65 371 l 67 375 l 67 378 l 68 381 l 69 383 l 71 386 l 71 389 l 72 392 l 74 394 l 75 397 l 76 400 l 76 403 l 78 406 l 79 408 q 82 414 81 410 l 83 417 l 85 419 q 88 424 86 422 q 90 429 89 426 l 93 432 l 94 435 q 97 440 96 436 l 99 442 l 100 444 q 242 547 153 519 q 276 557 258 553 q 290 560 283 558 q 225 599 254 574 l 221 603 q 156 776 144 672 q 160 807 157 792 q 244 931 179 888 q 396 974 310 974 q 528 946 471 975 l 529 946 l 529 946 l 532 944 l 532 944 l 533 944 l 535 943 l 536 942 z "},"'":{"ha":235,"x_min":44,"x_max":193,"o":"m 165 957 q 188 903 185 935 l 188 901 q 172 797 192 838 q 107 743 153 757 l 101 764 q 113 768 107 765 q 153 807 139 781 q 161 831 157 818 q 151 824 156 826 q 136 817 144 818 q 135 815 135 815 q 117 813 125 813 q 65 838 86 813 q 44 896 44 863 q 65 954 44 929 q 117 979 86 979 q 165 957 144 979 z "},"(":{"ha":399,"x_min":61,"x_max":369,"o":"m 125 146 q 61 486 61 265 q 124 828 61 707 q 368 972 201 972 l 368 950 q 207 818 249 950 q 176 486 176 722 q 207 154 176 250 q 368 22 249 22 l 368 0 q 125 146 201 0 z "},")":{"ha":399,"x_min":29,"x_max":338,"o":"m 29 950 l 29 972 q 274 828 197 972 q 336 486 336 707 q 274 146 336 265 q 176 38 236 75 q 29 0 115 0 l 29 22 q 190 154 149 22 q 221 486 221 250 q 190 818 221 722 q 29 950 149 950 z "},"*":{"ha":300,"x_min":42,"x_max":257,"o":"m 161 838 l 161 769 q 150 758 161 758 q 139 769 139 758 l 139 838 l 90 790 q 74 790 82 782 q 74 806 67 797 l 122 854 l 54 854 q 43 865 43 854 q 54 876 43 876 l 122 876 l 75 925 q 74 941 67 933 q 90 940 82 949 l 139 893 l 139 961 q 150 972 139 972 q 161 961 161 972 l 161 893 l 210 940 q 225 941 217 949 q 225 925 233 933 l 176 876 l 246 876 q 257 865 257 876 q 246 854 257 854 l 176 854 l 225 806 q 225 790 233 797 q 210 790 217 782 l 161 838 z "},"+":{"ha":493,"x_min":40,"x_max":453,"o":"m 231 471 l 56 471 q 44 476 49 471 q 40 486 40 481 q 44 497 40 492 q 56 501 49 501 l 231 501 l 231 676 q 235 688 231 683 q 247 692 240 692 q 257 688 253 692 q 261 676 261 683 l 261 501 l 438 501 q 447 497 443 501 q 451 486 451 492 q 447 476 451 481 q 438 471 443 471 l 261 471 l 261 296 q 246 281 261 281 q 235 285 240 281 q 231 296 231 289 l 231 471 z "},",":{"ha":232,"x_min":42,"x_max":190,"o":"m 64 147 q 115 172 85 172 q 167 147 144 172 q 186 94 185 125 q 171 -8 190 31 q 106 -64 151 -50 q 92 -56 96 -67 q 100 -42 89 -46 q 151 1 135 -31 q 160 25 156 13 q 115 7 140 7 q 64 32 85 7 q 43 90 43 56 q 64 147 43 124 z "},"-":{"ha":468,"x_min":26,"x_max":440,"o":"m 425 471 l 43 471 q 32 476 36 471 q 28 487 28 481 q 32 497 28 493 q 43 501 36 501 l 425 501 q 435 497 431 501 q 439 487 439 493 q 435 476 439 481 q 425 471 431 471 z "},".":{"ha":231,"x_min":42,"x_max":188,"o":"m 64 142 q 115 167 85 167 q 167 142 144 167 q 186 84 186 118 q 167 25 186 50 q 115 0 144 0 q 64 25 85 0 q 43 84 43 50 q 64 142 43 118 z "},"/":{"ha":508,"x_min":49,"x_max":460,"o":"m 453 960 l 83 10 q 64 1 78 -4 q 56 21 50 7 l 425 971 q 444 979 431 985 q 453 960 458 974 z "},":":{"ha":247,"x_min":51,"x_max":196,"o":"m 72 725 q 123 750 93 750 q 175 725 153 750 q 194 667 194 701 q 175 608 194 633 q 123 583 153 583 q 72 608 93 583 q 51 667 51 633 q 72 725 51 701 m 72 364 q 123 389 93 389 q 175 364 153 389 q 194 305 194 339 q 175 247 194 271 q 123 222 153 222 q 72 247 93 222 q 51 305 51 271 q 72 364 51 339 z "},";":{"ha":250,"x_min":51,"x_max":200,"o":"m 74 725 q 124 750 94 750 q 176 725 154 750 q 196 667 196 701 q 176 608 196 633 q 124 583 154 583 q 74 608 94 583 q 53 667 53 633 q 74 725 53 701 m 176 364 q 196 310 194 340 q 181 207 200 246 q 115 151 161 165 q 102 159 106 149 q 110 174 99 169 q 161 217 144 185 q 169 240 165 228 q 125 222 150 222 q 74 247 94 222 q 53 305 53 271 q 74 364 53 339 q 124 389 94 389 q 176 364 154 389 z "},"<":{"ha":444,"x_min":33,"x_max":407,"o":"m 397 765 q 399 749 406 757 l 153 481 l 397 231 q 399 217 404 224 q 383 214 392 207 l 43 474 q 42 475 42 474 q 43 492 35 483 l 382 765 q 397 765 390 772 z "},"=":{"ha":479,"x_min":32,"x_max":446,"o":"m 49 333 q 38 338 42 333 q 33 349 33 343 q 38 360 33 356 q 49 364 42 364 l 431 364 q 440 360 436 364 q 444 349 444 356 q 440 338 444 343 q 431 333 436 333 l 49 333 m 431 608 l 49 608 q 38 613 42 608 q 33 623 33 617 q 38 634 33 629 q 49 639 42 639 l 431 639 q 440 634 436 639 q 444 623 444 629 q 440 613 444 617 q 431 608 436 608 z "},">":{"ha":444,"x_min":38,"x_max":411,"o":"m 47 231 l 290 481 l 46 749 q 47 765 39 757 q 61 765 54 772 l 401 492 q 403 475 410 483 q 401 474 401 474 l 61 214 q 46 217 53 207 q 47 231 39 224 z "},"?":{"ha":614,"x_min":42,"x_max":568,"o":"m 568 722 l 568 719 l 568 718 l 568 715 q 567 704 568 710 q 567 699 567 701 q 567 693 567 694 l 567 692 l 565 688 q 565 683 565 685 l 565 682 l 564 681 q 561 663 563 672 q 560 658 561 663 q 558 654 558 656 l 558 653 l 556 644 q 553 640 554 643 q 551 636 553 638 l 551 635 q 546 622 549 629 q 543 619 544 621 l 543 618 q 542 615 543 617 l 540 614 l 536 607 q 535 603 535 604 l 533 603 q 532 600 533 601 l 532 599 q 529 596 531 597 l 529 596 q 518 582 524 589 q 515 578 515 579 l 514 578 q 511 575 514 576 q 508 571 510 572 l 508 571 l 506 568 q 503 565 504 567 q 501 565 503 565 q 499 561 500 563 l 496 558 l 492 556 l 489 553 l 485 549 l 482 546 l 478 543 l 474 540 l 471 538 l 467 535 l 463 532 l 460 529 l 456 526 l 451 524 l 447 521 l 443 518 l 439 515 l 436 513 l 432 510 l 428 507 l 424 504 l 419 501 l 415 499 l 411 496 l 407 493 l 403 492 l 399 489 l 394 486 l 390 483 l 388 482 l 375 474 l 374 472 q 314 432 336 449 q 281 367 288 411 q 282 272 275 329 l 282 269 q 254 213 282 228 q 231 208 243 207 q 210 214 219 208 q 182 276 181 232 l 182 279 l 182 279 l 182 279 q 183 285 183 282 l 183 285 q 185 289 185 286 l 185 290 l 186 294 l 186 296 l 188 299 l 188 301 l 189 303 q 301 450 214 386 l 301 451 q 306 454 304 453 l 307 454 q 360 490 328 469 l 361 492 l 363 493 q 435 586 408 522 q 460 729 463 653 q 413 894 454 836 q 310 950 375 950 l 308 950 l 303 950 l 301 950 q 193 913 232 949 q 147 804 151 875 q 147 786 147 799 q 146 754 147 764 q 88 699 140 693 l 85 699 q 54 719 65 700 q 43 758 43 736 q 43 765 43 763 l 44 768 q 46 779 44 774 l 46 782 l 46 785 l 47 788 l 47 790 q 50 799 49 794 l 50 801 l 51 804 l 51 807 l 53 810 l 54 813 l 54 815 l 56 818 l 57 819 l 57 822 l 58 825 l 60 828 l 61 831 l 63 832 l 63 835 l 64 838 l 65 840 l 67 842 l 68 844 l 69 847 l 71 849 l 71 850 l 72 851 l 74 854 l 75 856 l 76 858 l 78 861 l 79 863 l 81 865 l 82 867 l 83 869 l 86 871 l 88 874 l 89 875 l 89 876 q 92 879 89 876 l 94 882 l 96 883 l 97 886 l 100 888 l 101 889 l 103 892 l 106 893 l 107 894 l 108 897 l 111 899 l 113 900 l 115 903 l 117 904 l 118 906 l 121 907 l 122 910 l 126 913 l 129 914 l 132 917 l 133 918 l 135 918 l 136 919 l 139 921 l 142 922 l 143 925 l 144 925 l 146 925 l 146 926 l 149 928 l 150 928 l 150 929 l 151 929 l 153 931 l 154 931 l 156 932 l 157 933 l 158 933 l 160 935 l 161 935 q 167 938 164 936 l 168 939 l 169 939 l 171 940 l 174 942 l 176 943 l 179 944 l 179 944 l 182 946 l 185 947 l 188 947 l 190 949 l 193 950 l 196 951 l 199 953 l 201 953 l 201 953 l 204 954 l 207 956 q 211 957 208 956 l 213 957 l 214 957 l 215 958 l 217 958 l 218 958 q 224 961 219 960 l 226 961 l 229 963 l 232 963 q 249 967 240 965 l 251 967 l 253 967 l 256 968 l 258 968 q 264 969 261 969 l 267 969 q 278 971 272 971 l 281 971 q 286 972 285 972 l 288 972 q 310 972 299 972 l 314 972 l 318 972 l 322 972 l 326 972 l 331 972 l 333 972 l 338 971 l 342 971 l 346 971 l 349 969 l 353 969 l 356 969 l 360 968 l 364 968 l 367 967 l 371 967 l 374 965 l 378 965 l 381 964 l 385 964 l 388 963 l 392 961 l 394 960 l 397 960 l 401 958 l 404 957 l 407 956 l 410 956 l 414 954 l 417 953 l 419 951 l 422 950 l 425 949 l 429 947 l 432 946 l 435 944 l 438 943 l 440 942 l 443 940 l 446 938 l 449 936 l 451 935 l 454 933 l 457 932 l 460 931 l 461 928 l 464 926 l 467 925 l 469 922 l 472 921 l 474 919 l 476 917 l 479 915 l 482 913 l 483 911 l 486 908 l 488 907 l 490 906 l 493 903 l 494 900 l 497 899 l 499 896 l 501 894 l 503 892 l 506 890 l 507 888 l 508 885 l 511 883 l 513 881 l 514 878 l 517 876 l 518 874 l 519 871 q 524 867 521 869 l 525 864 l 526 861 l 528 858 l 529 857 l 531 854 l 532 851 l 533 849 q 536 843 536 846 l 538 842 l 539 839 l 540 836 l 542 833 l 543 831 l 544 828 l 546 825 l 547 822 l 547 819 l 549 817 l 550 815 l 550 814 l 551 813 l 551 811 l 551 810 l 553 807 l 554 804 l 554 801 l 556 799 l 557 796 l 557 793 l 558 790 l 558 788 l 560 785 l 560 782 l 561 779 l 561 776 l 563 774 l 563 771 l 563 768 l 564 765 l 564 764 l 564 763 l 564 761 l 564 760 l 565 757 l 565 756 l 565 753 l 565 750 l 567 747 l 567 744 l 567 742 l 567 739 l 567 736 l 567 733 l 567 731 l 567 728 l 568 725 l 568 722 m 179 140 q 231 167 201 167 q 282 140 261 167 q 303 83 303 117 q 282 25 303 49 q 231 0 261 0 q 179 25 201 0 q 160 83 160 49 q 179 140 160 117 z "},"@":{"ha":1076,"x_min":54,"x_max":1024,"o":"m 678 583 q 619 674 668 640 q 494 707 568 708 q 406 653 439 704 q 368 497 372 597 q 401 321 363 386 q 500 257 435 260 q 621 294 568 258 q 678 379 669 329 l 678 583 m 871 238 l 879 240 q 888 244 883 242 q 969 338 938 275 q 1000 492 1000 401 q 875 826 997 706 q 536 950 749 951 q 213 818 339 949 q 113 663 147 751 q 78 478 79 574 q 91 360 78 418 q 132 249 104 303 q 200 151 160 194 q 504 22 318 25 q 656 54 586 21 q 750 139 728 89 q 765 144 754 149 q 771 129 775 140 q 665 35 746 72 q 503 0 590 -1 q 183 136 308 3 q 88 293 121 203 q 56 478 54 383 q 93 672 57 578 q 196 835 129 765 q 536 972 329 971 q 890 843 757 975 q 1022 492 1019 715 q 989 327 1024 396 q 899 225 954 258 q 889 219 894 222 q 825 200 857 203 q 754 215 786 197 l 753 215 q 725 235 738 222 q 699 274 710 250 q 682 326 688 297 q 633 276 664 297 q 501 235 575 236 q 500 235 500 235 l 499 235 l 497 235 l 488 235 l 488 235 l 486 235 l 486 235 l 485 235 l 485 235 l 485 235 l 483 235 l 483 235 l 483 235 l 483 235 l 482 235 l 482 235 l 482 235 l 482 235 l 481 235 l 481 235 l 481 235 l 479 235 l 479 235 l 479 235 l 478 235 l 478 235 l 478 235 l 476 235 l 476 235 l 476 235 l 475 235 l 475 235 l 475 235 l 474 235 l 474 235 l 474 235 l 474 235 l 472 235 l 472 235 l 469 235 l 469 236 l 468 236 l 467 236 l 465 236 l 463 236 l 460 236 l 460 236 l 457 238 l 456 238 l 454 238 l 450 238 l 449 239 l 447 239 l 444 239 l 442 240 l 440 240 l 438 240 l 436 242 l 433 242 l 432 242 l 431 243 l 429 243 l 428 243 l 425 244 l 424 244 l 422 244 l 421 246 l 419 246 l 418 246 l 417 247 l 415 247 l 414 247 l 413 249 l 411 249 l 408 250 q 404 251 404 251 l 403 251 l 401 253 q 397 254 397 254 l 394 256 l 393 256 q 388 258 390 257 l 386 260 q 382 263 383 261 l 381 263 l 379 264 q 367 271 372 268 l 365 272 q 318 317 339 290 q 265 474 268 382 q 267 504 265 489 q 321 650 274 592 l 322 651 l 322 651 l 324 653 l 325 653 l 325 654 l 326 656 l 326 656 l 328 657 l 328 657 l 329 658 l 329 658 l 329 660 l 331 660 l 331 661 l 331 661 l 332 661 l 332 663 l 333 663 l 335 664 l 335 665 l 336 665 l 338 668 l 340 669 l 342 672 l 344 674 l 346 675 l 349 678 l 350 679 l 353 681 l 356 683 l 357 685 l 360 686 l 361 688 l 364 689 l 367 690 l 368 693 l 371 694 l 374 696 l 375 697 l 378 699 l 381 700 l 382 701 l 383 701 l 385 703 l 388 704 l 390 706 l 392 706 l 393 706 l 394 707 l 397 708 l 397 708 l 400 710 l 403 711 l 404 711 l 406 713 l 407 713 l 410 714 l 413 715 l 415 715 l 415 717 l 418 717 l 419 718 l 422 718 l 425 719 l 428 719 l 431 721 l 433 721 l 435 722 l 438 722 l 439 722 l 440 724 l 443 724 l 446 725 l 449 725 l 451 725 l 451 726 l 454 726 l 457 726 l 458 726 l 460 728 l 461 728 q 469 728 465 728 l 469 729 l 472 729 l 475 729 l 475 729 l 478 729 q 485 729 482 729 l 486 729 l 488 731 q 493 731 490 731 l 494 731 q 632 693 575 731 q 678 644 661 672 l 678 711 q 690 722 678 722 l 724 722 q 765 706 750 722 q 783 642 783 685 l 783 361 q 793 283 783 313 q 815 246 801 257 q 849 235 829 235 q 871 238 860 235 z "},"A":{"ha":836,"x_min":-8,"x_max":844,"o":"m 832 22 q 843 11 843 22 q 832 0 843 0 l 688 0 q 676 11 676 0 q 688 22 676 22 l 700 22 l 585 299 l 164 299 l 56 22 l 75 22 q 88 11 88 22 q 75 0 88 0 l 3 0 q -8 11 -8 0 q 3 22 -8 22 l 32 22 l 144 314 q 146 315 146 314 l 356 854 q 357 856 356 856 l 399 965 l 400 967 l 400 967 l 400 968 l 401 968 l 401 968 l 401 969 l 403 969 l 403 971 l 404 971 l 404 971 l 406 971 l 406 972 l 407 972 l 407 972 l 408 972 l 410 972 l 411 972 l 411 972 l 413 972 l 413 972 l 414 971 l 414 971 l 414 971 l 414 971 l 414 971 l 415 971 l 415 971 q 417 971 415 971 l 417 969 l 417 969 l 417 969 l 417 969 l 417 969 q 419 965 419 968 l 692 315 q 692 314 692 314 l 814 22 l 832 22 m 172 321 l 575 321 l 367 821 l 172 321 z "},"B":{"ha":900,"x_min":42,"x_max":874,"o":"m 874 285 l 874 283 l 874 279 l 874 278 l 872 276 l 872 275 l 872 272 l 872 271 l 872 269 l 872 265 l 872 264 l 872 261 l 872 260 l 872 258 l 871 256 l 871 254 l 871 253 l 871 249 l 871 247 l 869 246 l 869 243 l 869 242 l 869 240 l 869 238 l 868 235 l 868 232 l 868 231 l 867 229 l 867 228 l 867 225 l 865 224 l 865 222 l 865 219 l 864 218 l 864 217 l 864 214 l 863 213 l 863 211 l 861 210 l 861 207 l 861 206 l 860 201 l 858 200 l 858 199 l 857 197 l 857 194 l 857 193 l 856 192 l 856 190 l 854 186 l 853 185 l 851 183 l 851 181 l 850 179 l 850 178 l 849 176 l 847 172 l 846 171 l 846 169 l 844 168 q 843 163 843 164 q 840 158 842 161 q 839 157 840 158 q 838 154 838 156 q 835 150 838 153 q 832 147 833 149 q 829 142 831 144 q 826 138 829 142 q 824 133 826 136 q 822 132 824 133 q 821 129 821 131 q 818 125 819 126 q 815 121 815 122 q 812 117 814 119 q 808 114 810 115 q 805 109 806 110 q 801 106 804 108 q 797 101 799 104 q 794 99 796 100 q 790 94 792 96 q 786 91 788 92 q 782 88 785 90 q 778 83 781 86 q 774 81 776 82 q 769 76 771 78 q 766 74 768 75 q 762 70 764 72 q 757 67 760 68 q 753 64 756 65 q 747 61 750 63 q 743 57 747 60 q 738 55 740 56 q 733 51 736 54 q 728 49 729 50 q 724 46 726 47 q 718 43 721 44 q 713 40 715 42 q 707 38 710 39 q 701 36 703 36 q 696 33 699 35 q 690 31 694 32 q 685 29 689 31 q 679 26 682 28 q 674 24 676 25 q 668 22 671 24 q 661 21 667 22 q 656 19 657 19 q 649 17 654 18 q 643 15 646 15 q 637 13 639 14 q 631 11 635 13 q 624 10 628 11 q 617 8 622 10 q 610 7 615 8 q 603 7 608 7 q 596 6 601 6 q 589 4 593 4 q 582 4 588 4 q 575 3 579 3 q 568 3 572 3 q 560 1 565 1 q 553 1 556 1 q 546 0 549 1 q 538 0 543 0 q 531 0 533 0 q 522 0 528 0 q 172 0 301 0 l 172 0 l 53 0 q 42 11 42 0 q 53 22 42 22 l 79 22 l 79 950 l 53 950 q 42 961 42 950 q 53 972 42 972 l 172 972 l 172 972 q 454 972 325 972 q 655 935 572 972 q 776 840 738 899 l 776 839 l 778 838 l 778 836 l 779 835 l 781 833 l 782 831 l 782 829 l 783 828 l 783 826 l 785 824 l 786 822 l 788 819 l 789 817 l 789 815 l 790 813 l 792 811 q 793 807 792 808 l 793 806 l 794 803 l 796 801 l 796 800 q 797 796 796 799 l 797 794 l 797 793 l 799 790 l 799 789 q 800 785 800 788 l 800 783 l 800 782 l 801 779 l 801 778 l 801 775 l 803 772 l 803 771 l 803 769 l 803 768 l 803 765 l 804 763 l 804 761 l 804 760 l 804 758 l 804 757 l 804 756 l 804 754 l 804 753 l 804 751 l 804 750 l 804 747 l 804 744 l 804 743 l 804 740 l 804 739 l 804 738 l 804 736 l 804 735 l 804 733 l 804 732 l 803 729 l 803 728 l 803 725 l 803 724 l 803 722 l 803 721 l 801 719 l 801 718 l 801 715 l 801 714 l 800 710 l 800 708 l 800 707 l 799 706 l 799 704 l 799 703 l 797 701 l 797 700 l 797 699 l 796 696 l 796 694 l 794 693 l 794 692 l 794 690 l 793 689 l 793 688 l 792 686 l 792 685 l 792 683 l 790 682 l 789 679 l 789 678 l 788 676 l 788 675 l 786 674 l 786 672 l 785 671 l 785 669 l 783 668 l 783 667 l 782 665 l 782 664 l 779 661 l 778 658 l 778 657 q 775 654 776 656 q 772 650 774 651 q 770 647 771 649 q 768 644 769 646 l 765 640 q 763 638 764 639 q 760 635 761 636 q 757 632 758 633 q 754 629 756 631 q 751 626 753 628 q 749 622 749 624 q 745 619 746 621 q 742 617 744 618 q 739 614 740 615 q 735 610 736 611 q 732 608 733 610 q 730 606 731 607 q 728 606 729 606 q 724 603 726 604 q 721 600 722 601 q 719 598 721 599 q 717 597 718 597 q 715 595 717 596 q 713 594 714 594 q 708 592 710 592 q 704 589 706 590 q 700 586 703 588 q 697 584 699 585 q 692 582 694 583 q 688 579 690 581 q 683 576 686 578 q 678 575 681 576 q 674 572 676 574 q 669 571 672 571 q 664 568 667 569 q 660 565 663 568 q 654 564 657 565 q 649 563 651 563 q 644 560 646 561 q 639 558 642 560 q 633 557 636 557 l 628 554 q 622 553 625 554 q 617 551 618 551 q 611 550 614 550 l 607 549 l 608 549 l 613 549 l 614 547 l 618 547 l 619 547 q 646 542 633 544 l 651 540 q 667 536 658 539 q 671 535 667 536 l 676 533 l 676 532 l 681 531 q 700 525 690 528 l 700 524 l 704 522 l 708 521 l 710 519 q 725 513 718 517 l 726 513 l 731 510 l 735 508 l 735 507 q 746 501 740 504 l 747 500 l 750 499 l 751 499 l 754 496 l 756 496 l 757 493 l 760 493 l 761 490 q 765 489 763 490 l 768 486 l 769 486 l 771 483 l 774 482 l 775 481 l 776 479 l 779 478 l 781 476 l 782 475 q 786 472 785 474 q 789 469 788 471 l 792 467 l 793 465 l 794 464 l 796 463 l 797 461 l 800 460 l 801 457 l 804 454 l 804 454 l 807 451 l 808 450 l 810 447 l 811 446 l 814 444 l 814 443 l 817 440 l 818 439 l 821 436 l 821 436 l 824 432 l 824 431 l 826 428 l 826 426 l 829 425 l 829 424 l 831 421 l 832 419 l 833 417 l 835 415 l 835 415 l 836 413 l 838 411 l 839 408 l 840 407 l 842 404 l 842 403 l 843 400 l 844 399 q 846 396 846 397 l 847 392 l 849 390 l 850 389 l 850 386 l 851 385 l 851 383 l 853 382 l 853 381 l 854 378 l 856 375 l 856 374 l 857 369 l 858 368 l 858 367 l 860 364 l 860 363 l 861 361 l 861 357 l 863 356 l 864 353 l 864 350 l 864 349 l 865 347 l 865 344 l 865 343 l 867 342 l 867 340 l 867 338 l 868 335 l 868 332 l 868 331 l 869 329 l 869 328 l 869 325 l 869 324 l 869 322 l 871 319 l 871 317 l 871 314 l 871 313 l 871 311 l 872 310 l 872 307 l 872 306 l 872 304 l 872 301 l 872 299 l 872 294 l 872 293 l 872 290 l 874 289 l 874 288 l 874 285 m 728 164 q 751 277 750 217 q 728 390 751 338 q 685 459 711 429 q 618 509 658 489 q 531 532 578 529 q 449 532 489 532 q 379 532 410 532 q 322 532 349 532 q 274 532 294 532 q 240 532 254 532 q 218 532 226 532 q 210 532 210 532 q 199 543 199 532 q 210 554 199 554 q 215 554 210 554 q 231 554 221 554 q 255 554 240 554 q 290 554 269 554 q 336 554 311 554 q 394 554 361 554 q 461 554 426 554 l 463 554 q 586 590 535 558 q 663 668 638 621 q 682 753 682 708 q 661 836 682 797 q 618 891 646 867 q 549 931 590 915 q 456 950 507 947 l 454 950 q 424 950 454 950 q 328 950 393 950 q 183 950 264 950 l 183 22 q 299 22 243 22 q 393 22 356 22 q 459 22 431 22 q 503 22 488 22 q 522 22 519 22 q 524 22 522 22 q 649 66 597 28 q 728 164 701 104 z "},"C":{"ha":868,"x_min":29,"x_max":840,"o":"m 814 225 q 828 233 818 236 q 836 219 839 231 q 711 56 806 115 q 531 -3 633 6 q 251 56 378 -15 q 68 269 125 126 q 31 471 31 364 q 68 674 31 578 q 188 853 110 778 q 375 957 265 928 q 557 968 461 981 q 726 906 653 956 q 839 736 825 840 q 839 733 839 735 q 806 643 840 669 q 779 633 793 633 q 756 643 765 633 q 742 703 735 661 q 742 706 742 704 q 751 742 749 721 q 753 783 756 765 q 674 903 746 857 q 492 950 603 950 q 297 867 378 939 q 175 682 215 794 q 139 465 138 579 q 179 251 139 350 q 316 75 225 139 q 524 19 407 11 q 700 74 624 26 q 814 225 786 129 z "},"D":{"ha":892,"x_min":40,"x_max":861,"o":"m 825 686 q 860 488 861 593 q 825 290 860 383 q 821 282 822 285 q 818 275 819 279 q 815 267 817 271 q 813 260 814 263 q 808 253 810 256 q 805 245 807 249 q 801 238 803 242 q 797 231 800 235 q 793 224 796 228 q 789 217 790 219 q 785 210 786 211 q 781 203 783 207 q 777 197 779 200 q 772 189 775 193 q 768 182 771 186 q 763 176 765 179 q 758 169 761 172 q 753 163 756 167 q 749 157 750 160 l 747 156 l 743 150 q 738 144 740 147 q 726 132 732 139 q 721 126 722 129 q 715 121 719 125 q 710 115 713 118 q 703 110 706 111 q 697 104 700 107 q 692 100 694 101 l 690 99 q 685 94 688 96 q 678 89 682 92 q 672 85 675 86 q 667 81 669 82 l 665 79 q 658 75 661 76 q 640 64 650 69 l 636 61 q 629 57 633 60 q 615 50 624 53 l 615 49 q 576 32 596 39 l 575 32 q 551 22 564 26 l 550 22 q 517 14 533 17 l 515 13 q 499 10 507 11 l 497 10 q 461 4 479 6 l 460 3 q 450 3 456 3 q 442 1 447 3 l 440 1 q 410 0 425 0 q 400 0 404 0 l 399 0 q 387 0 397 0 q 356 0 376 0 q 311 0 336 0 q 249 0 286 0 q 172 0 211 0 l 53 0 q 42 11 42 0 q 53 22 42 22 l 79 22 l 79 950 l 53 950 q 42 961 42 950 q 53 972 42 972 l 143 972 q 406 972 378 972 q 555 950 486 972 q 675 889 624 928 q 764 799 726 850 q 825 686 801 747 m 715 292 q 742 490 743 385 q 708 688 739 594 q 592 878 669 806 q 406 950 514 950 q 183 950 289 950 l 183 22 q 399 22 356 22 q 599 100 519 26 q 715 292 679 174 z "},"E":{"ha":757,"x_min":40,"x_max":724,"o":"m 454 950 q 449 950 454 950 q 433 950 444 950 q 407 950 422 950 q 369 950 392 950 q 321 950 347 950 q 258 950 294 950 q 183 950 222 950 l 183 554 l 415 554 q 517 578 493 557 q 551 683 543 600 q 563 694 553 694 q 575 682 575 694 l 575 404 q 563 393 575 393 q 551 404 553 393 q 517 510 543 486 q 415 532 493 529 l 183 532 l 183 22 q 303 22 246 22 q 399 22 361 22 q 466 22 438 22 q 508 23 494 22 q 522 24 522 24 l 533 22 q 649 68 608 26 q 700 197 692 111 q 711 208 700 208 q 722 197 722 208 l 722 11 q 711 0 722 0 l 531 0 q 529 0 531 0 l 522 0 q 500 0 522 0 q 441 0 478 0 q 361 0 404 0 q 267 0 318 0 q 172 0 215 0 l 172 0 l 53 0 q 42 11 42 0 q 53 22 42 22 l 78 22 l 78 950 l 53 950 q 42 961 42 950 q 53 972 42 972 l 172 972 l 172 972 q 258 972 214 972 q 336 972 303 972 q 397 972 369 972 q 439 972 424 972 q 454 972 454 972 l 529 972 q 531 972 529 972 l 711 972 q 722 961 722 972 l 722 776 q 711 765 722 765 q 700 776 700 765 q 649 904 692 861 q 533 950 608 947 l 454 950 z "},"F":{"ha":731,"x_min":40,"x_max":724,"o":"m 711 972 q 722 961 722 972 l 722 776 q 711 765 722 765 q 700 775 700 765 q 649 904 692 861 q 533 950 608 947 l 454 950 q 449 950 454 950 q 433 950 443 950 q 407 950 422 950 q 369 950 392 950 q 321 950 347 950 q 258 950 294 950 q 183 950 222 950 l 183 554 l 415 554 q 517 578 493 557 q 551 683 543 600 q 564 693 553 693 q 575 682 575 693 l 575 404 q 564 393 575 393 q 551 404 553 393 q 517 510 543 486 q 415 532 493 529 l 183 532 l 183 22 l 211 22 q 222 11 222 22 q 211 0 222 0 l 93 0 l 92 0 l 53 0 q 42 11 42 0 q 53 22 42 22 l 78 22 l 78 950 l 53 950 q 42 961 42 950 q 53 972 42 972 l 172 972 l 172 972 q 258 972 214 972 q 336 972 303 972 q 397 972 369 972 q 439 972 424 972 q 454 972 454 972 l 529 972 q 531 972 529 972 l 711 972 z "},"G":{"ha":910,"x_min":29,"x_max":865,"o":"m 854 425 q 865 414 865 425 l 865 31 q 854 19 865 19 q 844 24 847 19 q 774 75 810 64 q 699 69 738 86 q 694 65 697 68 q 536 15 632 22 q 281 58 396 4 q 99 226 167 113 q 31 489 31 339 q 68 693 31 596 q 183 868 108 794 q 364 972 258 942 q 551 988 451 1000 q 726 925 651 975 q 839 754 825 858 q 839 751 839 753 q 806 661 840 688 q 779 651 793 653 q 756 661 765 651 q 742 721 735 679 q 742 724 742 722 q 751 761 749 739 q 753 803 756 785 q 674 922 746 876 q 492 968 603 968 q 297 885 378 958 q 175 701 215 813 q 139 483 138 599 q 179 271 139 368 q 324 88 229 150 q 544 39 419 26 q 681 85 628 47 q 744 163 725 115 q 760 229 756 193 q 758 308 763 267 q 738 368 753 350 q 632 403 715 394 q 621 414 621 403 q 632 425 621 425 l 854 425 z "},"H":{"ha":814,"x_min":42,"x_max":772,"o":"m 760 22 q 771 11 771 22 q 760 0 771 0 l 604 0 q 593 11 593 0 q 604 22 593 22 l 629 22 l 629 481 l 183 481 l 183 22 l 208 22 q 219 11 219 22 q 208 0 219 0 l 53 0 q 42 11 42 0 q 53 22 42 22 l 78 22 l 78 950 l 53 950 q 42 961 42 950 q 53 972 42 972 l 208 972 q 219 961 219 972 q 208 950 219 950 l 183 950 l 183 503 l 629 503 l 629 950 l 604 950 q 593 961 593 950 q 604 972 593 972 l 760 972 q 771 961 771 972 q 760 950 771 950 l 735 950 l 735 22 l 760 22 z "},"I":{"ha":263,"x_min":40,"x_max":221,"o":"m 208 22 q 219 11 219 22 q 208 0 219 0 l 53 0 q 42 11 42 0 q 53 22 42 22 l 78 22 l 78 950 l 53 950 q 42 961 42 950 q 53 972 42 972 l 208 972 q 219 961 219 972 q 208 950 219 950 l 183 950 l 183 22 l 208 22 z "},"J":{"ha":260,"x_min":-31,"x_max":219,"o":"m 208 972 q 219 961 219 972 q 208 950 219 950 l 182 950 l 182 178 q 182 175 182 176 q 182 14 182 96 l 182 11 q 182 -154 182 -100 q 128 -301 182 -244 q -18 -365 72 -361 q -29 -354 -29 -365 q -18 -343 -29 -343 l -17 -343 q 51 -300 28 -340 q 78 -178 78 -257 l 78 8 q 78 11 78 10 l 78 950 l 53 950 q 40 961 40 950 q 53 972 40 972 l 208 972 z "},"K":{"ha":763,"x_min":42,"x_max":765,"o":"m 753 22 q 764 11 764 22 q 753 0 764 0 l 596 0 q 585 11 585 0 q 596 22 585 22 l 613 22 l 303 563 l 183 447 l 183 22 l 208 22 q 219 11 219 22 q 208 0 219 0 l 53 0 q 42 11 42 0 q 53 22 42 22 l 79 22 l 79 950 l 53 950 q 42 961 42 950 q 53 972 42 972 l 208 972 q 219 961 219 972 q 208 950 219 950 l 183 950 l 183 479 l 297 589 q 299 589 297 589 l 331 621 l 672 950 l 651 950 q 640 961 640 950 q 651 972 640 972 l 724 972 q 735 961 735 972 q 724 950 735 950 l 706 950 l 381 638 l 732 22 l 753 22 z "},"L":{"ha":728,"x_min":40,"x_max":724,"o":"m 711 208 q 722 196 722 208 l 722 11 q 711 0 722 0 l 531 0 q 529 0 531 0 l 522 0 q 475 0 522 0 q 351 0 428 0 q 210 0 274 0 l 208 0 l 53 0 q 42 11 42 0 q 53 22 42 22 l 78 22 l 78 950 l 53 950 q 42 961 42 950 q 53 972 42 972 l 208 972 q 219 961 219 972 q 208 950 219 950 l 183 950 l 183 22 q 303 22 246 22 q 399 22 361 22 q 466 22 438 22 q 508 22 494 22 q 522 22 522 22 l 533 22 q 649 68 608 25 q 700 197 692 111 q 711 208 700 208 z "},"M":{"ha":863,"x_min":40,"x_max":821,"o":"m 808 22 q 821 11 821 22 q 808 0 821 0 l 653 0 q 642 11 642 0 q 653 22 642 22 l 679 22 l 679 901 l 407 207 l 406 207 l 406 206 l 406 206 l 406 204 l 404 204 l 404 203 l 403 203 l 403 203 l 403 201 l 401 201 l 400 201 l 399 200 l 399 200 l 397 200 l 396 200 l 394 200 l 394 200 l 394 200 l 393 200 l 393 200 l 392 201 l 392 201 l 392 201 l 390 201 l 390 201 l 390 201 l 390 201 l 390 201 l 389 203 l 389 203 l 389 203 l 389 203 l 388 204 l 388 204 l 388 204 l 388 204 l 388 204 l 386 206 q 386 206 386 206 l 386 206 l 386 207 l 386 207 l 386 207 l 386 207 l 386 207 l 386 207 l 385 208 l 385 208 l 100 904 l 100 22 l 125 22 q 138 11 138 22 q 125 0 138 0 l 53 0 q 42 11 42 0 q 53 22 42 22 l 78 22 l 78 950 l 54 950 q 43 961 43 950 q 54 972 43 972 l 178 972 q 189 964 186 972 l 439 351 l 679 964 q 690 972 682 972 l 808 972 q 821 961 821 972 q 808 950 821 950 l 783 950 l 783 22 l 808 22 z "},"N":{"ha":803,"x_min":42,"x_max":763,"o":"m 751 22 q 763 11 763 22 q 751 0 763 0 l 619 0 q 608 7 613 0 l 100 918 l 100 22 l 125 22 q 138 11 138 22 q 125 0 138 0 l 53 0 q 42 11 42 0 q 53 22 42 22 l 78 22 l 78 950 l 58 950 q 47 961 47 950 q 58 972 47 972 l 183 972 q 193 965 190 972 l 701 54 l 701 950 l 676 950 q 665 961 665 950 q 676 972 665 972 l 750 972 q 761 961 761 972 q 750 950 761 950 l 725 950 l 725 22 l 751 22 z "},"O":{"ha":913,"x_min":29,"x_max":883,"o":"m 758 829 q 883 486 883 688 q 758 143 883 285 q 566 15 676 49 q 346 15 456 -18 q 154 143 236 49 q 29 486 29 285 q 154 829 29 688 q 346 957 236 924 q 566 957 456 990 q 758 829 676 924 m 688 157 q 785 486 785 293 q 688 815 785 679 q 540 934 624 903 q 373 935 457 965 q 225 815 289 904 q 128 486 128 679 q 225 157 128 293 q 333 57 272 92 q 456 22 394 22 q 579 57 518 22 q 688 157 640 92 z "},"P":{"ha":785,"x_min":42,"x_max":771,"o":"m 771 703 l 771 701 l 771 700 l 771 697 l 771 696 l 771 694 l 771 692 l 771 690 l 769 686 l 769 685 l 769 681 l 769 679 l 769 678 l 769 675 l 769 674 l 768 672 l 768 671 l 768 668 l 768 667 l 768 665 l 768 663 l 767 661 l 767 660 l 767 657 l 767 656 l 765 651 l 765 650 l 765 649 l 764 647 l 764 644 l 764 643 l 763 642 l 763 639 l 763 638 l 761 636 l 761 635 l 761 632 l 760 631 l 760 629 l 760 626 l 758 625 l 758 624 l 757 622 l 757 618 l 756 617 l 756 615 l 754 613 l 754 611 l 753 610 l 753 607 l 751 604 l 750 603 l 750 600 l 749 599 l 749 597 l 747 596 l 746 593 l 744 590 l 744 589 l 743 588 l 742 585 q 740 581 740 581 q 738 576 738 578 q 735 572 736 574 q 732 568 733 571 q 731 564 732 565 q 728 560 729 563 q 725 556 726 557 q 721 551 724 554 q 718 547 719 549 q 715 543 717 546 q 713 539 714 542 q 708 535 710 536 q 706 531 707 533 q 703 528 704 529 q 699 524 701 526 q 694 519 696 521 q 692 515 693 517 q 688 513 689 514 q 683 508 685 510 q 679 505 682 507 q 676 501 676 503 q 672 497 675 500 q 668 494 668 494 q 663 492 667 493 q 658 488 661 489 q 654 485 656 486 q 650 482 653 483 q 644 478 647 481 q 640 476 643 478 q 636 472 638 474 q 631 469 635 472 q 625 467 626 467 q 621 464 622 465 q 615 461 619 463 q 610 458 613 460 q 604 456 607 457 q 599 453 601 454 q 593 451 599 453 q 588 449 590 449 q 582 446 585 447 q 576 444 581 446 q 571 442 574 443 q 567 440 569 442 q 565 440 565 440 q 558 438 563 439 q 553 436 557 438 q 546 435 549 435 q 540 432 542 433 q 533 431 538 432 q 528 429 532 431 q 521 428 525 429 q 514 426 519 428 q 508 426 511 426 q 501 424 504 425 q 494 424 499 424 q 488 422 493 422 q 479 421 483 422 q 472 421 478 421 q 465 419 469 419 q 458 419 463 419 q 451 418 453 419 q 443 418 447 418 q 436 418 440 418 q 428 418 429 418 q 421 418 425 418 q 419 418 419 418 q 183 418 275 418 l 183 22 l 208 22 q 219 11 219 22 q 208 0 219 0 l 53 0 q 42 11 42 0 q 53 22 42 22 l 79 22 l 79 950 l 53 950 q 42 961 42 950 q 53 972 42 972 l 428 972 q 507 967 469 972 q 528 963 517 964 q 540 960 533 961 q 547 958 544 958 q 553 957 550 957 q 558 956 557 956 q 571 951 564 953 q 576 950 575 950 q 582 947 581 949 q 589 946 586 946 q 594 943 592 944 q 599 941 597 942 q 604 939 601 940 q 610 936 606 938 q 615 933 614 935 q 621 932 618 932 q 625 929 624 931 q 631 926 628 928 q 635 924 635 924 q 640 921 638 922 q 644 918 642 919 q 650 915 647 917 q 654 913 653 913 q 658 908 657 910 q 663 906 661 907 q 667 903 665 904 q 671 900 668 901 q 675 896 672 899 q 679 893 678 894 q 683 889 681 892 q 688 886 686 888 q 690 883 689 885 q 694 879 693 881 q 698 876 696 878 q 701 872 700 874 q 706 868 703 871 q 708 865 707 865 q 711 861 710 864 q 715 857 713 860 q 718 853 715 857 q 721 850 718 851 q 724 846 722 847 q 726 842 725 843 q 729 838 728 839 q 732 834 731 836 q 735 829 733 832 q 737 825 736 826 q 739 821 738 824 q 742 817 740 818 q 743 813 743 815 l 746 810 l 747 806 l 747 804 l 749 803 l 749 801 l 750 800 l 751 797 l 751 796 l 753 793 l 754 789 l 756 786 l 756 783 l 757 782 l 757 781 l 758 779 l 758 776 l 760 775 l 760 774 l 761 769 l 761 768 l 761 767 l 763 764 l 763 763 l 763 761 l 764 760 l 764 757 l 764 756 l 765 751 l 765 750 l 765 749 l 767 747 l 767 744 l 767 743 l 767 742 l 768 739 l 768 738 l 768 733 l 768 732 l 768 731 l 769 729 l 769 726 l 769 725 l 769 724 l 769 721 l 769 719 l 769 715 l 771 713 l 771 710 l 771 708 l 771 707 l 771 706 l 771 703 m 625 581 q 648 694 647 633 q 625 808 649 754 q 583 877 610 847 q 516 926 556 907 q 428 950 476 946 l 183 950 l 183 440 q 419 440 351 440 q 421 440 419 440 q 547 483 494 446 q 625 581 599 521 z "},"Q":{"ha":914,"x_min":29,"x_max":935,"o":"m 928 -118 q 928 -132 935 -125 q 873 -176 900 -160 q 823 -201 846 -193 q 772 -207 800 -210 q 724 -200 743 -204 q 674 -181 704 -196 q 628 -157 644 -167 q 579 -128 611 -147 q 527 -96 546 -106 q 476 -70 508 -86 q 421 -51 444 -54 q 367 -49 397 -49 q 308 -65 338 -50 q 249 -104 279 -79 q 233 -103 240 -111 q 233 -87 226 -94 q 378 8 306 -12 q 154 143 247 36 q 29 486 29 285 q 154 829 29 688 q 346 957 236 924 q 566 956 456 990 q 758 829 676 922 q 883 486 883 688 q 758 143 883 285 q 514 4 657 26 q 667 -74 568 -12 q 719 -105 701 -94 q 768 -129 738 -115 q 819 -144 799 -143 q 865 -140 839 -146 q 913 -115 890 -133 q 928 -118 921 -108 m 225 157 q 372 38 288 69 q 540 38 456 7 q 688 157 624 69 q 785 486 785 293 q 688 815 785 679 q 540 934 624 903 q 373 935 457 965 q 225 815 289 904 q 128 486 128 679 q 225 157 128 293 z "},"R":{"ha":794,"x_min":42,"x_max":771,"o":"m 771 703 l 771 701 l 771 700 l 771 697 l 771 696 l 771 694 l 771 692 l 771 690 l 769 686 l 769 685 l 769 681 l 769 679 l 769 678 l 769 675 l 769 674 l 768 672 l 768 671 l 768 668 l 768 667 l 768 665 l 768 663 l 767 661 l 767 660 l 767 657 l 767 656 l 765 651 l 765 650 l 765 649 l 764 647 l 764 644 l 764 643 l 763 642 l 763 639 l 763 638 l 761 636 l 761 635 l 761 632 l 760 631 l 760 629 l 760 626 l 758 625 l 758 624 l 757 619 l 757 618 l 756 617 l 756 615 l 754 613 l 754 611 l 753 610 l 751 606 l 750 603 l 750 600 l 749 599 l 749 597 l 747 596 l 746 593 l 746 592 l 744 589 l 743 588 l 742 585 q 740 581 740 582 q 738 576 739 578 q 735 572 736 574 q 732 568 735 571 q 731 564 732 567 q 727 560 729 563 q 725 556 725 557 q 721 551 724 554 q 718 547 721 550 q 715 543 717 546 q 713 539 714 542 q 708 535 710 536 q 706 531 707 533 q 703 528 704 529 q 699 524 701 526 q 694 519 696 521 q 692 515 692 517 q 688 513 689 514 q 683 508 686 511 q 680 505 682 507 q 675 501 678 503 q 672 497 674 500 q 667 494 668 494 q 663 492 665 493 q 659 488 661 489 q 654 485 657 486 q 650 482 653 483 q 644 478 647 479 q 640 476 643 478 q 635 472 638 474 q 631 469 632 471 q 625 467 626 467 q 620 464 622 465 q 615 461 618 463 q 610 458 613 460 q 604 456 607 457 q 599 453 601 454 q 593 451 597 453 q 588 449 590 450 q 582 446 586 447 q 576 444 581 446 q 571 442 574 443 q 565 440 568 440 q 558 438 563 439 q 553 436 557 438 q 546 435 549 435 q 540 432 542 433 q 533 431 536 432 q 528 429 532 431 q 521 428 525 429 q 514 426 519 428 q 507 425 511 426 q 500 424 506 425 q 494 424 499 424 q 488 422 492 422 q 479 421 483 422 q 472 421 478 421 q 465 419 469 419 q 458 419 463 419 q 451 418 456 419 l 724 22 l 740 22 q 751 11 751 22 q 740 0 751 0 l 583 0 q 572 11 572 0 q 583 22 572 22 l 596 22 l 325 418 q 183 418 221 418 l 183 22 l 208 22 q 219 11 219 22 q 208 0 219 0 l 172 0 l 90 0 l 89 0 l 53 0 q 42 11 42 0 q 53 22 42 22 l 79 22 l 79 950 l 53 950 q 42 961 42 950 q 53 972 42 972 l 428 972 q 507 967 469 972 q 528 963 517 964 q 540 960 533 961 q 547 958 544 958 q 553 957 549 957 q 558 956 557 956 q 571 951 564 953 q 576 950 575 950 q 582 947 581 949 q 589 946 585 946 q 594 943 592 944 q 599 941 597 942 q 604 939 601 940 q 610 936 606 938 q 615 933 614 935 q 621 932 618 932 q 625 929 624 929 q 631 926 628 928 q 635 924 635 924 q 640 921 638 922 q 644 918 642 919 q 650 915 647 917 q 654 913 651 914 q 658 908 657 910 q 663 906 661 907 q 667 903 665 904 q 671 900 668 901 q 675 897 672 899 q 679 893 678 894 q 683 890 681 892 q 688 886 686 888 q 690 883 689 885 q 694 879 693 881 q 698 876 696 878 q 701 872 700 874 q 705 868 703 871 q 708 865 707 865 q 711 861 710 864 q 715 857 713 860 q 718 853 715 857 q 721 850 718 851 q 724 846 722 847 q 726 842 725 843 q 729 838 728 839 q 732 834 731 836 q 735 829 733 832 q 736 825 736 826 q 739 822 738 825 q 739 821 739 822 q 742 817 740 818 q 743 813 743 815 l 746 810 l 747 806 l 747 804 l 749 803 l 749 801 l 750 800 l 751 797 l 751 796 l 753 793 l 754 790 l 754 788 l 756 783 l 757 782 l 757 781 l 758 779 l 760 775 l 760 774 l 761 769 l 761 768 l 761 767 l 763 764 l 763 763 l 763 761 l 764 760 l 764 757 l 764 756 l 765 751 l 765 750 l 765 749 l 767 747 l 767 744 l 767 743 l 767 742 l 768 739 l 768 738 l 768 733 l 768 732 l 768 731 l 769 729 l 769 726 l 769 725 l 769 724 l 769 721 l 769 718 l 769 715 l 771 713 l 771 710 l 771 708 l 771 707 l 771 706 l 771 703 m 625 581 q 648 694 647 633 q 626 808 649 754 q 549 906 600 868 q 428 950 499 944 l 183 950 l 183 440 l 331 440 l 332 440 l 383 440 l 394 440 q 419 440 417 440 l 421 440 q 547 483 494 446 q 625 581 599 521 z "},"S":{"ha":746,"x_min":25,"x_max":714,"o":"m 399 543 q 466 517 443 526 q 529 490 489 508 q 590 458 569 472 q 639 420 611 443 q 681 373 667 397 q 703 315 694 349 q 711 244 713 282 q 681 145 708 193 q 600 63 653 97 q 346 -3 501 -4 q 139 64 224 -6 q 92 114 111 86 l 89 117 q 69 132 79 131 q 46 125 58 135 q 31 126 36 118 q 29 139 26 132 q 43 185 39 158 q 46 240 47 210 l 46 242 l 46 242 l 46 242 l 46 243 l 46 243 l 46 243 l 46 243 l 46 243 l 46 244 l 46 244 l 46 244 l 46 244 l 46 244 l 46 244 l 46 246 l 46 246 l 46 246 l 46 246 l 47 247 l 47 247 l 47 247 l 47 247 l 47 247 l 47 247 l 47 249 l 47 249 l 47 249 l 49 249 l 49 249 l 49 249 l 49 249 l 49 250 l 49 250 l 49 250 l 50 250 l 50 250 l 50 250 l 50 250 l 50 251 l 50 251 l 51 251 l 51 251 l 51 251 l 51 251 l 51 251 l 51 251 l 53 251 l 53 251 l 53 251 l 53 251 l 54 253 l 54 253 l 56 253 l 56 253 l 57 253 l 57 253 l 57 253 l 57 253 l 58 253 l 58 253 l 58 253 l 58 253 l 60 253 l 60 253 l 60 251 l 60 251 l 60 251 l 61 251 l 61 251 l 61 251 l 61 251 l 61 251 l 63 251 l 63 251 l 63 250 l 63 250 l 63 250 l 64 250 l 64 250 l 64 250 l 64 250 l 64 250 l 64 250 l 64 249 l 65 249 l 65 249 l 65 249 l 65 249 l 65 249 l 65 247 l 65 247 l 67 247 l 67 247 l 67 247 l 67 246 l 67 246 l 67 246 l 67 246 l 67 246 l 67 244 l 67 244 l 67 244 l 67 244 l 68 244 l 68 243 l 68 243 l 68 243 q 83 176 72 206 q 85 172 83 175 q 153 81 107 118 q 346 19 232 17 q 524 82 450 21 q 601 228 601 146 q 533 357 601 303 q 371 440 482 399 q 314 461 351 449 q 253 484 274 476 q 197 508 232 492 q 144 537 163 524 q 103 571 126 550 q 70 615 81 592 q 53 669 60 638 q 51 738 47 700 q 158 908 63 840 q 382 972 250 974 q 383 972 383 972 q 578 921 489 971 q 688 799 664 872 q 690 790 689 794 q 689 732 696 758 q 653 692 678 699 l 650 690 q 639 690 644 690 l 638 690 q 615 701 625 692 q 601 728 606 711 q 600 754 599 740 l 600 756 q 551 893 606 844 q 382 950 497 943 q 222 889 289 946 q 151 756 156 832 q 162 692 150 721 q 189 646 174 664 q 237 610 204 628 q 292 583 269 592 q 360 557 314 574 l 399 543 z "},"T":{"ha":831,"x_min":1,"x_max":828,"o":"m 815 972 q 826 961 826 972 l 826 776 q 815 764 826 764 q 804 775 804 764 q 753 904 794 861 q 638 950 711 947 l 626 950 q 615 950 622 950 q 567 950 607 950 q 467 950 528 950 l 467 22 l 493 22 q 504 11 504 22 q 493 0 504 0 l 338 0 q 325 11 325 0 q 338 22 325 22 l 363 22 l 363 950 q 203 950 226 950 l 192 950 q 76 904 118 947 q 25 775 35 861 q 14 764 25 764 q 3 776 3 764 l 3 961 q 14 972 3 972 l 194 972 q 197 972 196 972 l 203 972 q 374 972 221 972 l 456 972 q 626 972 608 972 l 632 972 q 635 972 633 972 l 815 972 z "},"U":{"ha":792,"x_min":29,"x_max":760,"o":"m 749 972 q 760 961 760 972 q 749 950 760 950 l 724 950 l 724 389 q 698 226 724 300 q 630 103 672 151 q 533 26 588 54 q 451 -1 494 7 l 449 -1 l 447 -1 l 447 -1 l 444 -1 l 443 -3 l 443 -3 l 442 -3 l 442 -3 l 440 -3 l 439 -3 l 438 -3 q 400 -6 418 -6 q 243 40 315 -6 q 239 43 240 42 l 238 43 q 233 46 235 46 l 233 46 l 232 47 l 229 49 l 228 50 q 224 53 225 53 l 222 54 l 221 56 q 217 58 219 57 l 215 60 l 213 61 l 210 64 l 207 65 l 207 67 q 69 374 85 169 l 69 375 l 69 381 l 68 382 l 68 385 l 68 386 l 68 390 l 68 396 l 68 399 q 68 407 68 403 l 68 407 q 68 417 68 411 q 67 426 67 421 l 67 950 l 42 950 q 31 961 31 950 q 42 972 31 972 l 197 972 q 208 961 208 972 q 197 950 208 950 l 172 950 l 172 413 q 174 378 172 394 q 254 103 183 193 q 439 21 321 18 q 449 21 442 21 q 522 46 488 29 q 651 175 603 88 q 700 389 700 263 l 700 950 l 675 950 q 664 961 664 950 q 675 972 664 972 l 749 972 z "},"V":{"ha":836,"x_min":-8,"x_max":844,"o":"m 832 972 q 843 961 843 972 q 832 950 843 950 l 803 950 l 479 118 q 478 117 479 117 l 436 7 l 436 7 l 435 6 l 435 6 l 435 4 l 433 4 l 433 3 l 433 3 l 432 3 l 432 1 l 432 1 l 431 1 l 431 1 l 429 1 l 429 0 l 428 0 l 426 0 l 425 0 l 424 0 l 424 0 l 424 0 l 422 0 l 422 0 l 421 0 l 421 1 l 421 1 l 421 1 l 421 1 l 419 1 l 419 1 l 418 1 l 418 3 l 418 3 l 418 3 l 418 3 l 418 3 q 415 7 415 4 l 21 950 l 3 950 q -8 961 -8 950 q 3 972 -8 972 l 147 972 q 158 961 158 972 q 147 950 158 950 l 135 950 l 468 151 l 779 950 l 760 950 q 749 961 749 950 q 760 972 749 972 l 832 972 z "},"W":{"ha":1225,"x_min":-8,"x_max":1233,"o":"m 1221 972 q 1232 960 1232 972 q 1221 949 1232 949 l 1192 949 l 868 118 q 867 117 868 117 l 825 7 l 824 6 l 824 6 l 824 4 l 822 4 l 822 3 l 822 3 l 821 3 l 821 1 l 819 1 l 819 1 l 818 1 l 818 0 l 817 0 l 815 0 l 814 0 l 814 0 l 813 0 l 813 0 l 811 0 l 811 0 l 810 0 l 810 0 l 810 1 l 810 1 l 810 1 l 808 1 l 808 1 q 807 1 808 1 l 807 3 l 807 3 l 807 3 l 807 3 l 807 3 q 804 7 804 4 l 614 463 l 479 118 q 478 117 479 117 l 451 47 l 436 7 l 435 6 l 435 6 l 435 4 l 433 4 l 433 3 l 433 3 l 432 3 l 432 1 l 431 1 l 431 1 l 429 1 l 429 0 l 428 0 l 428 0 l 426 0 l 425 0 l 425 0 l 424 0 l 424 0 l 422 0 l 421 0 l 421 1 l 421 1 l 421 1 l 421 1 l 419 1 l 419 1 l 418 1 l 418 3 l 418 3 l 418 3 l 418 3 l 418 3 q 415 7 415 4 l 21 950 l 3 950 q -8 961 -8 950 q 3 972 -8 972 l 147 972 q 158 961 158 972 q 147 950 158 950 l 135 950 l 468 151 l 601 493 l 410 950 l 392 950 q 381 961 381 950 q 392 972 381 972 l 536 972 q 547 961 547 972 q 536 950 547 950 l 524 950 l 857 151 l 1168 950 l 1149 950 q 1136 961 1136 950 q 1149 972 1136 972 l 1221 972 z "},"X":{"ha":810,"x_min":-3,"x_max":813,"o":"m 800 22 q 811 11 811 22 q 800 0 811 0 l 633 0 q 622 11 622 0 q 633 22 622 22 l 650 22 l 376 432 l 61 22 l 82 22 q 94 11 94 22 q 82 0 94 0 l 10 0 q -1 11 -1 0 q 10 22 -1 22 l 32 22 l 364 453 l 32 950 l 11 950 q 0 961 0 950 q 11 972 0 972 l 178 972 q 189 961 189 972 q 178 950 189 950 l 157 950 l 431 540 l 747 950 l 725 950 q 714 961 714 950 q 725 972 714 972 l 799 972 q 810 961 810 972 q 799 950 810 950 l 776 950 l 444 519 l 776 22 l 800 22 z "},"Y":{"ha":831,"x_min":-12,"x_max":842,"o":"m 829 972 q 840 961 840 972 q 829 950 840 950 l 806 950 l 485 431 l 485 22 l 515 22 q 526 11 526 22 q 515 0 526 0 l 474 0 l 392 0 l 390 0 l 349 0 q 338 11 338 0 q 349 22 338 22 l 381 22 l 381 411 l 21 950 l 0 950 q -11 961 -11 950 q 0 972 -11 972 l 167 972 q 178 961 178 972 q 167 950 178 950 l 146 950 l 400 569 q 401 568 401 568 l 475 457 l 779 950 l 757 950 q 746 961 746 950 q 757 972 746 972 l 829 972 z "},"Z":{"ha":772,"x_min":6,"x_max":767,"o":"m 757 971 q 760 954 767 964 l 142 22 l 521 22 l 532 22 q 647 68 606 25 q 699 197 689 111 q 710 207 699 207 q 721 196 721 207 l 721 11 q 710 0 721 0 l 529 0 q 528 0 528 0 l 521 0 l 122 0 q 121 0 121 0 l 22 0 q 17 1 19 0 q 13 18 7 8 l 632 950 l 236 950 q 122 904 163 947 q 71 775 79 861 q 58 764 69 764 q 47 776 47 764 l 47 961 q 58 972 47 972 l 240 972 q 242 972 240 972 l 247 972 l 651 972 q 653 972 651 972 l 750 972 q 757 971 754 972 z "},"[":{"ha":303,"x_min":69,"x_max":249,"o":"m 69 961 q 81 972 69 972 l 236 972 q 247 961 247 972 q 236 950 247 950 l 174 950 l 174 22 l 236 22 q 247 11 247 22 q 236 0 247 0 l 81 0 q 69 11 69 0 l 69 961 z "},"\\":{"ha":508,"x_min":47,"x_max":458,"o":"m 82 971 l 451 21 q 443 1 457 7 q 424 10 429 -4 l 54 960 q 63 979 49 974 q 82 971 76 985 z "},"]":{"ha":303,"x_min":53,"x_max":233,"o":"m 65 972 l 221 972 q 232 961 232 972 l 232 11 q 221 0 232 0 l 65 0 q 54 11 54 0 q 65 22 54 22 l 128 22 l 128 950 l 65 950 q 54 961 54 950 q 65 972 54 972 z "},"_":{"ha":465,"x_min":25,"x_max":439,"o":"m 424 0 l 42 0 q 31 5 35 0 q 26 16 26 10 q 31 26 26 22 q 42 31 35 31 l 424 31 q 433 26 429 31 q 438 16 438 22 q 433 5 438 10 q 424 0 429 0 z "},"a":{"ha":636,"x_min":28,"x_max":606,"o":"m 593 26 q 604 15 604 26 q 593 4 604 4 l 475 4 q 463 15 463 4 l 463 101 q 400 38 439 63 q 241 1 332 -6 q 90 57 150 7 l 88 60 l 86 63 l 83 65 q 81 67 82 67 l 78 69 q 76 72 76 71 l 74 75 q 71 78 72 75 q 29 193 29 128 l 29 194 l 29 196 l 29 197 l 29 199 l 29 200 l 29 201 l 29 203 l 29 204 l 29 206 l 29 207 l 31 208 l 31 210 l 31 211 l 31 213 l 31 214 l 31 215 l 32 218 l 32 221 l 32 222 l 32 224 l 32 225 l 33 226 l 33 228 l 33 229 l 33 231 l 35 232 l 35 235 l 35 236 l 36 238 l 36 240 l 36 242 l 38 243 l 38 244 l 39 246 l 39 247 l 39 249 l 39 250 l 40 251 l 40 253 l 40 254 l 42 256 l 43 258 l 43 260 l 44 261 l 44 263 l 46 265 l 47 268 q 143 362 78 331 q 290 393 208 393 l 463 393 l 463 418 q 463 433 463 428 q 419 607 461 549 q 296 665 378 665 l 290 665 q 256 661 272 665 q 188 621 208 651 q 172 544 167 590 q 168 490 182 511 q 144 472 158 476 q 133 471 139 471 q 125 472 129 471 q 96 492 107 476 q 85 533 85 508 q 149 640 85 593 q 251 683 192 672 q 289 689 269 688 l 290 689 q 315 689 303 689 l 317 689 l 318 689 l 318 689 l 319 689 l 322 688 q 504 611 438 681 q 568 429 568 544 l 568 26 l 593 26 m 463 151 l 463 371 l 290 371 q 196 342 235 371 q 139 268 157 314 q 126 179 122 225 q 157 96 131 132 q 356 40 218 13 q 388 57 372 47 q 463 151 440 90 z "},"b":{"ha":694,"x_min":22,"x_max":664,"o":"m 501 660 q 615 556 575 626 q 660 407 656 486 q 640 249 664 328 q 571 114 617 169 q 364 8 486 10 l 361 8 q 176 76 251 8 l 176 19 q 165 8 176 8 l 46 8 q 35 19 35 8 q 46 31 35 31 l 72 31 l 72 788 q 65 850 72 833 q 33 876 58 867 q 28 890 24 881 q 33 897 29 894 q 104 933 82 921 q 157 976 136 953 q 174 978 165 985 q 176 969 176 974 l 176 581 q 288 671 211 643 q 393 686 338 689 q 501 660 451 683 m 535 222 q 553 365 553 290 q 536 504 553 440 q 475 619 515 576 q 376 664 435 663 q 296 649 333 663 q 213 592 244 631 q 176 499 181 553 l 176 339 q 225 115 176 193 q 275 60 246 81 q 428 51 356 6 q 535 222 501 97 z "},"c":{"ha":667,"x_min":25,"x_max":636,"o":"m 540 469 q 547 501 542 485 q 551 536 551 519 q 518 608 550 578 q 426 654 485 640 q 265 635 333 676 q 164 488 197 594 q 142 340 142 418 q 165 193 143 261 q 239 72 190 118 q 357 22 288 25 q 519 75 450 25 q 599 197 586 122 q 611 206 600 208 q 621 193 622 204 q 532 56 606 110 q 333 0 450 -4 q 136 81 217 4 l 133 83 l 131 86 l 128 89 l 125 92 l 122 93 l 121 96 l 118 99 l 115 101 l 114 104 l 111 107 l 108 110 l 107 113 l 104 115 l 103 118 l 100 121 l 99 125 l 96 128 l 94 131 l 92 133 l 90 136 l 88 139 l 86 143 l 85 146 l 82 149 l 81 151 l 79 156 l 76 158 l 75 161 l 74 164 l 72 168 q 35 372 25 263 q 131 596 47 513 l 133 599 l 136 601 l 139 604 l 142 607 l 144 610 l 147 613 l 150 615 l 154 617 l 157 619 l 160 622 q 361 685 246 686 q 525 642 451 685 q 625 521 599 600 q 633 467 636 490 q 618 424 632 442 q 585 404 604 407 q 577 405 581 404 q 571 406 574 406 q 546 428 554 411 q 540 469 539 444 z "},"d":{"ha":669,"x_min":35,"x_max":635,"o":"m 622 22 q 635 11 633 22 q 622 0 635 0 l 504 0 q 493 11 493 0 l 493 100 q 460 57 481 75 q 315 0 401 0 q 76 142 153 3 q 36 297 40 211 l 35 299 l 35 301 l 35 304 l 35 308 l 35 311 l 35 313 l 35 315 l 35 318 l 35 319 l 35 322 l 35 326 l 35 332 l 35 333 l 35 336 l 35 340 l 35 343 l 35 346 l 35 347 l 36 353 l 36 354 l 36 358 l 36 361 l 36 364 l 36 365 l 38 371 l 38 372 l 38 375 l 38 378 l 38 379 l 38 382 l 39 385 l 39 389 l 39 392 l 40 393 l 40 399 l 40 400 l 42 403 l 42 407 l 42 410 l 43 411 l 43 417 l 44 421 l 44 424 l 46 428 l 46 429 l 47 435 l 49 436 l 49 439 l 50 443 l 50 446 l 51 447 l 51 450 l 53 454 l 54 457 l 56 461 l 56 463 l 56 465 q 58 471 57 467 q 60 476 58 472 q 63 482 61 479 q 207 657 108 607 q 325 685 263 685 q 450 651 397 685 q 493 611 476 633 l 493 775 q 485 836 493 819 q 454 863 478 853 q 447 876 443 867 q 453 883 449 881 q 524 919 503 907 q 578 963 556 940 q 593 964 585 971 q 597 956 597 960 l 597 22 l 622 22 m 493 194 l 493 539 l 493 543 q 439 632 490 599 q 325 663 390 663 q 259 643 289 663 q 210 591 229 624 q 178 526 190 558 q 158 458 167 494 q 144 311 143 388 q 164 171 146 233 q 222 63 183 103 q 314 22 260 22 q 315 22 314 22 q 444 72 393 24 q 493 194 493 119 z "},"e":{"ha":671,"x_min":18,"x_max":640,"o":"m 583 149 q 598 154 588 160 q 603 139 608 149 q 506 39 574 76 q 358 0 440 3 q 156 64 242 -3 q 43 250 69 131 q 53 464 19 357 q 166 627 85 568 q 361 686 247 686 q 560 617 481 685 q 638 436 640 550 q 620 356 636 390 q 573 301 604 321 q 499 281 542 281 l 146 281 q 165 193 153 235 q 239 72 190 118 q 357 22 288 25 q 494 58 433 24 q 583 149 556 93 m 143 340 q 144 303 143 321 l 418 303 q 532 396 504 311 q 542 475 544 433 q 521 554 539 517 q 455 633 499 603 q 350 663 411 663 q 235 610 282 658 q 164 488 188 563 q 143 340 142 418 z "},"f":{"ha":360,"x_min":25,"x_max":557,"o":"m 557 807 q 557 804 557 807 q 557 803 557 804 l 557 803 q 533 750 554 764 q 514 744 524 743 q 494 751 503 744 q 472 803 472 768 l 472 804 q 446 913 479 876 q 358 950 418 942 l 357 950 q 338 951 347 951 q 225 883 263 947 q 186 689 186 818 l 186 685 l 351 685 q 363 674 363 685 q 351 663 363 663 l 186 663 l 186 22 l 213 22 q 224 11 224 22 q 213 0 224 0 l 57 0 q 44 11 44 0 q 57 22 44 22 l 82 22 l 82 656 q 82 663 82 657 l 38 663 q 26 674 26 663 q 38 685 26 685 l 82 685 q 163 911 89 838 q 331 974 226 974 l 336 974 l 338 974 q 360 972 349 974 q 367 971 363 972 l 368 971 l 369 971 l 371 971 l 372 971 l 374 971 l 375 971 l 376 969 l 378 969 l 379 969 l 381 969 l 382 969 l 382 969 l 383 968 l 385 968 l 386 968 l 388 968 l 392 967 q 422 957 408 963 l 424 957 q 476 931 451 947 l 478 929 l 479 929 l 482 928 q 497 915 490 921 q 557 814 551 871 l 557 811 l 557 810 l 557 807 z "},"g":{"ha":631,"x_min":32,"x_max":607,"o":"m 606 -168 l 607 -168 l 607 -169 l 607 -172 l 607 -174 l 606 -176 l 606 -179 l 606 -182 l 606 -183 l 606 -186 l 606 -189 l 604 -190 l 604 -193 l 604 -194 l 603 -197 l 603 -200 l 603 -201 l 601 -204 l 601 -206 l 600 -208 l 600 -210 l 599 -212 l 599 -214 l 597 -217 l 597 -219 l 596 -221 l 596 -222 l 594 -225 l 593 -226 l 593 -229 l 592 -231 l 590 -233 l 589 -235 l 589 -237 l 588 -239 l 586 -240 l 585 -243 l 583 -244 l 582 -247 l 581 -249 l 581 -250 l 579 -253 q 576 -256 578 -254 l 575 -257 l 574 -260 l 572 -261 l 569 -262 l 568 -264 l 567 -267 l 565 -268 l 564 -269 l 563 -271 l 561 -274 l 558 -275 l 557 -276 l 556 -278 l 554 -279 l 551 -281 l 550 -282 l 549 -285 l 546 -286 l 544 -287 l 543 -289 l 540 -290 l 539 -292 l 538 -293 q 383 -349 475 -337 l 382 -349 l 381 -349 l 381 -349 l 379 -349 l 378 -349 l 378 -349 l 376 -349 l 376 -350 l 375 -350 l 375 -350 l 374 -350 l 374 -350 l 372 -350 l 372 -350 l 371 -350 l 369 -350 l 369 -350 l 368 -350 l 368 -350 l 367 -350 l 367 -350 l 365 -350 l 365 -350 l 364 -350 l 364 -350 l 363 -350 l 363 -350 l 361 -350 l 361 -350 l 360 -350 l 360 -350 l 358 -350 l 358 -350 l 357 -351 l 357 -351 l 356 -351 l 356 -351 l 354 -351 l 354 -351 l 353 -351 l 353 -351 l 351 -351 l 351 -351 l 350 -351 l 350 -351 l 349 -351 l 349 -351 l 347 -351 l 347 -351 l 346 -351 l 346 -351 l 344 -351 l 344 -351 l 343 -351 l 342 -351 l 333 -351 q 174 -315 244 -350 q 174 -314 174 -315 q 138 -293 154 -304 l 138 -292 l 136 -292 q 131 -287 133 -289 l 129 -286 l 129 -285 l 128 -285 l 126 -285 l 126 -283 l 125 -282 l 124 -282 l 122 -281 l 122 -279 q 74 -197 83 -244 l 74 -196 q 72 -192 72 -193 l 72 -190 l 72 -189 l 72 -187 l 72 -187 l 72 -186 l 72 -185 l 71 -183 l 71 -182 l 71 -181 l 71 -181 l 71 -178 l 71 -176 l 71 -176 q 110 -99 74 -117 q 143 -94 126 -90 q 169 -114 161 -99 q 161 -167 182 -137 q 143 -236 138 -200 q 185 -294 150 -269 q 333 -329 250 -328 q 435 -297 394 -324 q 494 -229 476 -269 q 506 -165 508 -199 q 488 -103 504 -132 q 326 -26 442 -25 q 178 -21 226 -35 q 125 36 125 -6 l 125 40 q 168 92 126 75 q 210 103 186 100 q 111 171 154 126 q 32 385 32 256 q 111 600 32 514 q 311 689 193 686 q 331 688 321 689 q 432 664 383 685 q 442 665 438 664 q 450 668 446 667 q 490 697 478 676 q 500 744 504 717 q 496 763 499 753 q 497 829 481 807 q 519 843 506 840 q 543 839 531 844 q 578 781 575 824 q 542 689 581 725 q 463 647 513 661 q 519 600 494 628 q 600 385 600 514 q 519 171 600 256 q 412 101 478 125 q 290 83 346 78 q 265 83 278 83 q 176 71 208 83 q 147 39 149 60 l 147 36 q 185 1 147 11 q 325 -4 229 -11 q 521 -35 443 6 q 606 -151 596 -72 l 606 -156 l 606 -156 l 606 -162 l 606 -164 l 606 -164 l 606 -165 l 606 -168 m 186 182 q 316 104 239 104 q 446 182 393 104 q 500 385 500 264 q 446 588 500 507 q 316 667 393 667 q 186 588 239 667 q 131 385 131 507 q 186 182 131 264 z "},"h":{"ha":703,"x_min":21,"x_max":674,"o":"m 661 22 q 674 11 674 22 q 661 0 674 0 l 506 0 q 494 11 494 0 q 506 22 494 22 l 532 22 l 532 418 q 531 442 532 429 q 481 607 526 547 q 401 659 449 647 q 308 651 354 671 q 175 492 203 613 l 175 22 l 201 22 q 213 11 213 22 q 201 0 213 0 l 46 0 q 35 11 35 0 q 46 22 35 22 l 71 22 l 71 775 q 64 836 71 819 q 32 863 57 853 q 26 876 22 867 q 32 883 28 881 q 103 919 81 907 q 156 963 135 940 q 172 964 164 971 q 175 956 175 960 l 175 560 q 300 674 217 642 q 414 686 354 693 q 528 643 475 678 q 608 554 581 608 q 636 393 636 499 l 636 22 l 661 22 z "},"i":{"ha":254,"x_min":28,"x_max":219,"o":"m 176 825 q 125 800 156 800 q 74 825 94 800 q 54 883 54 850 q 74 942 54 917 q 125 967 94 967 q 176 942 156 967 q 197 883 197 917 q 176 825 197 850 m 208 22 q 219 11 219 22 q 208 0 219 0 l 53 0 q 42 11 42 0 q 53 22 42 22 l 78 22 l 78 493 q 71 556 78 539 q 39 581 64 572 q 33 596 29 585 q 39 601 35 600 q 110 639 88 626 q 163 682 142 658 q 179 682 171 690 q 182 674 182 679 l 182 22 l 208 22 z "},"j":{"ha":246,"x_min":-39,"x_max":199,"o":"m 182 174 l 182 117 l 182 110 l 182 108 l 182 101 l 182 90 l 182 85 l 182 82 l 182 78 l 182 69 l 182 65 l 182 61 l 182 58 l 182 54 l 182 50 l 182 46 l 182 42 l 182 39 l 182 35 l 182 32 l 182 28 l 182 25 l 182 19 l 182 18 l 182 13 l 182 11 l 182 6 l 182 4 l 182 -1 l 182 -3 l 182 -8 l 182 -10 l 182 -15 l 182 -21 l 182 -22 l 182 -28 l 182 -33 l 182 -35 l 181 -40 l 181 -46 l 181 -51 l 181 -57 l 181 -62 l 181 -67 l 181 -68 l 181 -72 l 181 -74 l 181 -78 l 181 -82 l 181 -83 l 181 -86 l 181 -87 l 181 -92 l 181 -93 l 181 -96 l 181 -97 l 181 -100 l 181 -101 l 181 -104 l 181 -106 l 181 -107 l 181 -110 l 181 -111 l 181 -114 l 181 -115 l 181 -117 l 181 -118 l 181 -121 l 181 -122 l 181 -124 l 181 -125 l 181 -126 l 181 -128 l 181 -131 l 181 -133 l 181 -136 l 181 -139 l 181 -140 l 181 -143 l 181 -144 l 181 -147 l 181 -149 l 181 -150 l 181 -151 l 181 -153 l 181 -154 l 181 -156 l 181 -156 l 181 -157 l 181 -160 l 181 -164 l 181 -167 l 181 -169 l 181 -172 l 181 -175 l 181 -178 l 179 -181 l 179 -183 l 179 -185 l 179 -186 l 179 -187 l 179 -189 l 179 -192 l 178 -193 l 178 -194 l 178 -196 l 178 -197 l 178 -199 l 178 -200 l 178 -201 l 176 -203 l 176 -206 l 176 -207 l 176 -208 l 175 -210 l 175 -211 l 175 -212 l 175 -214 l 174 -215 l 174 -218 q 172 -222 174 -221 l 172 -225 l 171 -226 l 171 -228 l 171 -229 l 171 -231 l 169 -231 l 169 -232 l 169 -235 l 168 -235 l 168 -236 l 168 -237 l 167 -239 l 167 -242 l 165 -243 l 165 -244 l 164 -246 l 164 -249 l 163 -251 l 161 -253 l 161 -256 l 160 -257 l 158 -260 l 157 -261 l 156 -264 l 156 -265 l 154 -268 l 153 -269 l 151 -272 l 150 -274 l 149 -275 l 149 -278 l 147 -279 l 146 -281 l 146 -282 l 144 -282 l 144 -283 l 143 -283 l 143 -285 l 143 -286 l 142 -286 l 142 -287 l 140 -289 l 139 -290 l 138 -292 l 138 -293 l 136 -293 l 136 -294 l 135 -294 l 135 -296 l 133 -297 l 132 -299 l 131 -300 l 131 -301 l 129 -301 l 129 -303 l 128 -304 l 126 -304 l 125 -306 l 125 -307 l 124 -308 l 122 -310 l 121 -310 l 121 -311 l 119 -311 l 118 -314 l 117 -315 q 113 -318 114 -317 l 110 -319 l 108 -322 l 107 -322 l 107 -324 l 106 -324 q 100 -328 103 -326 q 96 -331 99 -329 l 94 -332 l 92 -333 l 90 -335 l 88 -336 l 85 -337 l 83 -339 l 81 -340 l 79 -342 l 76 -343 l 74 -343 l 74 -344 l 72 -344 l 71 -346 l 67 -347 l 65 -349 l 64 -349 q 60 -350 64 -349 l 58 -351 l 57 -351 l 56 -351 l 56 -353 l 54 -353 q -18 -368 21 -365 q -26 -368 -21 -368 q -37 -357 -37 -368 q -26 -346 -37 -346 q -19 -346 -22 -346 l -18 -344 q 51 -301 26 -343 q 78 -179 78 -260 l 78 13 q 76 15 76 14 l 76 496 q 69 558 76 542 q 39 585 63 575 q 32 599 28 589 q 38 606 33 603 q 108 642 88 629 q 163 685 140 661 q 178 686 169 693 q 182 678 182 682 l 182 175 l 182 175 l 182 175 l 182 175 l 182 175 l 182 175 l 182 175 l 182 175 l 182 175 l 182 175 l 182 174 m 176 829 q 126 803 156 803 q 75 829 96 803 q 54 887 54 853 q 75 944 54 921 q 126 969 96 969 q 176 944 156 969 q 197 887 197 921 q 176 829 197 853 z "},"k":{"ha":639,"x_min":21,"x_max":633,"o":"m 621 22 q 632 11 632 22 q 621 0 632 0 l 464 0 q 453 11 453 0 q 464 22 453 22 l 481 22 l 274 383 l 175 290 l 175 22 l 201 22 q 213 11 213 22 q 201 0 213 0 l 46 0 q 35 11 35 0 q 46 22 35 22 l 71 22 l 71 775 q 64 836 71 819 q 32 863 57 853 q 26 876 22 867 q 32 883 28 881 q 103 919 81 907 q 156 963 135 940 q 172 964 164 971 q 175 956 175 960 l 175 321 l 268 410 q 268 411 268 410 l 276 418 l 329 468 l 329 469 l 531 663 l 510 663 q 497 674 497 663 q 510 685 497 685 l 582 685 q 593 674 593 685 q 582 663 593 663 l 563 663 l 351 458 l 600 22 l 621 22 z "},"l":{"ha":249,"x_min":22,"x_max":214,"o":"m 203 22 q 214 11 214 22 q 203 0 214 0 l 47 0 q 36 11 36 0 q 47 22 36 22 l 72 22 l 72 775 q 65 836 72 819 q 33 863 58 853 q 28 876 24 867 q 33 883 29 881 q 104 919 82 907 q 157 963 136 940 q 174 964 165 971 q 176 956 176 960 l 176 22 l 203 22 z "},"m":{"ha":1071,"x_min":28,"x_max":1042,"o":"m 1029 22 q 1040 11 1040 22 q 1029 0 1040 0 l 874 0 q 863 11 863 0 q 874 22 863 22 l 900 22 l 900 425 q 899 453 900 440 q 858 599 894 549 q 764 647 825 647 q 757 647 760 647 q 733 642 744 646 q 628 564 668 624 q 594 425 596 514 l 594 424 l 594 422 l 594 422 l 594 418 l 594 417 l 594 413 l 594 22 l 621 22 q 632 11 632 22 q 621 0 632 0 l 465 0 q 454 11 454 0 q 465 22 454 22 l 490 22 l 490 425 q 490 453 490 440 q 450 599 486 549 q 356 647 415 647 q 349 647 351 647 q 306 635 326 644 q 182 474 210 596 l 182 22 l 208 22 q 219 11 219 22 q 208 0 219 0 l 53 0 q 42 11 42 0 q 53 22 42 22 l 78 22 l 78 493 q 71 556 78 539 q 39 581 64 572 q 33 596 29 585 q 39 601 35 600 q 110 639 88 626 q 163 682 142 658 q 179 682 171 690 q 182 674 182 679 l 182 543 q 296 656 221 625 q 397 670 344 676 q 493 632 449 664 q 496 631 493 632 l 496 629 l 499 628 l 500 626 l 501 625 l 503 625 l 504 624 l 506 622 l 508 621 l 510 619 l 511 618 l 513 617 l 514 615 l 515 614 l 517 613 l 518 611 l 519 610 l 521 608 l 522 607 l 524 607 l 525 606 l 525 604 l 526 603 l 528 601 l 529 600 l 531 599 l 532 597 l 533 596 q 536 592 535 594 l 538 592 l 539 589 l 540 588 l 542 585 q 581 510 567 551 q 610 576 589 544 q 726 664 654 643 q 843 661 785 681 q 882 644 864 656 l 885 643 l 886 643 l 886 642 l 888 642 l 889 640 q 922 615 907 629 q 993 496 974 568 l 993 494 l 994 493 l 994 492 l 994 490 l 994 489 l 996 488 l 996 486 l 996 483 l 996 482 l 997 481 l 997 479 l 997 478 l 997 476 q 999 471 999 472 l 999 469 l 999 468 l 1000 467 l 1000 464 l 1000 463 l 1000 461 l 1001 458 l 1001 457 l 1001 454 l 1001 454 l 1001 451 l 1001 450 l 1001 449 l 1001 447 l 1001 447 l 1003 444 l 1003 444 l 1003 443 l 1003 442 l 1003 440 l 1003 440 l 1003 438 l 1003 438 l 1003 433 l 1003 431 l 1003 431 l 1003 428 l 1004 426 l 1004 425 l 1004 424 l 1004 424 l 1004 422 l 1004 421 l 1004 419 l 1004 418 l 1004 417 l 1004 413 l 1004 22 l 1029 22 z "},"n":{"ha":661,"x_min":28,"x_max":632,"o":"m 621 22 q 632 11 632 22 q 621 0 632 0 l 465 0 q 454 11 454 0 q 465 22 454 22 l 490 22 l 490 425 q 490 453 490 440 q 450 599 486 549 q 356 647 415 647 q 349 647 351 647 q 306 635 326 644 q 182 474 210 596 l 182 22 l 208 22 q 219 11 219 22 q 208 0 219 0 l 53 0 q 42 11 42 0 q 53 22 42 22 l 78 22 l 78 493 q 71 556 78 539 q 39 581 64 572 q 33 596 29 585 q 39 601 35 600 q 110 639 88 626 q 163 682 142 658 q 179 682 171 690 q 182 674 182 679 l 182 543 q 296 656 221 625 q 397 670 344 676 q 493 632 449 664 q 496 631 494 632 l 496 629 l 499 628 l 500 626 l 501 625 l 503 625 l 504 624 l 506 622 l 508 621 l 510 619 l 511 618 l 513 617 l 514 615 l 515 614 l 517 613 l 518 611 l 519 610 l 521 608 l 522 607 l 524 606 l 525 606 l 525 604 l 526 603 l 528 601 l 529 600 l 531 599 l 532 597 l 533 596 q 536 592 535 594 l 538 592 l 539 589 l 540 588 l 542 585 q 592 457 582 532 l 593 456 l 593 454 l 593 454 l 593 451 l 593 446 l 593 446 l 593 444 l 594 442 l 594 442 l 594 440 l 594 438 l 594 436 l 594 436 l 594 432 l 594 432 l 594 431 l 594 428 l 594 426 l 594 424 l 594 422 l 594 422 l 594 418 l 594 417 l 594 413 l 594 22 l 621 22 z "},"o":{"ha":729,"x_min":32,"x_max":697,"o":"m 603 586 q 696 344 696 490 q 603 101 696 197 q 533 47 572 69 q 451 13 493 24 q 364 1 408 1 q 277 13 319 1 q 196 47 235 24 q 125 101 157 69 q 32 344 32 197 q 125 586 32 490 q 238 663 174 638 q 369 689 303 689 q 603 586 506 686 m 525 115 q 593 344 593 208 q 525 572 593 479 q 368 664 461 661 q 203 573 271 667 q 135 344 135 479 q 203 115 135 208 q 365 25 268 25 q 525 115 461 26 z "},"p":{"ha":675,"x_min":26,"x_max":640,"o":"m 639 363 l 639 361 l 639 358 l 639 354 l 639 351 l 639 349 l 639 344 l 639 342 l 639 340 l 639 338 l 638 333 l 638 331 l 638 326 l 638 324 l 638 321 l 638 319 l 636 314 l 636 313 l 636 310 l 636 307 l 636 306 l 636 303 l 635 301 l 635 296 l 635 294 l 633 292 l 633 289 l 633 288 l 633 285 l 632 282 l 632 278 l 632 275 l 631 274 l 631 271 l 629 267 l 629 264 l 629 263 l 628 257 l 628 256 l 626 251 l 625 249 l 625 246 l 625 244 l 624 240 l 622 238 l 622 235 l 621 233 l 621 231 l 619 229 l 619 225 l 618 222 l 618 219 q 616 217 617 219 q 615 214 615 215 q 614 208 615 214 q 611 204 613 204 q 610 199 611 201 q 606 188 608 193 q 605 185 606 186 q 603 182 604 183 q 599 172 601 176 q 596 167 597 169 q 589 151 592 158 l 588 151 q 586 146 586 149 l 585 146 q 583 142 585 144 l 582 142 q 579 136 581 139 q 467 28 535 63 q 442 17 454 21 l 440 17 q 408 7 425 10 q 397 4 403 6 q 392 3 396 4 q 386 3 389 3 l 385 3 q 374 1 381 1 q 361 0 368 0 l 360 0 q 349 0 354 0 q 224 35 276 0 q 181 74 197 51 l 181 -349 l 207 -349 q 218 -360 218 -349 q 207 -371 218 -371 l 51 -371 q 40 -360 40 -371 q 51 -349 40 -349 l 76 -349 l 76 493 q 69 556 76 539 q 38 581 63 572 q 32 596 28 585 q 38 601 33 600 q 108 639 86 626 q 161 682 140 658 q 178 682 169 690 q 181 674 181 679 l 181 586 q 214 629 194 610 q 358 685 271 685 q 360 685 358 685 l 364 685 q 369 685 367 685 q 381 685 376 685 l 382 685 q 388 683 385 685 q 392 683 389 683 q 399 683 396 683 q 410 681 404 682 q 415 681 411 681 q 421 679 419 679 q 425 678 424 679 l 426 678 q 431 676 428 678 l 432 676 q 436 675 432 676 q 442 674 439 675 l 446 672 l 447 672 l 451 671 l 453 671 q 456 669 456 669 l 457 669 q 461 668 460 668 l 461 667 q 465 665 463 667 l 467 665 q 471 664 469 664 l 472 664 l 475 663 l 476 661 l 479 660 l 481 660 l 485 657 l 489 656 l 490 654 q 493 653 492 654 l 494 653 l 497 650 l 499 650 l 501 647 l 503 647 l 506 644 l 507 644 l 510 643 l 511 642 l 514 640 l 515 639 l 518 636 l 519 636 l 522 633 l 526 631 l 531 628 l 533 625 l 535 624 l 538 621 l 539 621 l 540 618 l 542 617 l 544 615 l 544 614 l 547 611 l 549 611 q 551 608 550 608 l 553 607 l 554 604 l 556 603 l 558 601 l 558 600 l 561 597 l 563 596 l 564 593 l 565 592 l 567 589 l 568 589 l 571 586 l 571 585 l 574 582 l 574 581 l 576 578 l 576 576 l 579 574 l 579 572 l 582 569 l 585 565 l 585 564 l 588 561 l 589 557 l 590 556 q 594 549 593 551 l 594 547 l 597 544 l 599 540 l 599 539 l 601 535 l 601 533 l 604 531 l 606 526 q 610 517 608 521 q 614 507 611 511 l 614 506 l 615 503 l 615 501 l 617 499 l 617 497 l 618 494 l 618 493 l 619 490 l 619 489 l 621 486 l 622 482 l 622 481 l 624 478 l 624 475 l 625 474 l 625 471 l 625 469 l 626 467 l 626 465 l 628 463 l 628 461 l 628 458 l 629 454 l 629 451 l 631 450 l 631 447 l 631 444 l 632 443 l 632 440 l 632 439 l 633 436 l 633 433 l 633 429 l 635 428 l 635 425 l 635 421 l 635 418 l 636 415 l 636 414 l 636 410 l 636 407 l 638 404 l 638 403 l 638 397 l 638 396 l 638 393 l 638 390 l 638 389 l 639 386 l 639 383 l 639 382 l 639 376 l 639 375 l 639 369 l 639 368 l 639 363 m 515 226 q 529 374 531 297 q 510 515 528 451 q 451 623 489 583 q 358 663 414 663 l 358 663 q 229 613 281 661 q 181 493 182 567 l 181 144 l 181 142 q 235 53 183 86 q 349 22 283 22 q 360 22 354 22 l 360 22 q 456 83 415 26 q 515 226 496 139 z "},"q":{"ha":660,"x_min":35,"x_max":635,"o":"m 622 -349 q 634 -360 633 -349 q 622 -371 635 -371 l 467 -371 q 456 -360 456 -371 q 467 -349 456 -349 l 493 -349 l 493 99 q 460 57 479 75 q 394 15 432 29 q 315 0 356 0 q 314 0 315 0 l 310 0 q 304 0 307 0 q 293 0 299 0 l 292 0 q 286 1 289 0 q 281 1 285 1 q 275 3 278 1 q 264 4 269 3 q 258 4 261 4 q 253 6 257 6 q 249 7 250 6 l 247 7 q 243 8 246 7 l 242 8 q 238 10 240 8 q 233 11 236 10 l 232 11 l 228 13 l 226 13 l 222 14 l 219 15 l 218 15 l 217 15 q 213 17 214 17 l 213 18 l 210 18 l 208 19 l 207 19 q 203 21 204 21 l 199 24 l 197 24 l 194 25 l 193 26 l 189 28 l 185 29 l 183 31 q 181 32 182 31 l 179 32 l 176 35 l 175 35 l 172 38 l 171 38 l 168 40 l 167 40 l 164 42 l 163 43 l 160 46 l 158 46 l 156 49 l 154 49 l 151 51 l 147 54 l 144 57 l 143 58 l 140 60 l 139 61 l 136 64 l 135 65 l 133 67 l 132 68 l 129 71 l 126 74 l 125 74 q 122 76 124 76 l 121 78 l 119 81 l 118 82 l 117 85 l 115 86 l 113 88 l 111 89 l 110 92 l 108 93 l 107 96 l 106 96 l 104 100 l 103 101 l 100 103 l 100 104 l 97 107 l 97 108 l 94 111 l 94 113 l 92 115 l 89 119 l 89 121 l 86 124 l 85 128 l 83 129 q 79 136 82 133 l 79 138 l 76 140 l 76 142 l 75 146 l 72 150 l 72 151 l 71 154 l 68 158 l 68 160 q 64 168 67 163 q 60 178 63 172 l 60 179 l 58 182 l 58 183 l 57 186 l 57 188 l 56 190 l 56 192 l 54 194 l 54 196 l 53 199 l 51 203 l 51 206 l 50 207 l 50 210 l 50 211 l 49 214 l 49 215 l 47 218 l 47 219 l 47 222 l 46 225 l 46 226 l 44 231 l 44 233 l 43 236 l 43 238 l 43 240 l 42 242 l 42 244 l 42 247 l 42 249 l 40 251 l 40 256 l 40 258 l 39 263 l 39 264 l 39 267 l 38 269 l 38 271 l 38 276 l 38 278 l 36 281 l 36 283 l 36 288 l 36 289 l 36 292 l 36 294 l 36 296 l 35 299 l 35 301 l 35 303 l 35 308 l 35 310 l 35 313 l 35 315 l 35 317 l 35 319 l 35 322 l 35 326 l 35 331 l 35 333 l 35 336 l 35 340 l 35 343 l 35 344 l 35 347 l 36 351 l 36 354 l 36 358 l 36 361 l 36 364 l 36 365 l 38 371 l 38 372 l 38 375 l 38 378 l 38 379 l 38 382 l 39 386 l 39 389 l 39 390 l 40 393 l 40 396 l 40 397 l 40 400 l 42 403 l 42 407 l 42 410 l 43 411 l 43 414 l 44 418 l 44 421 l 44 422 l 46 428 l 46 429 l 47 433 l 49 436 l 49 439 l 49 440 l 50 444 l 51 447 l 53 451 l 53 454 l 54 456 l 54 461 l 56 463 l 56 465 q 58 471 57 465 q 60 476 60 474 q 63 482 61 479 q 63 484 63 482 q 64 486 64 486 q 68 497 65 492 q 71 503 69 500 q 75 513 72 508 q 78 518 76 515 q 86 533 82 526 q 89 539 88 536 q 92 543 89 540 q 94 549 92 546 q 207 657 139 622 q 232 668 219 664 l 233 668 q 265 678 249 675 q 276 681 271 679 q 282 682 278 681 q 288 682 283 682 l 289 682 q 300 684 294 683 q 313 685 306 685 l 314 685 q 325 685 319 685 q 450 650 397 685 q 493 611 476 633 l 493 614 q 500 625 493 622 q 542 650 525 639 q 578 682 563 665 q 593 682 585 690 q 597 674 597 679 l 597 -349 l 622 -349 m 493 194 l 493 538 l 493 543 q 438 632 490 599 q 325 663 390 663 q 314 663 318 663 l 314 663 q 245 631 276 660 q 192 559 214 603 q 158 458 171 515 q 144 311 143 388 q 164 169 146 233 q 222 63 183 103 q 314 22 260 22 q 315 22 314 22 q 444 72 393 24 q 493 194 493 119 z "},"r":{"ha":647,"x_min":28,"x_max":638,"o":"m 633 535 q 624 489 636 507 q 593 468 613 471 q 589 467 590 468 q 582 467 585 467 q 553 483 564 469 l 553 485 q 539 525 542 499 q 539 556 538 539 q 518 628 543 600 q 442 661 493 656 q 318 639 375 667 q 208 522 244 603 q 182 432 190 482 l 182 22 l 208 22 q 219 11 219 22 q 208 0 219 0 l 53 0 q 42 11 42 0 q 53 22 42 22 l 78 22 l 78 493 q 71 556 78 539 q 39 581 64 572 q 33 596 29 585 q 39 601 35 600 q 110 639 88 626 q 163 682 142 658 q 179 682 171 690 q 182 674 182 679 l 182 519 q 188 532 185 526 q 308 658 228 619 q 461 682 379 693 q 529 661 497 676 q 567 640 550 653 q 632 546 619 603 l 632 544 q 633 535 633 540 z "},"s":{"ha":581,"x_min":33,"x_max":547,"o":"m 326 379 q 394 356 371 365 q 452 329 417 347 q 504 292 488 311 q 534 244 521 274 q 544 179 547 215 q 458 47 542 100 q 265 0 382 0 q 107 47 172 -1 q 35 172 43 94 q 44 185 33 183 q 57 175 56 186 q 121 65 65 106 q 265 22 179 21 q 388 65 339 24 q 439 168 439 108 q 389 254 440 218 q 267 310 356 278 q 233 321 256 314 q 170 344 192 336 q 117 370 149 353 q 70 406 85 388 q 46 453 56 424 q 40 519 36 482 q 122 640 49 593 q 293 685 193 686 q 294 685 293 685 q 442 649 374 685 q 528 563 508 615 q 529 553 529 558 q 528 513 533 531 q 500 483 519 490 q 496 483 499 483 q 486 482 492 482 q 467 492 475 483 q 456 513 458 499 q 456 531 454 521 q 418 625 460 593 q 294 663 378 657 l 293 663 q 182 622 226 660 q 133 531 136 585 q 171 447 132 478 q 275 399 197 428 q 326 379 292 392 z "},"t":{"ha":332,"x_min":3,"x_max":324,"o":"m 311 24 q 323 13 324 24 q 311 1 322 1 q 304 1 307 1 l 303 1 l 301 1 q 221 21 258 4 l 218 22 q 214 24 217 24 l 214 25 l 211 25 l 210 26 l 208 26 l 208 28 l 207 28 l 206 28 l 204 29 l 203 31 l 201 31 l 200 32 l 197 33 l 196 35 l 194 35 l 193 36 l 192 38 l 190 38 l 189 39 l 186 40 l 185 42 l 183 43 q 175 50 179 46 l 174 51 l 172 51 l 171 53 l 169 54 l 167 56 l 165 57 l 165 58 l 164 60 l 163 60 l 161 63 l 160 63 l 160 64 l 158 64 l 158 65 l 157 65 l 157 67 l 156 67 l 156 68 l 154 69 l 153 71 l 151 72 l 151 74 l 150 74 l 150 75 l 149 75 l 147 76 l 146 79 l 146 81 l 144 81 l 144 82 l 143 83 l 142 85 l 140 86 l 140 88 l 139 89 l 139 90 l 138 90 l 138 92 l 136 93 l 135 96 l 133 97 l 132 99 l 132 100 l 131 101 l 131 103 l 131 104 l 129 106 l 128 108 l 126 110 l 125 113 l 125 114 l 124 117 l 122 118 l 122 121 l 121 124 l 119 125 l 119 128 l 118 131 l 117 132 l 117 133 l 117 135 l 115 138 l 115 139 l 115 140 l 114 142 l 114 143 l 114 144 l 113 147 q 111 151 113 149 l 111 154 l 111 156 l 110 157 l 110 158 l 110 160 l 110 161 l 110 163 l 108 164 l 108 165 l 108 167 l 108 168 l 108 169 l 107 171 l 107 172 l 107 174 l 107 175 l 107 176 l 107 178 l 106 181 l 106 182 l 106 183 l 106 185 l 106 186 l 106 189 l 106 192 l 106 194 l 104 197 l 104 200 l 104 203 l 104 206 l 104 208 l 104 210 l 104 213 l 104 218 l 104 219 l 104 224 l 104 225 l 104 226 l 104 228 l 104 229 l 104 231 l 104 232 l 104 235 l 104 236 l 104 239 l 104 240 l 104 243 l 104 244 l 104 247 l 104 250 l 104 251 l 104 254 l 104 257 l 104 258 l 104 260 l 104 263 l 104 265 l 104 268 l 104 269 l 104 271 l 104 274 l 104 276 l 104 278 l 104 281 l 104 283 l 104 288 l 104 290 l 104 292 l 104 293 l 104 301 l 104 304 l 104 307 l 104 308 l 104 313 l 104 315 l 104 318 l 104 319 l 104 328 l 104 329 l 104 332 l 104 335 l 104 336 l 104 340 l 104 342 l 104 344 l 104 347 l 104 358 l 104 360 l 104 364 l 104 367 l 104 368 l 104 372 l 104 374 l 104 378 l 104 378 l 104 403 l 104 404 l 104 410 l 104 411 l 104 418 l 104 421 l 104 435 l 104 438 l 104 544 l 104 544 l 104 544 l 104 544 l 104 544 l 104 664 l 17 664 q 6 672 8 664 q 14 686 3 683 q 117 751 74 704 q 186 876 161 799 q 197 885 189 885 q 208 872 208 885 l 208 686 l 288 686 q 300 675 300 686 q 288 664 300 664 l 208 664 l 208 378 q 208 376 208 376 l 208 189 q 238 57 208 97 q 301 24 260 26 l 304 24 l 306 24 q 311 24 308 24 z "},"u":{"ha":696,"x_min":21,"x_max":661,"o":"m 650 24 q 661 13 661 24 q 650 1 661 1 l 531 1 q 519 13 519 1 l 519 140 q 493 96 508 117 q 360 11 443 29 q 357 11 358 11 l 357 11 l 356 11 l 356 11 l 354 11 l 354 11 l 353 11 l 353 11 l 351 10 l 350 10 l 350 10 l 349 10 l 349 10 l 347 10 l 347 10 l 346 10 l 346 10 l 344 10 l 344 10 l 343 10 l 343 8 l 342 8 l 342 8 l 340 8 l 340 8 l 339 8 l 339 8 l 338 8 l 338 8 l 336 8 l 336 8 l 335 8 l 335 8 l 333 8 l 333 8 l 332 8 l 332 8 l 331 7 l 329 7 l 329 7 l 328 7 l 328 7 l 326 7 l 326 7 l 325 7 l 325 7 l 324 7 l 324 7 l 322 7 l 322 7 l 321 7 l 321 7 l 319 7 l 319 7 l 318 7 l 318 7 l 317 7 l 317 7 l 315 7 l 315 7 l 314 7 l 314 7 l 311 7 l 308 7 l 306 7 l 303 7 l 301 7 l 299 7 l 296 7 l 294 7 l 292 7 l 289 8 l 286 8 l 285 8 l 282 8 l 279 8 l 278 10 l 275 10 l 272 10 l 269 10 l 268 11 l 265 11 l 263 11 l 261 13 l 258 13 l 256 13 l 254 14 l 251 14 l 249 15 l 247 15 l 244 17 l 242 17 l 240 18 l 238 18 l 235 19 l 233 19 l 231 21 l 229 22 l 226 22 l 224 24 l 222 24 l 219 25 l 217 26 l 215 26 l 213 28 l 211 29 l 208 31 l 207 31 l 204 32 l 201 33 l 200 35 l 197 36 l 196 38 l 193 39 l 192 39 l 189 40 l 188 42 l 185 43 l 183 44 l 181 46 l 179 47 l 176 49 l 175 50 l 172 51 l 171 53 l 168 56 l 167 57 q 78 208 99 111 q 71 283 71 244 l 71 493 q 64 556 71 539 q 32 581 57 572 q 26 596 22 585 q 32 601 28 600 q 103 639 81 626 q 156 682 135 658 q 172 682 164 690 q 175 674 175 679 l 175 457 l 175 269 q 178 221 175 243 q 226 78 185 124 q 335 33 265 33 q 354 33 344 33 q 475 110 431 50 q 519 247 518 167 l 519 494 q 513 557 519 540 q 481 582 506 574 q 474 597 471 586 q 479 603 476 601 q 551 640 529 626 q 604 683 583 660 q 621 683 613 692 q 624 675 624 681 l 624 24 l 650 24 z "},"v":{"ha":619,"x_min":0,"x_max":618,"o":"m 607 685 q 618 674 618 685 q 607 663 618 663 l 582 663 l 371 119 q 369 118 369 118 l 343 49 l 328 8 l 326 8 l 326 7 l 326 7 l 326 6 l 325 6 l 325 4 l 324 4 l 324 4 l 324 3 l 322 3 l 322 3 l 321 3 l 321 1 l 319 1 l 319 1 l 318 1 l 317 1 l 315 1 l 315 1 l 314 1 l 314 1 l 313 1 l 313 3 l 313 3 l 313 3 l 311 3 l 311 3 l 311 3 q 310 3 311 3 l 310 4 l 310 4 l 310 4 l 310 4 l 310 4 q 307 8 307 6 l 33 663 l 13 663 q 1 674 1 663 q 13 685 1 685 l 157 685 q 168 674 168 685 q 157 663 168 663 l 146 663 l 360 153 l 558 663 l 533 663 q 522 674 522 663 q 533 685 522 685 l 607 685 z "},"w":{"ha":929,"x_min":1,"x_max":928,"o":"m 915 685 q 928 674 928 685 q 915 663 928 663 l 892 663 l 679 119 q 679 118 679 118 l 653 49 l 636 8 l 636 7 l 636 7 l 635 6 l 635 6 l 635 4 l 633 4 l 633 4 l 633 3 l 632 3 l 632 3 l 631 3 l 631 1 l 629 1 l 628 1 l 626 1 l 625 1 l 625 1 l 624 1 l 624 1 l 622 1 l 622 3 l 622 3 l 621 3 l 621 3 l 621 3 q 619 3 619 3 l 619 4 l 619 4 l 619 4 l 618 4 l 618 4 l 618 4 q 615 8 617 6 l 467 365 l 371 119 q 369 118 369 118 l 328 8 l 326 8 l 326 7 l 326 7 l 326 6 l 325 6 l 325 4 l 324 4 l 324 4 l 322 3 l 321 3 l 321 3 l 321 1 l 319 1 l 318 1 l 317 1 l 315 1 l 315 1 l 314 1 l 314 1 l 313 1 l 313 3 l 313 3 l 313 3 l 311 3 l 311 3 l 311 3 q 310 3 311 3 l 310 4 l 310 4 l 310 4 l 310 4 l 310 4 q 307 8 307 6 l 33 663 l 13 663 q 1 674 1 663 q 13 685 1 685 l 157 685 q 168 674 168 685 q 157 663 168 663 l 146 663 l 360 153 l 454 396 l 343 663 l 322 663 q 311 674 311 663 q 322 685 311 685 l 467 685 q 478 674 478 685 q 467 663 478 663 l 456 663 l 668 153 l 868 663 l 843 663 q 832 674 832 663 q 843 685 832 685 l 915 685 z "},"x":{"ha":633,"x_min":6,"x_max":628,"o":"m 615 24 q 626 13 626 24 q 615 1 626 1 l 449 1 q 438 13 438 1 q 449 24 438 24 l 467 24 l 289 290 l 83 24 l 106 24 q 117 13 117 24 q 106 1 117 1 l 33 1 q 22 13 22 1 q 33 24 22 24 l 56 24 l 275 310 l 40 663 l 17 663 q 6 674 6 663 q 17 685 6 685 l 183 685 q 194 674 194 685 q 183 663 194 663 l 165 663 l 343 397 l 547 663 l 526 663 q 515 674 515 663 q 526 685 515 685 l 599 685 q 610 674 610 685 q 599 663 610 663 l 576 663 l 356 376 l 592 24 l 615 24 z "},"y":{"ha":619,"x_min":-36,"x_max":618,"o":"m 606 685 q 617 674 617 685 q 606 663 617 663 l 582 663 l 369 119 q 369 118 369 118 l 343 49 l 326 8 l 326 8 l 292 -83 q 169 -224 250 -190 q 89 -232 129 -239 q 46 -218 67 -229 q 18 -200 31 -211 q -33 -110 -24 -165 l -33 -108 l -35 -108 l -35 -106 l -35 -104 l -35 -103 l -35 -101 l -35 -100 l -35 -99 l -35 -97 l -36 -96 l -36 -96 l -36 -93 l -36 -93 l -36 -90 l -36 -89 l -36 -87 l -36 -86 l -36 -85 l -36 -83 l -36 -82 q -36 -81 -36 -82 l -36 -81 q -35 -74 -36 -76 q -17 -32 -31 -47 q 21 -17 -1 -15 l 24 -17 q 36 -22 31 -18 q 51 -37 46 -28 q 54 -62 56 -49 l 54 -64 q 44 -90 51 -76 q 25 -150 24 -124 q 57 -199 26 -179 q 92 -210 74 -207 q 161 -203 126 -215 q 269 -75 232 -174 l 304 13 l 32 663 l 13 663 q 1 674 1 663 q 13 685 1 685 l 157 685 q 168 674 168 685 q 157 663 168 663 l 146 663 l 358 153 l 557 663 l 533 663 q 522 674 522 663 q 533 685 522 685 l 606 685 z "},"z":{"ha":618,"x_min":29,"x_max":589,"o":"m 575 208 q 586 197 586 208 l 586 13 q 575 1 586 1 l 394 1 q 393 1 393 1 l 139 1 l 40 1 q 29 13 29 1 q 32 19 29 17 l 458 663 q 221 663 338 663 q 106 618 147 660 q 54 489 63 574 q 43 478 54 478 q 32 489 32 478 l 32 674 q 43 685 32 685 l 224 685 q 225 685 225 685 l 544 685 l 578 685 q 589 674 589 685 q 586 667 589 669 l 160 24 q 266 24 188 24 q 397 24 344 24 q 513 68 471 26 q 564 197 554 113 q 575 208 564 208 z "},"{":{"ha":472,"x_min":43,"x_max":421,"o":"m 115 572 q 192 858 126 757 q 419 976 269 976 l 419 953 q 268 849 313 953 q 229 574 233 764 q 196 501 228 529 q 172 486 185 492 q 196 471 185 481 q 229 399 228 443 q 268 124 233 208 q 419 19 313 19 l 419 -4 q 192 114 269 -4 q 115 400 126 215 q 96 456 114 435 q 54 475 81 474 q 50 476 51 475 l 50 476 q 49 476 49 476 l 49 476 l 49 476 l 47 476 l 47 476 l 47 478 l 47 478 l 47 478 l 47 478 l 47 478 l 46 478 l 46 479 l 46 479 l 46 479 l 44 479 l 44 481 l 44 481 l 44 481 l 44 481 l 44 481 l 44 482 l 44 482 l 44 482 l 44 482 l 43 482 l 43 482 l 43 483 l 43 483 l 43 483 l 43 483 l 43 485 l 43 485 l 43 485 l 43 485 l 43 485 l 43 486 l 43 488 l 43 488 l 43 488 l 43 488 l 43 488 l 43 489 l 43 489 l 43 489 l 43 490 l 43 490 l 44 490 l 44 490 l 44 490 l 44 490 l 44 492 l 44 492 l 44 492 l 44 492 l 44 492 l 44 492 l 44 493 l 46 493 l 46 493 l 46 493 l 46 494 l 46 494 l 47 494 l 47 494 l 47 494 l 47 494 l 47 494 q 49 496 47 496 q 50 497 50 496 l 51 497 l 51 497 l 51 497 l 51 497 l 53 497 l 53 497 l 53 497 l 53 497 l 54 497 l 54 497 q 96 517 81 499 q 115 572 114 538 z "},"|":{"ha":171,"x_min":63,"x_max":108,"o":"m 63 11 l 63 961 q 69 976 63 969 q 85 983 76 983 q 101 976 94 983 q 108 961 108 969 l 108 11 q 101 -5 108 1 q 85 -11 94 -11 q 69 -5 76 -11 q 63 11 63 1 z "},"}":{"ha":472,"x_min":51,"x_max":429,"o":"m 51 976 q 279 858 203 976 q 356 572 344 757 q 375 517 358 538 q 417 497 390 499 q 422 496 419 497 l 422 496 q 424 496 422 496 l 424 496 l 424 496 l 424 496 l 424 494 l 424 494 l 425 494 l 425 494 l 425 494 l 425 494 l 425 493 l 425 493 l 426 493 l 426 493 l 426 493 l 426 492 l 426 492 l 426 492 l 428 492 l 428 490 l 428 490 l 428 490 l 428 490 l 428 490 l 428 490 l 428 489 l 428 489 l 428 489 l 428 488 l 428 488 l 428 488 l 428 488 l 428 486 l 428 486 l 428 485 l 428 485 l 428 485 l 428 485 l 428 485 l 428 483 l 428 483 l 428 483 l 428 483 l 428 482 l 428 482 l 428 482 l 428 482 l 428 482 l 428 481 l 428 481 l 426 481 l 426 481 l 426 481 l 426 481 l 426 479 l 426 479 l 426 479 l 425 479 l 425 479 l 425 478 l 425 478 l 425 478 l 425 478 l 425 478 l 424 478 q 423 476 424 476 q 421 475 422 476 l 421 475 l 419 475 l 419 475 l 419 475 l 419 475 l 418 475 l 418 475 l 418 475 l 418 475 l 417 475 q 375 456 390 474 q 356 400 358 435 q 279 114 344 215 q 51 -4 203 -4 l 51 19 q 203 124 160 19 q 242 399 238 208 q 276 471 243 443 q 299 486 286 481 q 276 501 286 492 q 242 574 243 529 q 203 849 238 764 q 51 953 160 953 l 51 976 z "},"~":{"ha":479,"x_min":56,"x_max":424,"o":"m 115 519 q 93 490 104 507 q 70 485 85 476 q 65 508 56 494 q 92 542 78 528 q 167 581 125 578 q 233 561 200 582 q 257 543 246 554 q 282 517 265 535 q 306 492 297 500 q 329 475 315 483 q 358 470 343 467 q 389 489 372 474 q 413 486 403 499 q 411 463 424 474 q 363 435 385 442 q 322 440 342 429 q 290 460 301 450 q 257 494 278 471 q 233 519 242 513 q 215 533 225 528 q 168 547 192 549 q 115 519 140 544 z "},"":{"ha":444,"x_min":0,"x_max":0,"o":""},"":{"ha":253,"x_min":54,"x_max":199,"o":"m 178 504 q 126 479 156 479 q 75 504 96 479 q 54 563 54 529 q 75 621 54 597 q 126 646 96 646 q 178 621 156 646 q 197 563 197 597 q 178 504 197 529 m 128 -319 q 126 -319 126 -319 q 125 -319 126 -319 q 94 -308 107 -318 q 81 -282 81 -297 q 88 -127 85 -269 q 94 192 92 15 q 97 381 97 369 q 114 415 99 406 q 126 419 119 419 q 138 415 132 419 q 154 381 153 406 q 157 192 154 371 q 163 -128 160 14 q 171 -282 167 -269 q 158 -308 171 -297 q 128 -319 146 -318 z "},"":{"ha":713,"x_min":51,"x_max":664,"o":"m 564 778 q 661 631 643 724 q 648 613 663 615 q 631 625 633 610 q 547 753 615 706 q 378 800 478 800 q 376 800 376 800 q 375 800 375 800 l 372 800 q 260 749 307 796 q 190 628 214 701 q 169 481 169 558 q 193 335 169 403 q 265 216 217 261 q 381 168 313 171 q 540 218 472 169 q 618 339 606 267 q 635 351 621 354 q 647 333 650 349 q 558 194 633 249 q 392 138 488 143 l 392 11 q 387 1 392 6 q 376 -4 382 -4 q 365 1 369 -4 q 361 11 361 6 l 361 138 l 361 138 l 360 138 l 358 138 l 358 138 l 358 138 l 357 138 l 357 138 l 357 138 l 356 138 l 356 138 l 354 138 l 354 138 l 353 138 l 353 138 l 353 138 l 351 138 l 351 138 l 350 138 l 350 138 l 349 138 l 349 138 l 349 138 l 347 138 l 347 139 l 346 139 l 346 139 l 346 139 l 344 139 l 344 139 l 343 139 l 343 139 l 342 139 l 342 139 l 336 139 l 332 139 l 328 140 l 324 140 l 319 142 l 315 142 l 311 143 l 307 143 l 303 144 l 299 144 l 294 146 l 290 147 l 286 147 l 282 149 l 278 150 l 275 151 l 271 153 l 267 153 l 263 154 l 260 156 l 256 157 l 251 158 l 249 160 l 244 161 l 240 164 l 238 165 l 233 167 l 231 168 l 226 169 l 224 171 l 219 174 l 217 175 l 214 176 l 210 179 l 207 181 l 203 183 l 200 185 l 197 186 l 194 189 l 190 192 l 188 193 l 185 196 l 182 197 l 179 200 l 176 203 l 174 204 l 169 207 l 167 210 l 164 211 l 161 214 l 160 217 l 157 219 l 154 222 l 151 224 l 149 226 l 146 229 l 143 232 l 140 235 l 139 238 l 136 240 l 133 243 l 132 246 l 129 249 l 126 251 l 125 254 l 122 257 l 121 261 l 118 264 l 117 267 l 114 269 l 113 272 l 110 275 l 108 279 l 106 282 l 104 285 l 103 288 l 100 292 l 99 294 l 97 297 l 96 301 l 93 304 l 92 307 l 90 311 l 89 314 l 88 317 l 86 321 l 85 324 l 83 328 l 82 331 l 81 333 l 79 338 l 78 340 l 76 344 l 75 347 l 74 351 l 72 354 l 71 358 l 71 361 l 69 365 l 68 369 l 67 372 l 67 376 l 65 379 l 64 383 l 64 386 l 63 390 l 61 394 l 61 397 l 60 401 l 60 404 l 58 408 l 58 413 l 58 415 l 57 419 l 57 424 l 56 426 l 56 431 l 56 435 l 54 438 l 54 442 l 54 446 l 54 449 l 54 453 l 53 457 l 53 460 l 53 464 l 53 468 l 53 471 q 54 514 53 493 q 150 740 67 656 l 154 743 l 157 746 l 160 749 l 163 751 l 165 754 l 168 757 l 171 758 l 174 761 l 175 761 l 178 764 l 181 767 l 183 768 l 186 771 l 188 771 l 190 774 l 193 775 l 196 778 l 200 779 l 203 782 l 206 783 l 210 786 l 213 788 l 215 789 q 222 793 218 790 l 224 793 l 226 794 l 229 797 l 231 797 l 233 799 l 236 800 l 240 801 l 240 801 l 243 803 l 247 804 l 250 806 l 254 807 l 257 808 l 258 808 l 261 810 l 263 811 l 265 811 l 268 813 l 272 814 l 274 814 l 275 815 l 276 815 l 279 815 l 279 817 l 282 817 l 283 817 l 286 818 l 290 819 l 292 819 l 294 819 l 294 821 l 297 821 l 301 822 l 304 822 l 306 822 l 308 824 l 311 824 l 313 824 l 314 825 l 317 825 l 319 825 l 322 826 l 324 826 l 326 826 l 329 826 l 331 826 l 332 828 l 335 828 l 338 828 l 340 828 l 342 828 l 343 828 l 346 829 l 349 829 l 350 829 l 353 829 l 356 829 l 357 829 l 360 829 l 361 829 l 361 961 q 365 972 361 967 q 376 976 369 976 q 384 974 381 976 q 390 969 388 972 q 392 961 392 965 l 392 831 q 564 778 493 826 z "},"":{"ha":756,"x_min":58,"x_max":707,"o":"m 183 7 l 74 7 q 63 18 63 7 q 68 28 63 25 q 90 47 81 36 l 92 47 l 94 50 l 94 51 l 96 51 l 96 53 l 97 54 l 99 54 l 99 56 l 100 56 l 100 57 l 101 58 l 103 60 l 104 61 l 104 63 l 106 63 l 106 64 l 107 64 l 107 65 l 108 65 l 108 67 l 110 68 l 110 69 l 111 69 l 111 71 l 113 72 l 113 74 l 114 74 l 114 75 l 115 76 l 115 78 l 117 79 l 118 79 l 118 81 l 118 82 l 119 82 l 119 83 l 119 83 l 121 85 l 121 86 l 122 88 l 122 89 l 124 89 l 124 90 l 124 92 l 125 92 l 125 93 l 125 94 l 126 94 l 126 96 l 126 97 l 128 99 l 128 100 l 129 101 l 129 103 l 131 104 l 131 106 l 131 107 q 140 135 136 121 l 140 136 l 140 138 q 142 142 140 139 l 142 143 q 143 147 142 146 l 143 149 l 143 153 l 143 154 l 144 157 l 144 158 l 144 160 l 144 161 l 144 163 l 144 164 l 144 165 l 144 167 l 144 168 l 146 169 l 146 171 l 146 172 l 146 174 l 146 175 l 146 176 l 146 178 l 146 179 l 146 181 l 146 182 l 146 183 l 146 185 l 146 186 l 146 188 l 146 189 l 146 192 l 146 193 l 146 194 l 146 196 l 146 197 l 146 200 l 146 201 l 146 203 l 146 204 l 146 207 l 146 208 l 146 210 l 146 213 l 146 215 l 146 217 l 146 219 l 144 222 l 144 224 l 144 226 l 144 229 l 144 232 l 144 233 l 143 236 l 143 239 l 143 242 l 143 244 l 142 246 l 142 249 l 142 251 l 142 254 l 140 257 l 140 260 l 140 263 l 139 265 l 139 267 l 139 269 l 139 272 l 138 275 l 138 278 l 136 283 l 136 286 l 135 289 l 135 292 l 135 294 l 133 297 l 133 300 l 132 303 l 132 307 l 132 310 l 131 315 l 129 318 l 129 321 l 128 326 l 126 329 l 126 333 l 125 336 l 125 339 l 125 342 l 124 344 l 124 347 l 122 354 l 121 360 l 119 364 l 119 367 l 118 369 l 118 372 l 117 379 l 115 385 l 114 389 l 113 393 l 113 397 l 111 400 l 110 404 l 108 413 l 108 415 l 107 418 l 74 418 q 63 423 67 418 q 58 434 58 428 q 63 444 58 440 q 74 449 67 449 l 100 449 l 100 451 l 99 456 l 99 458 l 97 463 l 97 467 l 94 475 l 94 479 l 93 483 l 93 486 l 92 494 l 90 503 l 89 507 l 88 514 l 88 518 l 86 522 l 86 526 l 85 535 l 83 539 l 83 543 l 82 547 l 82 550 l 81 554 l 81 558 l 81 563 l 79 567 l 79 571 l 78 575 l 78 579 l 78 582 l 76 586 l 76 590 l 76 594 l 75 599 l 75 603 l 75 607 l 75 610 l 74 614 l 74 618 l 74 622 l 74 626 l 74 631 l 74 633 l 72 638 l 72 639 l 72 642 l 72 643 l 72 643 l 72 644 l 72 644 l 72 646 l 72 647 l 72 650 l 72 651 l 72 654 l 72 656 q 103 803 72 738 q 107 810 106 807 l 108 813 l 108 814 l 110 817 l 111 819 l 113 821 l 114 822 l 114 824 l 115 826 q 119 832 118 831 l 121 835 l 121 836 l 122 839 l 124 839 l 125 842 l 126 844 l 129 847 l 131 850 l 133 853 l 135 856 l 136 856 l 138 858 l 139 861 l 140 863 l 142 864 l 143 867 l 144 868 l 146 868 l 147 871 l 149 871 l 150 872 l 151 874 l 151 875 l 153 876 l 154 878 l 156 879 l 157 881 l 158 882 q 168 892 164 888 q 175 899 172 894 l 176 899 q 186 907 182 903 l 188 907 q 200 917 194 913 l 201 917 l 203 918 l 204 918 l 206 919 l 207 921 q 211 924 208 922 l 213 924 l 214 925 l 215 926 l 219 929 l 221 929 l 224 931 l 225 931 l 225 932 l 226 932 l 228 932 l 229 933 l 232 935 l 233 935 l 233 936 l 235 936 q 240 939 238 938 l 242 939 l 243 940 l 244 940 l 247 942 l 249 943 l 251 943 l 253 944 q 263 947 257 946 l 263 949 l 264 949 l 265 949 l 267 950 l 269 950 q 274 951 272 951 l 276 953 q 285 956 281 954 l 288 956 l 289 956 l 292 957 l 294 957 l 296 958 l 300 958 l 301 958 l 303 960 l 306 960 l 308 960 l 310 961 l 311 961 l 313 961 l 317 963 l 319 963 l 322 963 l 324 963 l 326 964 l 328 964 l 329 964 l 331 964 l 333 964 q 339 964 338 964 l 340 965 l 346 965 l 347 965 l 351 965 q 360 965 356 965 l 361 965 l 364 965 q 439 956 403 965 q 619 811 561 925 q 614 797 624 801 q 599 801 604 792 q 433 935 546 906 q 364 943 399 943 q 231 875 274 933 q 183 736 199 831 q 181 685 181 713 q 183 636 181 658 q 192 583 185 614 q 203 533 199 551 q 218 478 208 514 q 226 449 224 461 l 575 449 q 586 444 582 449 q 590 434 590 440 q 586 423 590 428 q 575 418 582 418 l 235 418 q 263 193 268 288 q 243 85 258 128 q 213 29 231 51 q 317 29 267 29 q 399 29 367 29 q 457 29 432 29 q 494 29 482 29 q 507 29 507 29 l 518 29 q 633 74 592 32 q 685 203 675 118 q 696 214 685 214 q 707 203 707 214 l 707 18 q 696 7 707 7 l 514 7 q 513 7 514 7 l 507 7 q 458 7 507 7 q 329 7 408 7 q 183 7 250 7 z "},"":{"ha":938,"x_min":39,"x_max":899,"o":"m 861 946 l 542 429 l 542 336 l 719 336 q 731 332 726 336 q 735 322 735 328 q 731 310 735 315 q 719 306 726 306 l 542 306 l 542 207 l 719 207 q 725 206 722 207 q 730 202 728 204 q 733 197 732 200 q 735 192 735 194 q 731 181 735 185 q 719 176 726 176 l 542 176 l 542 26 l 569 26 q 580 22 575 26 q 585 12 585 18 q 580 1 585 6 q 569 -4 575 -4 l 528 -4 l 446 -4 l 444 -4 l 403 -4 q 392 1 397 -4 q 388 12 388 6 q 392 22 388 18 q 403 26 397 26 l 431 26 l 431 176 l 218 176 q 207 181 211 176 q 203 191 203 185 q 207 202 203 197 q 218 207 211 207 l 431 207 l 431 306 l 218 306 q 207 310 211 306 q 203 322 203 315 q 207 332 203 328 q 218 336 211 336 l 431 336 l 431 410 l 72 946 l 54 946 q 47 948 50 946 q 41 953 43 950 q 39 961 39 957 q 43 972 39 967 q 54 976 47 976 l 221 976 q 231 972 226 976 q 235 960 235 967 q 231 950 235 954 q 221 946 226 946 l 207 946 l 457 572 q 458 569 458 571 l 528 464 l 826 946 l 811 946 q 800 950 804 946 q 796 961 796 954 q 798 969 796 965 q 803 974 800 972 q 811 976 807 976 l 883 976 q 894 972 890 976 q 899 960 899 967 q 894 950 899 954 q 883 946 890 946 l 861 946 z "},"":{"ha":600,"x_min":61,"x_max":540,"o":"m 278 0 q 131 43 190 -1 q 63 161 71 88 q 72 173 61 172 q 85 163 83 174 q 143 61 92 100 q 278 22 199 21 q 390 61 346 24 q 438 157 438 101 q 392 235 438 203 q 279 286 360 257 q 247 297 268 290 q 188 319 208 311 q 138 343 168 326 q 95 376 108 360 q 73 421 82 393 q 67 482 64 449 q 144 596 75 551 q 247 633 188 624 q 188 654 208 646 q 138 678 168 663 q 95 712 108 694 q 73 756 82 729 q 67 817 64 783 q 144 931 75 886 q 303 972 210 972 q 442 939 378 971 q 521 858 504 907 q 514 844 525 847 q 500 850 503 840 q 431 918 485 890 q 304 950 372 949 q 200 913 242 947 q 156 828 158 878 q 190 751 154 779 q 286 706 215 733 q 335 689 303 700 q 397 667 376 675 q 451 642 418 658 q 499 608 483 625 q 527 563 515 590 q 538 501 539 535 q 457 379 533 428 q 364 343 418 354 q 433 316 406 329 q 487 283 460 303 q 526 233 514 263 q 538 167 539 204 q 457 44 533 93 q 278 0 386 0 m 286 371 q 313 361 297 367 q 390 397 358 369 q 438 492 438 436 q 392 571 438 539 q 300 614 363 590 q 200 578 240 611 q 156 493 158 543 q 190 417 154 444 q 286 371 215 397 z "},"":{"ha":790,"x_min":53,"x_max":736,"o":"m 395 826 q 466 826 395 826 q 635 727 536 826 q 735 487 735 628 q 635 246 735 346 q 395 146 536 146 q 154 245 254 146 q 54 486 54 344 q 154 727 54 628 q 395 826 254 826 m 394 168 q 460 168 394 168 q 619 261 526 168 q 713 486 713 354 q 619 711 713 618 q 394 804 526 804 q 169 711 263 804 q 76 486 76 618 q 169 261 76 354 q 394 168 263 168 m 600 585 l 600 583 q 600 569 601 576 q 589 539 599 551 q 564 525 578 526 q 558 525 561 525 q 553 525 556 525 q 535 542 540 529 q 531 572 529 554 q 534 594 531 582 q 538 617 538 606 q 517 663 538 643 q 463 690 496 682 q 417 699 440 697 l 406 699 q 331 664 361 696 q 283 582 300 632 q 269 484 269 536 q 285 388 269 432 q 333 307 301 338 q 410 275 365 276 q 517 308 472 276 q 569 389 561 340 q 582 398 571 400 q 592 385 593 396 q 530 291 581 328 q 411 253 479 254 l 410 253 l 408 253 l 399 253 l 397 253 l 397 253 l 396 253 l 396 253 l 394 253 l 394 253 l 394 253 l 393 253 l 393 253 l 393 253 l 393 253 l 392 253 l 392 253 l 392 253 l 392 253 l 390 253 l 390 253 l 390 253 l 390 253 l 389 253 l 389 253 l 389 253 l 389 253 l 388 253 l 388 253 l 388 253 l 388 253 l 386 253 l 386 253 l 386 253 l 386 253 l 385 253 l 385 253 l 383 253 l 381 253 l 378 253 l 375 254 l 372 254 l 369 254 l 367 256 l 364 256 l 361 256 l 358 257 l 356 257 l 353 258 l 350 258 l 347 258 l 344 260 l 342 261 l 339 261 l 336 263 l 333 263 l 331 264 l 328 265 l 326 265 l 324 267 l 321 268 l 318 268 l 317 269 l 314 271 l 311 272 l 308 272 l 307 274 l 304 275 l 301 276 l 300 278 l 297 279 l 294 281 l 293 282 l 290 283 l 289 285 l 286 285 l 285 288 l 282 289 l 281 290 l 278 292 l 276 293 l 274 294 l 272 296 l 271 297 l 268 299 l 267 300 l 264 303 l 263 304 l 261 306 l 258 307 l 257 308 l 256 311 l 254 313 l 251 314 l 250 317 l 249 318 l 247 319 l 246 322 l 243 324 l 242 325 l 240 328 l 239 329 l 238 332 l 236 333 l 235 335 l 233 338 l 232 339 l 231 342 l 229 343 l 228 346 l 226 347 l 225 350 l 224 351 l 222 354 l 221 356 l 219 358 l 218 360 l 218 363 l 217 365 l 215 367 l 214 369 l 213 371 l 213 374 l 211 376 l 210 378 l 210 381 l 208 382 l 207 385 l 207 388 l 206 389 l 204 392 l 204 394 l 203 397 l 203 399 l 201 401 l 200 404 l 200 406 l 199 408 l 199 411 l 197 414 l 197 415 l 197 418 l 196 421 l 196 424 l 194 425 l 194 428 l 194 431 l 193 433 l 193 435 l 193 438 l 192 440 l 192 443 l 192 446 l 192 447 l 190 450 l 190 453 l 190 456 l 190 458 l 190 460 l 190 463 l 189 465 l 189 468 l 189 471 l 189 472 l 189 475 l 189 478 q 190 507 189 493 q 256 660 199 603 l 257 661 l 258 664 l 260 664 l 261 665 l 263 667 l 265 668 l 267 671 l 269 672 l 271 674 l 274 675 l 275 678 l 278 679 l 279 681 l 282 682 l 283 683 l 286 685 l 288 686 l 289 686 l 290 688 l 293 689 l 294 690 l 297 692 l 299 693 l 300 693 l 301 694 l 304 696 l 306 696 q 311 699 308 697 l 313 700 l 314 700 l 315 701 l 318 701 l 319 703 l 322 704 l 325 704 l 328 706 l 329 707 q 339 710 335 708 l 340 710 l 342 711 q 346 713 344 711 l 347 713 l 349 713 l 350 713 l 351 714 l 354 714 l 357 714 l 357 715 l 358 715 l 360 715 l 363 715 l 364 717 l 367 717 l 369 717 l 371 718 l 372 718 l 374 718 l 375 718 l 376 718 l 379 718 l 382 719 l 383 719 l 385 719 l 386 719 l 389 719 l 390 719 l 392 719 l 394 719 l 396 719 l 397 719 l 399 721 l 400 721 l 401 721 l 404 721 l 404 721 l 406 721 q 418 721 411 721 l 418 721 l 421 719 l 422 719 l 424 719 l 425 719 l 426 719 l 428 719 l 429 719 l 431 719 l 432 719 l 435 719 l 436 719 l 439 718 l 440 718 l 443 718 l 444 718 l 446 718 l 447 718 l 450 717 l 451 717 l 456 717 l 457 717 l 458 715 l 460 715 l 463 715 l 464 714 l 465 714 l 469 714 l 471 713 l 472 713 l 474 713 l 475 713 l 475 711 l 476 711 l 478 711 l 479 711 l 481 710 l 483 710 l 485 708 l 486 708 l 488 708 l 489 708 l 489 707 l 490 707 l 492 707 q 497 704 494 706 l 499 704 l 501 703 l 503 703 l 504 701 l 506 701 l 507 700 l 508 700 l 510 700 l 510 699 l 511 699 l 513 699 l 513 697 l 514 697 l 515 696 l 518 696 l 519 694 q 525 692 522 693 l 525 690 l 526 690 l 528 689 l 529 689 l 529 688 l 531 688 l 532 688 l 533 686 l 535 685 q 600 585 589 649 z "},"":{"ha":528,"x_min":51,"x_max":475,"o":"m 436 471 l 376 471 q 365 482 365 471 l 365 533 q 324 496 349 511 q 258 471 294 476 l 257 469 l 257 469 l 256 469 q 251 469 253 469 l 250 469 l 250 469 l 249 469 l 247 469 l 247 469 l 244 468 l 243 468 l 243 468 l 242 468 l 242 468 l 240 468 l 239 468 l 239 468 l 238 468 l 236 468 l 235 468 l 235 468 l 233 468 l 233 468 l 232 468 l 232 468 l 231 468 l 229 468 l 228 468 l 228 468 l 224 468 l 222 468 l 222 468 l 218 468 l 214 468 l 210 468 l 207 468 l 203 468 l 200 469 l 196 469 l 193 469 l 189 471 l 186 471 l 182 471 l 179 472 l 175 472 l 172 474 l 169 474 l 167 475 l 163 476 l 160 476 l 157 478 l 154 479 l 151 479 l 149 481 l 144 482 l 142 483 l 139 483 l 136 485 l 135 486 l 132 488 l 129 489 l 126 490 l 124 492 l 121 493 l 119 494 l 117 496 l 114 497 l 113 499 l 110 500 l 107 501 l 106 503 l 103 506 l 101 507 l 99 508 l 97 510 l 94 511 l 93 514 l 92 515 l 89 517 l 88 519 l 86 521 l 85 522 l 82 525 l 81 526 l 79 529 l 78 531 l 76 532 l 75 535 l 74 536 l 72 539 l 71 540 l 69 543 l 68 544 l 67 547 l 65 549 l 65 551 l 64 553 l 64 554 l 63 556 l 63 557 l 61 561 l 60 563 l 60 564 l 60 565 l 58 565 l 58 568 l 57 569 l 57 571 l 56 574 l 56 575 l 56 576 l 56 578 l 56 579 l 54 579 l 54 582 l 54 583 l 54 585 l 53 586 l 53 588 l 53 589 l 53 592 l 53 593 l 53 594 l 51 596 l 51 597 l 51 599 l 51 600 l 51 601 l 51 604 l 51 606 l 51 607 l 51 610 l 51 611 q 68 672 53 643 l 69 674 l 71 676 l 72 679 l 74 681 l 75 683 l 76 685 l 78 688 l 79 689 l 79 690 l 81 692 l 82 693 l 82 694 l 83 696 l 85 696 l 86 697 l 86 699 l 88 700 l 89 701 l 90 703 l 92 704 l 93 706 l 94 707 l 96 708 l 97 710 l 99 710 l 100 711 l 101 713 l 101 714 l 103 714 l 104 715 l 106 717 l 107 718 l 108 719 l 111 721 l 113 722 l 114 724 l 115 724 l 117 725 l 118 725 l 118 726 l 121 728 l 122 729 l 124 729 l 125 731 l 126 731 l 128 732 l 129 732 l 131 733 l 132 733 l 133 735 l 135 735 l 136 736 l 138 736 l 139 738 l 140 738 l 142 739 l 143 739 l 144 740 l 146 740 l 149 742 l 151 743 l 154 744 l 157 744 l 158 746 l 160 746 l 161 746 l 164 747 l 167 749 l 168 749 l 171 749 l 174 750 l 178 751 l 181 751 l 183 753 l 185 753 l 188 753 l 192 754 l 194 754 l 199 756 l 201 756 l 203 756 l 206 756 l 207 757 q 214 757 211 757 l 218 757 q 239 758 228 758 l 243 758 l 365 758 l 365 774 l 365 785 q 335 907 364 867 q 247 949 306 949 l 244 949 q 218 946 232 949 q 172 918 186 939 q 161 865 157 897 q 164 847 164 857 q 157 824 164 833 q 139 810 150 813 q 129 808 135 808 q 122 810 126 808 q 100 825 110 813 q 92 857 92 838 q 94 876 92 867 l 94 878 l 94 879 l 96 881 l 96 882 l 96 883 l 97 883 l 97 885 l 97 886 l 99 888 l 99 888 l 99 889 l 99 889 l 100 890 l 100 892 l 101 893 l 101 894 l 103 896 l 103 896 l 103 897 l 104 897 l 104 899 l 104 899 l 106 900 l 106 901 l 106 901 l 107 903 l 107 903 l 107 904 l 108 906 l 110 907 l 110 908 q 115 915 113 911 q 139 936 126 926 q 214 968 171 960 l 215 968 q 243 972 228 971 l 243 972 l 243 972 l 243 972 l 244 972 q 264 972 254 972 l 265 972 l 267 972 l 267 972 q 400 915 351 967 q 447 781 447 865 l 447 493 l 463 493 q 474 482 474 493 q 463 471 474 471 l 436 471 m 365 736 l 243 736 q 177 716 204 736 q 138 664 150 696 q 128 600 125 633 q 150 542 132 567 q 290 503 193 483 q 313 514 301 507 q 365 581 349 538 l 365 736 z "},"":{"ha":657,"x_min":33,"x_max":618,"o":"m 399 749 l 153 481 l 397 231 q 399 217 404 224 q 383 214 392 207 l 43 474 q 42 475 42 474 q 43 492 35 483 l 382 765 q 397 765 390 772 q 399 749 406 757 m 610 749 l 365 481 l 610 231 q 611 217 617 224 q 594 214 604 207 l 256 474 q 253 475 254 474 q 256 492 246 483 l 594 765 q 610 765 601 772 q 610 749 618 757 z "},"":{"ha":0,"x_min":0,"x_max":0,"o":""},"":{"ha":611,"x_min":51,"x_max":558,"o":"m 426 789 l 426 786 l 426 785 l 426 783 l 426 782 l 426 781 l 426 779 l 425 778 l 425 776 l 425 775 l 425 772 l 425 771 l 424 768 l 424 767 l 424 767 l 424 765 l 424 764 l 422 763 l 422 761 l 421 758 l 421 757 l 419 754 l 419 753 l 418 751 l 418 750 l 418 750 l 417 747 l 415 746 l 415 744 l 414 743 l 414 742 l 413 740 l 411 739 l 411 738 l 410 736 l 408 735 l 407 733 l 407 732 l 406 731 l 404 729 l 403 728 l 401 726 l 401 725 l 400 724 l 399 722 l 397 721 l 396 719 l 394 719 l 393 718 l 392 717 l 390 715 l 389 714 l 388 714 l 386 713 l 385 711 l 382 710 l 381 710 l 379 708 l 378 707 l 376 706 l 374 706 l 372 704 l 371 704 l 369 703 l 367 701 l 365 701 l 364 700 l 361 700 l 360 699 l 357 699 l 356 697 l 353 697 l 351 696 l 349 696 l 347 694 l 344 694 l 343 694 l 340 693 l 339 693 l 336 693 l 333 693 l 408 583 l 410 583 q 421 572 421 583 q 410 561 421 561 l 360 561 q 349 572 349 561 q 351 579 349 576 l 276 690 l 243 690 l 243 583 q 256 572 256 583 q 243 561 256 561 l 196 561 q 183 572 183 561 q 196 583 183 583 l 196 856 q 183 867 183 856 q 196 879 183 879 l 311 879 q 340 876 326 879 q 344 875 343 876 l 347 875 l 349 875 l 351 874 l 353 874 l 356 872 l 357 872 l 360 872 l 361 871 l 363 871 l 365 869 l 367 869 l 368 868 l 371 868 l 372 867 l 374 865 l 376 865 l 378 864 l 379 863 l 381 863 l 382 861 l 383 860 l 386 860 l 388 858 l 389 857 l 390 857 l 392 856 l 393 854 l 394 853 l 396 851 l 397 851 l 399 850 l 399 849 l 400 847 l 401 846 l 403 844 l 404 843 l 406 843 q 407 840 407 840 l 408 839 l 410 838 l 410 836 q 413 833 411 835 l 413 832 l 414 831 q 417 825 415 828 q 418 822 418 824 l 418 821 l 419 821 l 419 819 l 421 817 l 421 815 l 422 814 l 422 813 l 424 810 l 424 808 l 424 807 l 424 806 l 425 803 l 425 801 l 425 801 l 425 800 l 425 799 l 425 799 l 425 797 l 425 797 l 425 796 l 425 796 l 426 794 l 426 793 l 426 792 l 426 790 l 426 789 m 367 753 q 372 785 372 768 q 367 817 372 801 q 311 856 351 853 l 243 856 l 243 714 l 308 714 q 310 714 308 714 q 367 753 350 717 m 305 972 q 357 972 305 972 q 483 898 410 972 q 557 719 557 824 q 483 542 557 615 q 305 468 410 468 q 126 542 200 468 q 53 719 53 615 q 126 898 53 824 q 305 972 200 972 m 305 490 q 352 490 305 490 q 467 558 400 490 q 535 720 535 625 q 467 883 535 815 q 305 950 400 950 q 142 883 210 950 q 75 720 75 815 q 142 558 75 625 q 305 490 210 490 z "},"":{"ha":378,"x_min":49,"x_max":329,"o":"m 200 972 q 289 925 251 967 q 329 814 329 879 q 289 703 329 749 q 192 656 249 657 q 185 656 189 656 q 89 703 129 658 q 49 814 49 749 q 89 925 49 879 q 175 971 125 967 q 200 972 188 972 m 189 686 q 249 722 224 686 q 276 814 276 760 q 269 864 276 840 q 249 906 263 888 q 221 933 236 924 q 158 933 190 951 q 131 910 143 925 q 109 866 117 890 q 101 814 101 842 q 129 722 101 760 q 189 686 154 686 z "},"":{"ha":499,"x_min":42,"x_max":456,"o":"m 58 471 q 47 476 51 471 q 43 486 43 481 q 47 497 43 492 q 58 501 51 501 l 233 501 l 233 676 q 238 688 233 683 q 249 692 243 692 q 260 688 256 692 q 264 676 264 683 l 264 501 l 440 501 q 450 497 446 501 q 454 486 454 492 q 450 476 454 481 q 440 471 446 471 l 264 471 l 264 296 q 263 289 264 292 q 259 285 261 286 q 254 282 257 283 q 249 281 251 281 q 238 285 243 281 q 233 296 233 289 l 233 471 l 58 471 m 440 203 q 450 199 446 203 q 454 188 454 194 q 450 177 454 182 q 440 172 446 172 l 58 172 q 47 177 51 172 q 43 188 43 182 q 47 199 43 194 q 58 203 51 203 l 440 203 z "},"":{"ha":407,"x_min":51,"x_max":353,"o":"m 211 665 q 158 629 176 643 q 116 589 139 615 q 83 533 93 563 l 251 533 l 253 533 q 315 544 301 533 q 331 590 328 554 q 342 601 331 601 q 353 590 353 601 l 353 481 q 342 469 353 469 l 63 469 q 51 481 51 469 q 51 482 51 481 q 65 552 53 521 q 102 608 78 583 q 145 648 126 633 q 199 685 164 663 q 279 792 257 724 q 286 872 293 833 q 257 931 281 910 q 208 950 238 947 l 204 950 q 154 932 172 949 q 132 881 135 914 q 132 872 132 878 q 132 856 132 861 q 96 822 128 819 l 94 822 q 75 835 82 824 q 68 858 68 846 q 68 863 68 860 q 113 940 74 910 q 204 972 151 971 l 208 972 l 208 972 l 211 972 q 311 928 274 971 q 344 839 344 890 l 344 836 q 294 726 343 774 q 231 678 272 706 l 229 678 l 226 676 l 224 675 l 222 674 l 221 672 l 221 672 l 219 671 l 218 671 l 218 669 l 215 668 l 211 667 q 211 665 211 665 z "},"":{"ha":403,"x_min":47,"x_max":349,"o":"m 83 896 q 83 903 83 900 l 83 903 q 83 904 83 904 q 124 956 90 936 l 124 956 l 125 956 l 126 957 l 126 957 l 128 957 l 128 958 l 129 958 l 131 958 l 131 958 l 132 960 l 133 960 l 133 960 l 135 960 l 135 961 l 136 961 l 136 961 l 138 961 l 139 963 l 139 963 l 140 963 l 140 963 l 142 964 l 143 964 l 143 964 l 144 964 l 144 964 l 146 964 l 146 965 l 147 965 l 147 965 l 149 965 l 150 965 l 150 967 l 151 967 l 153 967 l 154 967 l 156 967 l 156 968 l 157 968 l 158 968 l 158 968 l 160 968 l 160 968 l 161 968 l 163 969 l 164 969 l 165 969 l 165 969 l 167 969 l 168 969 l 169 969 l 169 969 l 171 971 l 172 971 l 174 971 l 175 971 l 176 971 l 176 971 l 178 971 l 179 971 l 181 971 l 181 971 l 182 971 l 182 971 l 185 972 l 186 972 l 188 972 l 189 972 l 190 972 l 190 972 q 197 972 194 972 l 199 972 l 199 972 l 200 972 l 201 972 l 203 972 l 204 972 l 206 972 l 207 972 l 207 971 l 208 971 l 210 971 l 211 971 l 213 971 l 214 971 l 215 971 l 217 971 l 218 971 l 219 971 l 219 969 l 221 969 l 222 969 l 224 969 l 225 969 l 226 969 l 228 969 l 229 968 l 231 968 l 232 968 l 233 968 l 235 967 l 236 967 l 238 967 l 239 967 l 240 965 l 242 965 l 243 965 l 244 964 l 246 964 l 247 964 l 249 963 l 250 963 l 251 963 l 254 961 l 256 960 l 257 960 l 258 960 l 260 958 l 261 958 l 263 957 l 263 957 l 264 957 l 264 956 l 265 956 l 267 954 l 268 954 l 269 953 l 271 953 l 272 951 l 274 951 l 275 950 l 275 950 l 276 950 l 276 949 l 278 949 l 279 947 l 281 946 l 282 946 l 283 944 l 283 943 l 285 943 q 324 867 319 914 q 325 854 325 861 l 325 853 l 324 850 l 324 849 l 324 847 l 324 846 l 324 843 l 324 842 l 324 840 l 324 839 l 324 838 l 322 838 l 322 836 l 322 835 l 322 833 l 322 832 l 322 831 l 321 829 l 321 828 l 321 826 l 319 824 l 319 822 l 319 821 l 318 819 l 318 817 l 317 815 l 317 814 l 315 813 l 315 811 l 315 810 l 314 808 l 314 807 l 313 806 l 313 804 l 311 803 l 310 800 l 310 799 l 308 797 l 307 796 l 307 794 l 306 794 l 306 793 l 304 792 l 304 790 l 303 790 l 303 789 l 301 788 l 300 786 l 299 785 l 297 783 l 296 782 l 296 781 l 294 779 l 293 778 l 292 778 l 292 776 l 290 775 l 289 775 l 289 774 l 288 772 l 286 772 l 285 771 l 285 771 l 283 769 l 282 768 l 281 768 l 281 767 l 279 767 l 278 765 l 276 765 l 276 764 l 275 764 l 275 763 l 274 763 l 272 763 l 272 761 l 271 761 l 269 760 l 269 760 l 268 760 l 268 758 l 267 758 l 265 758 l 264 757 l 263 757 l 261 756 l 260 756 l 258 754 l 257 754 l 257 754 q 261 751 258 753 l 261 751 l 263 751 l 263 751 l 264 750 q 265 750 264 750 q 267 749 267 750 l 268 749 l 269 749 l 271 747 l 272 747 l 274 746 l 274 746 l 275 744 l 276 744 l 276 744 l 278 743 l 278 743 l 279 743 l 279 743 l 281 742 l 282 742 l 282 740 l 283 740 l 285 739 l 285 739 l 286 739 l 286 738 l 288 738 l 289 736 l 289 736 l 290 736 l 290 735 l 292 735 l 292 733 l 293 733 l 294 733 l 294 732 l 296 732 l 296 731 l 297 731 l 297 729 l 299 729 l 299 729 l 300 728 l 300 728 l 301 726 l 301 726 l 303 725 l 303 725 l 304 724 l 304 724 l 306 724 l 306 722 l 307 722 l 307 721 l 308 721 l 308 719 l 310 718 l 310 718 l 311 717 l 311 717 l 313 715 l 314 714 l 315 713 l 315 711 l 317 710 l 318 708 l 319 707 l 319 706 l 321 704 l 322 703 l 324 701 l 325 700 l 325 699 l 326 697 l 326 696 l 328 694 l 329 693 l 329 692 l 331 690 l 331 689 l 332 688 l 332 686 l 333 685 l 333 683 l 335 679 l 336 678 l 336 676 l 336 675 l 338 674 l 338 672 l 339 671 l 339 669 l 340 668 l 340 667 l 340 665 l 342 664 l 342 663 l 342 661 l 343 660 l 343 657 l 343 656 l 343 654 l 344 653 l 344 651 l 344 649 l 346 647 l 346 646 l 346 643 l 346 642 l 346 640 l 346 639 l 347 638 l 347 636 l 347 635 l 347 633 l 347 629 l 347 628 l 347 626 l 347 625 l 347 624 l 347 622 q 347 604 347 613 q 299 508 342 543 l 297 507 l 296 506 l 294 504 l 293 503 l 292 501 l 290 501 l 289 500 l 288 499 l 286 497 l 285 497 l 283 496 l 282 494 l 281 494 l 279 494 l 278 493 l 276 492 l 275 492 l 274 490 l 272 489 l 271 489 l 268 488 l 267 488 l 265 486 l 264 485 l 263 485 l 261 483 l 260 483 l 258 483 l 257 482 l 256 482 l 254 481 l 253 481 l 250 481 l 250 481 l 249 479 l 247 479 l 246 478 l 244 478 l 243 478 l 242 478 q 236 476 239 476 l 236 475 l 235 475 l 233 475 l 231 475 l 229 474 q 210 471 219 472 l 208 471 l 207 471 l 206 471 q 193 469 200 469 l 192 469 l 192 469 l 190 469 q 182 469 186 469 l 181 469 l 179 469 l 178 469 l 176 469 l 175 469 l 174 469 l 174 471 l 172 471 l 169 471 l 168 471 l 167 471 l 165 471 l 164 471 l 163 471 l 161 471 l 160 471 l 158 472 l 157 472 q 153 472 154 472 l 151 472 l 150 474 l 149 474 l 147 474 l 146 474 l 144 474 l 143 474 l 143 475 l 142 475 l 140 475 l 139 475 l 138 475 l 136 476 l 135 476 l 133 476 l 132 478 l 131 478 l 129 478 l 128 478 l 126 479 l 125 479 l 125 479 l 124 481 l 122 481 l 121 481 l 119 482 l 118 482 l 117 482 l 115 483 l 114 483 l 114 483 l 113 485 l 111 485 l 110 485 l 108 486 l 107 486 l 107 488 l 106 488 l 104 488 l 104 489 l 103 489 l 101 489 l 101 490 l 100 490 l 99 492 l 97 492 q 49 556 58 515 l 49 556 l 49 557 l 49 557 l 49 557 l 49 557 l 49 557 l 49 558 q 49 565 49 563 q 58 588 50 579 q 78 599 65 597 q 82 599 79 599 q 88 597 85 599 q 101 585 97 594 q 106 565 106 576 q 101 550 104 558 q 100 538 100 543 q 111 515 100 526 q 140 499 121 506 q 182 492 160 493 l 183 492 l 185 492 l 186 492 l 190 492 q 275 561 251 496 q 283 618 283 588 q 274 674 283 649 q 188 743 250 740 q 186 743 186 743 q 185 743 186 743 q 179 747 181 743 l 178 747 l 178 747 q 178 747 178 747 l 178 749 l 178 749 l 176 749 l 176 749 l 176 750 l 176 750 l 176 750 q 176 751 176 751 l 176 751 l 176 751 l 176 753 q 176 754 176 753 l 176 756 q 178 761 176 758 l 179 761 q 179 761 179 761 l 179 763 q 181 763 181 763 l 181 763 l 182 763 l 182 764 l 182 764 l 182 764 l 182 764 l 182 764 l 183 764 l 183 764 l 183 764 l 183 764 l 183 764 l 185 764 l 185 764 l 185 764 l 185 765 l 186 765 q 188 765 186 765 l 194 765 q 261 815 243 767 q 269 856 269 835 q 263 899 269 878 q 197 949 244 947 l 192 950 l 192 950 q 157 943 172 949 q 135 932 143 939 q 128 918 129 925 q 129 910 128 914 q 133 896 132 903 q 129 881 133 888 q 118 869 125 872 q 113 869 115 869 q 108 869 111 869 q 92 877 99 869 q 83 896 85 885 z "},"":{"ha":282,"x_min":69,"x_max":214,"o":"m 90 544 q 141 569 111 569 q 193 544 171 569 q 213 485 213 519 q 193 428 213 451 q 141 403 171 403 q 90 428 111 403 q 69 485 69 451 q 90 544 69 519 z "},"":{"ha":239,"x_min":46,"x_max":183,"o":"m 164 961 l 164 492 l 171 492 q 182 481 182 492 q 171 469 182 469 l 92 469 q 81 481 81 469 q 92 492 81 492 l 100 492 l 100 883 l 61 883 q 51 890 54 883 q 56 904 46 900 q 107 935 88 922 q 143 968 126 949 q 153 972 147 972 q 164 961 164 972 z "},"":{"ha":657,"x_min":38,"x_max":622,"o":"m 503 481 l 258 749 q 258 765 250 757 q 274 765 267 772 l 613 492 q 615 475 622 483 q 613 474 614 474 l 274 214 q 257 217 264 207 q 258 231 251 224 l 503 481 m 290 481 l 46 749 q 47 765 39 757 q 61 765 54 772 l 401 492 q 403 475 410 483 q 401 474 401 474 l 61 214 q 46 215 53 207 q 47 231 39 224 l 290 481 z "},"":{"ha":801,"x_min":49,"x_max":746,"o":"m 738 204 l 717 204 l 717 14 l 732 14 q 739 7 739 14 q 732 0 739 0 l 638 0 q 631 7 631 0 q 638 14 631 14 l 653 14 l 653 204 l 376 204 q 372 207 374 204 q 371 217 367 211 l 654 538 l 674 558 l 704 594 l 706 594 l 706 594 l 706 596 l 706 596 l 707 596 l 707 596 l 708 597 l 708 597 l 710 597 l 711 597 l 711 597 l 713 597 l 713 596 l 714 596 l 714 596 l 714 596 l 715 596 l 715 594 l 715 594 l 715 594 l 715 594 l 715 594 l 715 594 l 715 594 l 715 593 l 715 593 l 717 593 l 717 593 l 717 593 l 717 593 l 717 593 l 717 593 l 717 592 l 717 592 l 717 592 l 717 592 l 717 592 l 717 592 l 717 592 l 717 592 l 717 592 l 717 592 l 717 590 l 717 590 l 717 218 l 738 218 q 744 211 744 218 q 738 204 744 204 m 653 218 l 653 514 l 392 218 l 653 218 m 192 299 l 96 299 q 89 306 89 299 q 96 313 89 313 l 111 313 l 111 801 l 58 801 q 53 806 54 801 q 56 815 49 811 q 118 851 94 835 q 164 893 142 869 q 169 896 165 896 q 176 889 176 896 l 176 313 l 192 313 q 199 306 199 313 q 192 299 199 299 m 528 900 q 547 908 533 914 q 556 889 561 903 l 186 -61 q 167 -69 181 -75 q 158 -50 153 -64 l 528 900 z "},"":{"ha":860,"x_min":49,"x_max":806,"o":"m 192 299 l 96 299 q 89 306 89 299 q 96 313 89 313 l 111 313 l 111 801 l 58 801 q 53 806 54 801 q 56 815 49 811 q 118 851 94 835 q 164 893 142 869 q 169 896 165 896 q 176 889 176 896 l 176 313 l 192 313 q 199 306 199 313 q 192 299 199 299 m 790 139 q 797 146 790 146 q 804 139 804 146 l 804 6 q 797 -1 804 -1 l 458 -1 q 451 6 451 -1 q 451 7 451 7 q 468 90 454 53 q 512 158 482 128 q 565 205 542 188 q 628 249 588 222 q 706 332 676 282 q 739 439 736 383 l 739 442 q 717 539 743 500 q 636 583 689 579 l 632 583 l 631 583 l 631 583 q 565 560 589 582 q 536 493 539 538 q 536 482 536 489 q 536 463 536 469 q 500 428 532 425 l 499 428 q 479 442 486 429 q 472 465 472 451 q 472 469 472 468 l 472 471 q 474 478 474 475 l 474 481 l 475 482 l 475 483 l 475 485 q 476 490 475 488 l 476 492 l 478 493 l 478 496 l 478 497 l 479 499 l 479 500 l 481 501 l 481 503 l 481 504 l 482 507 l 483 508 l 483 510 l 483 511 l 485 513 l 486 514 l 486 515 l 488 517 l 488 518 l 489 519 l 489 521 l 490 522 l 492 524 l 492 525 l 493 526 l 494 528 l 494 529 l 496 531 l 497 532 l 497 533 l 499 535 l 500 536 l 500 538 l 501 538 q 503 540 501 539 l 504 542 l 506 543 l 507 544 l 508 546 l 510 547 l 510 549 l 511 549 l 513 550 l 514 551 l 515 553 l 517 554 l 518 554 l 519 556 l 519 557 l 522 558 l 524 560 l 525 561 l 526 563 l 528 564 l 529 564 l 531 565 l 532 565 l 532 567 l 533 567 l 535 568 l 536 568 l 536 569 l 538 569 l 538 569 l 539 571 l 540 571 l 542 572 l 543 572 l 544 574 l 544 574 q 547 575 546 575 l 549 575 l 549 576 l 550 576 l 551 576 l 553 578 l 554 579 l 556 579 l 557 579 l 558 581 l 560 581 l 561 582 l 563 582 l 564 583 l 567 583 l 568 585 l 569 585 l 569 585 l 571 586 l 572 586 q 576 588 575 586 l 576 588 l 578 588 l 579 589 l 581 589 q 581 589 581 589 q 583 589 582 589 l 585 590 l 586 590 l 588 590 l 589 590 q 599 593 593 592 l 600 593 l 601 593 l 603 594 l 604 594 q 608 594 606 594 l 610 594 q 617 596 613 596 l 618 596 q 622 596 619 596 q 636 597 629 597 q 638 597 636 597 q 639 597 639 597 l 642 597 l 644 597 l 646 597 l 649 596 l 651 596 l 653 596 q 660 596 656 596 l 663 594 q 667 594 664 594 l 669 594 l 671 593 l 674 593 l 675 593 l 676 593 l 678 592 l 681 592 l 682 592 l 685 590 l 686 590 l 688 589 l 689 589 l 690 589 l 690 589 l 692 588 l 694 588 l 696 586 l 699 586 l 700 585 l 701 585 l 704 583 l 706 583 l 707 582 l 708 582 l 710 581 l 711 581 l 713 579 l 715 579 l 717 578 l 718 576 l 719 576 l 719 575 l 721 575 l 724 574 l 725 572 l 726 572 l 728 571 l 729 569 l 731 568 l 733 567 l 735 567 l 736 565 l 738 564 l 739 563 l 740 561 l 742 560 l 743 560 l 744 558 q 747 556 746 557 l 749 554 l 750 553 l 751 551 l 753 550 l 754 549 l 754 547 l 756 546 l 757 544 l 758 543 q 761 539 760 542 l 763 539 l 763 538 l 764 536 l 765 535 l 767 533 l 767 532 l 768 531 l 769 529 l 769 526 l 771 526 l 771 525 l 772 524 l 772 522 l 774 522 l 774 521 l 775 519 l 775 518 l 776 517 l 778 514 l 778 513 l 779 511 l 779 510 l 781 508 l 781 507 l 782 504 l 782 503 l 783 501 l 783 501 l 783 500 l 785 499 l 785 496 l 786 494 l 786 493 l 786 492 l 788 490 l 788 488 l 789 486 l 789 485 l 789 483 l 789 482 l 790 481 l 790 479 l 790 478 l 790 476 l 792 475 l 792 472 l 792 471 l 792 469 l 792 468 l 793 468 l 793 465 l 793 464 l 793 463 l 793 461 l 793 458 l 793 457 l 794 456 l 794 454 l 794 451 l 794 450 l 794 449 l 794 447 l 794 446 l 794 444 l 794 443 l 794 440 l 794 439 l 794 438 q 794 436 794 438 q 794 433 794 435 q 794 429 794 432 q 794 428 794 429 q 793 425 794 428 l 793 424 q 793 422 793 424 q 793 421 793 421 q 793 417 793 418 q 766 348 788 379 q 721 297 744 317 q 658 251 697 278 l 654 250 l 651 247 l 640 240 l 636 238 l 635 238 q 584 203 603 217 q 540 167 565 189 q 499 119 515 144 q 475 64 483 93 l 689 64 q 769 78 750 64 q 790 139 788 92 m 528 900 q 547 908 533 914 q 556 889 561 903 l 186 -61 q 167 -69 181 -75 q 158 -50 153 -64 l 528 900 z "},"":{"ha":906,"x_min":44,"x_max":850,"o":"m 268 306 l 265 306 q 261 304 263 304 l 260 304 l 257 303 l 257 303 l 256 303 q 249 301 251 303 l 249 301 l 246 301 q 242 300 243 301 l 240 300 l 238 300 l 236 300 q 217 299 226 299 l 217 299 l 214 299 l 213 299 l 211 299 q 203 299 207 299 l 201 299 l 197 299 q 192 299 196 299 l 190 299 l 190 299 l 189 299 l 188 299 q 182 300 185 299 l 182 300 l 181 300 l 179 300 l 178 300 q 174 300 176 300 l 172 301 l 171 301 l 169 301 l 168 301 l 167 301 l 165 301 l 164 303 l 163 303 l 161 303 l 160 303 l 158 303 l 157 303 l 156 304 l 154 304 l 153 304 l 150 306 l 149 306 l 147 306 l 146 306 l 144 307 l 143 307 l 142 307 l 140 307 l 140 308 l 139 308 l 138 308 l 136 308 l 135 310 l 133 310 l 132 310 l 131 311 l 129 311 l 129 311 l 128 313 l 126 313 l 125 313 l 124 314 l 122 314 l 121 314 l 121 315 l 119 315 l 118 315 l 117 317 l 115 317 l 114 318 l 113 318 l 110 319 l 108 321 l 107 321 l 107 322 l 106 322 l 104 322 l 103 324 l 101 324 q 46 397 56 351 l 46 399 l 46 399 l 46 399 q 46 407 46 403 q 56 431 47 422 q 75 442 64 440 q 79 442 76 442 q 85 440 82 440 q 98 429 93 438 q 101 408 103 421 q 97 390 100 400 q 94 374 94 382 q 110 343 94 357 q 149 321 124 329 q 201 313 174 313 l 203 313 l 204 313 q 210 313 207 313 l 211 313 q 319 401 290 317 q 332 472 332 435 q 319 543 332 510 q 207 631 288 626 l 207 631 q 203 632 204 631 q 201 633 203 632 l 201 633 l 201 635 q 201 635 201 635 l 200 635 q 200 638 200 636 l 200 638 l 200 638 q 201 640 201 639 q 203 642 201 640 l 203 642 l 203 642 l 203 642 l 203 643 l 204 643 l 204 643 l 204 643 l 204 643 l 204 643 l 204 643 l 206 643 l 206 643 q 207 643 207 643 l 217 643 q 304 710 279 646 q 314 762 314 733 q 304 815 314 790 q 221 882 282 879 l 213 882 q 168 874 189 881 q 140 858 150 868 q 129 836 129 849 q 131 824 129 831 q 135 810 133 817 q 131 794 135 800 q 121 785 128 788 q 115 783 118 783 q 111 783 114 783 q 96 792 103 785 q 88 811 89 800 q 88 818 88 814 q 88 819 88 818 q 90 826 89 822 l 90 828 l 92 829 l 92 831 l 92 831 l 92 832 l 93 832 l 93 833 l 93 833 l 93 835 l 93 835 l 94 836 l 94 838 l 96 838 l 96 839 l 96 840 l 97 840 l 97 842 l 97 843 l 99 843 l 99 844 l 99 846 l 100 846 l 100 847 l 101 847 l 101 849 l 101 849 l 103 850 l 103 850 l 103 851 l 104 851 l 104 853 l 106 853 l 106 854 l 106 854 l 107 856 l 107 856 l 108 856 l 108 857 l 108 857 l 110 857 l 110 858 l 111 860 l 111 860 l 113 861 l 113 861 l 114 861 l 114 863 l 115 863 l 115 864 l 117 864 l 117 865 l 118 865 l 118 867 l 119 867 l 119 867 l 121 867 l 121 868 l 122 868 l 122 869 l 124 869 l 125 871 l 125 871 l 126 872 l 128 872 l 128 872 l 129 874 l 129 874 l 131 874 l 131 875 l 132 875 l 133 875 l 133 876 l 135 876 l 136 878 l 138 878 l 138 878 l 139 879 l 140 879 l 140 879 l 142 881 l 142 881 l 143 881 l 144 882 l 146 882 l 147 882 l 147 883 l 149 883 l 150 883 l 150 883 l 151 885 l 153 885 l 154 885 l 154 885 l 156 886 l 157 886 l 158 886 l 160 888 l 161 888 l 161 888 l 163 888 l 164 889 l 165 889 l 167 889 l 167 889 l 168 889 l 169 890 l 171 890 l 172 890 l 172 890 l 174 890 l 175 892 l 176 892 l 178 892 l 179 892 l 181 892 l 182 893 l 182 893 l 183 893 l 185 893 l 186 893 l 188 893 l 189 893 l 190 893 l 192 894 l 193 894 l 194 894 l 194 894 l 196 894 l 197 894 l 199 894 l 200 894 l 201 894 l 203 894 l 204 894 l 206 894 l 207 896 l 207 896 l 208 896 l 210 896 l 211 896 q 221 896 215 896 l 222 896 l 224 896 l 225 896 l 226 896 l 228 896 l 229 894 l 231 894 l 232 894 l 233 894 l 235 894 l 236 894 l 238 894 l 239 894 l 240 894 l 242 894 l 243 894 l 244 893 l 246 893 l 249 893 l 250 893 l 251 893 l 253 892 l 254 892 l 256 892 l 257 892 l 258 892 l 260 890 l 261 890 l 263 890 l 264 890 l 265 890 l 267 889 l 268 889 l 269 889 l 271 888 l 272 888 l 274 888 l 275 888 l 276 886 l 278 886 l 279 885 l 281 885 l 281 885 l 282 883 l 283 883 l 285 883 l 286 883 l 288 882 l 289 882 l 290 881 l 292 881 l 293 879 l 294 879 l 297 878 l 299 878 l 299 876 q 301 875 300 876 l 301 875 l 303 875 q 304 874 303 875 q 306 874 306 874 l 306 874 l 307 872 l 308 871 l 310 871 l 311 869 l 313 868 l 314 868 l 315 867 l 317 865 l 318 864 l 319 864 l 321 863 l 322 861 l 324 861 l 324 860 l 325 860 l 325 858 l 326 858 l 326 857 l 328 857 l 328 856 l 329 856 l 329 854 l 331 854 l 331 853 l 332 853 l 333 851 l 333 850 l 335 850 l 335 850 l 335 849 l 336 849 l 336 847 l 338 846 l 339 846 l 339 844 l 339 844 l 340 843 l 340 843 l 340 842 l 342 842 l 342 840 l 343 840 l 343 839 l 344 838 l 344 838 l 346 836 l 346 835 l 346 835 l 347 833 l 347 832 l 349 832 l 349 831 l 350 829 l 350 829 l 350 828 q 367 774 364 804 q 368 758 368 767 q 335 675 367 711 q 271 636 310 647 l 272 636 l 275 635 l 278 635 l 279 633 l 282 633 l 283 632 l 286 632 l 288 631 l 290 631 l 292 629 l 293 629 l 296 628 l 297 626 l 300 626 l 301 625 l 303 624 l 306 624 l 307 622 l 308 621 l 311 621 l 313 619 l 314 618 l 315 617 l 318 617 l 319 615 l 321 614 l 322 613 l 325 613 l 326 611 l 328 610 l 329 608 l 331 607 l 332 606 l 333 606 l 335 604 l 338 603 l 339 601 l 340 600 l 342 599 l 343 597 l 344 596 l 346 594 l 347 593 l 349 592 l 350 590 l 351 589 l 353 588 l 354 586 l 354 585 l 356 583 l 357 582 l 358 581 l 360 579 l 361 578 l 363 576 l 363 575 q 365 572 364 574 l 367 571 l 368 568 l 368 567 l 369 565 l 371 564 l 371 563 l 372 561 l 374 560 l 374 557 l 375 556 l 376 554 l 376 553 l 378 551 l 379 549 l 379 547 l 381 546 l 381 544 l 382 543 l 382 540 l 383 539 l 383 538 l 385 536 l 385 533 l 386 532 l 386 531 l 388 529 l 388 526 l 388 525 l 389 524 l 389 522 l 390 519 l 390 518 l 390 517 l 392 514 l 392 513 l 392 511 l 392 510 l 393 507 l 393 506 l 393 504 l 393 501 q 394 499 394 500 q 394 494 394 499 q 394 490 394 493 l 396 489 l 396 488 l 396 485 l 396 483 l 396 482 l 396 481 l 396 478 l 396 476 q 394 456 396 467 q 339 343 388 385 l 338 342 l 336 340 l 335 339 l 332 338 l 331 336 l 329 335 l 328 333 l 325 332 l 324 331 l 324 331 l 322 331 l 321 329 l 319 329 l 318 328 l 317 326 l 315 325 l 313 325 l 313 324 l 311 324 l 310 322 l 307 321 l 306 321 l 303 319 l 301 318 l 300 318 l 297 317 l 296 315 l 293 315 l 292 314 l 290 314 l 288 313 l 286 311 l 283 311 l 282 310 l 279 310 l 278 308 l 275 308 l 274 307 l 272 307 l 271 307 l 269 307 l 268 306 m 842 204 l 821 204 l 821 14 l 838 14 q 844 7 844 14 q 838 0 844 0 l 742 0 q 735 7 735 0 q 742 14 735 14 l 757 14 l 757 204 l 481 204 q 476 207 478 204 q 476 217 471 211 l 758 538 l 760 538 l 778 558 l 810 594 l 810 594 l 810 596 l 811 596 l 811 596 l 813 596 l 813 597 l 813 597 l 814 597 l 815 597 l 817 597 l 817 596 l 818 596 l 818 596 l 819 596 l 819 596 l 819 594 l 819 594 l 819 594 l 819 594 l 819 594 l 819 594 l 819 594 l 821 594 l 821 594 l 821 593 l 821 593 l 821 593 l 821 593 l 821 593 l 821 593 l 821 593 l 821 592 l 821 592 l 821 592 l 821 592 l 821 592 l 821 592 l 821 592 l 821 592 l 821 592 l 821 590 l 821 590 l 821 218 l 842 218 q 849 211 849 218 q 842 204 849 204 m 757 218 l 757 514 l 496 218 l 757 218 m 632 900 q 652 908 638 914 q 661 889 667 903 l 290 -61 q 271 -69 285 -75 q 263 -50 257 -64 l 632 900 z "},"":{"ha":492,"x_min":35,"x_max":560,"o":"m 422 504 q 371 479 401 479 q 319 504 340 479 q 300 563 300 529 q 319 621 300 597 q 371 646 340 646 q 422 621 401 646 q 443 563 443 597 q 422 504 443 529 m 549 -74 q 560 -112 560 -90 q 558 -119 558 -115 l 558 -119 l 558 -122 q 557 -133 558 -128 l 556 -136 l 556 -139 l 556 -142 l 554 -144 q 553 -153 554 -149 l 551 -156 l 551 -158 l 550 -161 l 550 -164 l 549 -167 l 547 -169 l 547 -172 l 546 -175 l 544 -176 l 543 -179 l 543 -182 l 542 -185 l 540 -187 l 539 -189 l 538 -192 l 536 -194 l 536 -197 l 535 -199 l 533 -201 l 532 -204 l 531 -206 l 529 -208 l 528 -211 l 526 -212 l 525 -215 l 522 -217 l 521 -219 l 519 -221 l 518 -224 l 517 -226 l 515 -228 l 514 -231 l 513 -231 q 510 -233 511 -232 l 508 -236 l 507 -237 l 504 -240 l 503 -242 l 501 -244 l 499 -246 l 497 -247 l 496 -250 l 493 -251 l 492 -253 l 489 -256 l 488 -257 l 486 -258 l 483 -260 l 482 -262 l 479 -264 l 478 -265 l 475 -267 l 472 -268 l 471 -271 l 468 -272 l 465 -274 l 464 -275 l 463 -276 l 461 -278 l 458 -279 l 457 -281 l 456 -281 l 454 -282 l 453 -282 l 453 -283 l 450 -283 l 450 -285 l 449 -285 l 447 -286 l 446 -286 l 444 -287 l 443 -289 l 442 -289 l 440 -289 q 436 -292 438 -292 l 435 -293 l 433 -293 l 432 -294 l 431 -294 l 429 -296 l 428 -296 l 426 -297 l 425 -297 l 424 -299 l 422 -299 l 419 -300 l 418 -301 l 415 -301 l 415 -303 l 413 -303 l 410 -304 l 407 -306 l 404 -307 l 401 -307 l 400 -308 l 399 -308 l 396 -310 q 390 -311 392 -311 l 389 -311 l 388 -312 l 385 -312 l 383 -314 q 379 -315 383 -314 l 378 -315 l 376 -315 l 375 -315 l 374 -317 l 372 -317 l 371 -317 l 369 -317 q 353 -321 361 -319 l 350 -321 l 347 -322 l 344 -322 q 339 -324 342 -322 l 336 -324 q 324 -325 329 -325 l 321 -325 q 319 -326 321 -325 q 315 -326 317 -326 q 293 -326 304 -326 l 288 -326 l 283 -326 l 281 -326 l 276 -326 l 272 -326 l 268 -326 l 264 -325 l 261 -325 l 257 -325 l 253 -324 l 250 -324 l 246 -324 l 242 -322 l 239 -322 l 235 -321 l 232 -321 l 228 -319 l 225 -319 l 221 -318 l 218 -317 l 214 -317 l 211 -315 l 208 -314 l 204 -314 l 201 -312 l 199 -311 l 194 -310 l 192 -310 l 189 -308 l 186 -307 l 182 -306 l 179 -304 l 176 -303 l 174 -301 l 171 -300 l 168 -299 l 165 -297 l 163 -296 l 160 -294 l 157 -293 l 154 -290 l 151 -289 l 149 -287 l 146 -286 l 143 -285 l 140 -282 l 138 -281 l 135 -279 l 133 -276 l 131 -275 l 128 -274 l 125 -271 l 124 -269 l 121 -267 l 118 -265 l 117 -264 l 114 -261 l 113 -260 l 110 -257 l 107 -256 l 106 -253 l 103 -250 l 101 -249 l 99 -246 l 97 -244 l 96 -242 l 93 -239 l 92 -237 l 90 -235 l 88 -232 l 86 -231 l 85 -228 l 82 -225 q 79 -221 82 -224 l 78 -218 l 76 -215 l 75 -212 l 74 -212 l 72 -211 l 71 -208 l 69 -206 l 68 -203 q 65 -199 67 -200 l 65 -197 l 64 -196 l 63 -193 l 61 -190 l 60 -187 l 58 -185 l 58 -182 l 57 -179 l 56 -176 l 54 -174 l 53 -172 l 53 -171 l 53 -169 l 51 -167 l 50 -164 l 49 -161 l 49 -158 l 47 -156 l 47 -153 l 46 -150 l 44 -147 l 44 -144 l 43 -142 l 43 -139 l 42 -136 l 42 -133 l 40 -131 l 40 -128 l 39 -125 l 39 -122 l 39 -119 l 38 -117 l 38 -114 l 38 -111 l 38 -110 l 38 -108 l 38 -107 l 36 -106 l 36 -104 l 36 -101 l 36 -99 l 36 -96 l 36 -93 l 35 -90 l 35 -87 l 35 -85 l 35 -82 l 35 -79 l 35 -76 l 35 -74 l 35 -72 l 35 -69 q 35 -58 35 -64 q 36 -53 36 -56 q 36 -47 36 -50 l 36 -46 l 36 -42 q 38 -37 38 -39 l 38 -36 l 38 -35 q 42 -17 39 -26 q 43 -12 42 -15 q 44 -8 43 -10 l 44 -7 l 47 1 q 49 6 49 4 q 51 10 50 8 l 51 11 q 57 24 54 17 q 58 26 58 25 l 58 28 q 61 31 60 28 l 61 32 l 65 39 q 69 43 68 42 q 71 46 69 44 l 71 47 q 74 50 74 50 l 74 50 q 85 64 79 57 q 88 68 86 67 q 90 71 89 69 q 94 75 92 72 l 94 75 l 97 78 q 100 81 99 79 q 104 85 103 83 l 107 88 l 111 90 l 114 93 l 117 97 l 118 97 l 121 100 l 125 103 l 128 106 l 132 108 l 136 111 l 139 114 l 143 117 l 147 119 l 151 122 l 156 125 l 158 128 l 163 131 l 167 133 l 171 136 l 175 139 l 179 142 l 183 144 l 188 147 l 192 150 l 196 151 l 196 153 l 200 154 l 204 157 l 208 160 l 213 163 l 214 164 l 228 172 l 229 174 q 289 214 267 197 q 321 279 314 235 q 319 374 328 317 l 319 375 q 349 433 321 418 q 371 438 360 439 q 393 432 382 438 q 419 369 421 414 l 419 368 l 419 368 l 419 367 l 419 367 l 419 367 q 418 361 419 365 l 418 361 q 418 357 418 360 l 417 356 l 417 351 l 415 350 l 415 347 l 414 344 l 414 343 q 301 194 388 260 q 296 192 299 193 q 242 154 275 176 l 240 153 q 167 60 193 124 q 143 -83 139 -7 q 189 -249 149 -190 q 293 -304 228 -304 l 300 -304 q 408 -267 369 -303 q 454 -158 450 -229 q 454 -140 454 -151 q 456 -108 454 -119 q 514 -53 463 -47 l 517 -53 q 549 -74 536 -54 z "},"":{"ha":838,"x_min":-8,"x_max":844,"o":"m 832 22 q 843 11 843 22 q 832 0 843 0 l 688 0 q 676 11 676 0 q 688 22 676 22 l 700 22 l 585 299 l 164 299 l 56 22 l 75 22 q 88 11 88 22 q 75 0 88 0 l 3 0 q -8 11 -8 0 q 3 22 -8 22 l 32 22 l 144 314 q 146 315 146 314 l 356 854 q 357 856 356 856 l 399 965 l 400 965 l 400 967 l 400 967 l 400 968 l 401 968 l 401 969 l 401 969 l 403 969 l 403 971 l 404 971 l 404 971 l 406 971 l 406 972 l 407 972 l 407 972 l 408 972 l 408 972 l 410 972 l 411 972 l 411 972 l 413 972 l 414 972 l 414 971 l 414 971 l 414 971 l 414 971 l 415 971 l 415 971 q 417 971 415 971 l 417 969 l 417 969 l 417 969 l 417 969 l 417 969 l 417 969 q 419 965 419 968 l 692 315 q 692 314 692 314 l 814 22 l 832 22 m 172 321 l 575 321 l 367 821 l 172 321 m 388 1107 q 357 1160 365 1133 q 357 1208 346 1189 q 367 1221 360 1215 q 369 1222 367 1221 q 389 1225 379 1226 q 428 1206 410 1225 q 454 1163 443 1190 q 472 1058 475 1114 q 461 1047 472 1047 q 456 1049 458 1047 q 388 1107 418 1069 z "},"":{"ha":838,"x_min":-8,"x_max":844,"o":"m 832 22 q 843 11 843 22 q 832 0 843 0 l 688 0 q 676 11 676 0 q 688 22 676 22 l 700 22 l 585 299 l 164 299 l 56 22 l 75 22 q 88 11 88 22 q 75 0 88 0 l 3 0 q -8 11 -8 0 q 3 22 -8 22 l 32 22 l 144 314 q 146 315 146 314 l 356 854 q 357 856 356 856 l 399 965 l 400 967 l 400 967 l 400 968 l 401 968 l 401 968 l 401 969 l 403 969 l 403 969 l 403 971 l 404 971 l 404 971 l 406 971 l 406 972 l 407 972 l 407 972 l 408 972 l 408 972 l 410 972 l 411 972 l 411 972 l 413 972 l 413 972 l 414 972 l 414 971 l 414 971 l 414 971 l 414 971 l 415 971 l 415 971 q 417 971 415 971 l 417 969 l 417 969 l 417 969 l 417 969 l 417 969 l 417 969 q 419 965 419 968 l 692 315 q 692 314 692 314 l 814 22 l 832 22 m 172 321 l 575 321 l 367 821 l 172 321 m 347 1047 q 335 1058 335 1047 q 353 1163 332 1114 q 379 1206 364 1190 q 418 1225 397 1225 q 439 1222 428 1226 q 442 1219 440 1221 q 451 1208 447 1215 q 451 1158 461 1189 q 419 1107 442 1133 q 351 1049 389 1069 q 347 1047 350 1047 z "},"":{"ha":836,"x_min":-8,"x_max":844,"o":"m 285 1049 q 281 1064 275 1054 l 399 1260 q 403 1264 400 1263 q 418 1261 411 1271 l 542 1065 q 540 1051 547 1057 q 524 1050 532 1043 l 524 1051 q 508 1066 518 1057 q 469 1102 499 1075 q 408 1157 440 1129 q 299 1050 361 1108 q 285 1049 292 1044 m 832 22 q 843 11 843 22 q 832 0 843 0 l 688 0 q 676 11 676 0 q 688 22 676 22 l 700 22 l 585 299 l 164 299 l 56 22 l 75 22 q 88 11 88 22 q 75 0 88 0 l 3 0 q -8 11 -8 0 q 3 22 -8 22 l 32 22 l 144 314 q 146 315 146 314 l 356 854 q 357 856 356 856 l 399 965 l 400 965 l 400 967 l 400 967 l 400 968 l 401 968 l 401 969 l 403 969 l 404 971 l 404 971 l 406 971 l 406 972 l 407 972 l 407 972 l 408 972 l 410 972 l 411 972 l 411 972 l 413 972 l 414 972 l 414 971 l 414 971 l 414 971 l 414 971 l 415 971 l 415 971 q 417 971 415 971 l 417 969 l 417 969 l 417 969 l 417 969 l 417 969 l 417 969 q 419 965 419 968 l 692 315 q 692 314 692 314 l 814 22 l 832 22 m 172 321 l 575 321 l 367 821 l 172 321 z "},"":{"ha":836,"x_min":-10,"x_max":844,"o":"m 326 1085 q 311 1081 321 1075 q 307 1097 301 1088 q 325 1119 315 1110 q 376 1146 349 1143 q 422 1133 400 1147 q 438 1121 431 1128 q 456 1103 444 1114 q 472 1085 465 1090 q 488 1075 478 1081 q 507 1072 497 1069 q 529 1083 517 1074 q 544 1082 538 1090 q 543 1065 551 1074 q 500 1048 521 1047 q 468 1058 479 1049 q 439 1088 457 1067 q 422 1104 428 1100 q 410 1114 417 1110 q 378 1124 394 1124 q 342 1104 358 1122 q 326 1085 333 1096 m 832 22 q 843 11 843 22 q 832 0 843 0 l 688 0 q 676 11 676 0 q 688 22 676 22 l 700 22 l 585 299 l 164 299 l 56 22 l 75 22 q 88 11 88 22 q 75 0 88 0 l 3 0 q -8 11 -8 0 q 3 22 -8 22 l 32 22 l 144 314 q 146 315 146 314 l 356 854 q 357 856 356 856 l 399 965 l 400 965 l 400 967 l 400 967 l 400 968 l 401 968 l 401 968 l 401 969 l 403 969 l 403 969 l 404 971 l 404 971 l 406 971 l 406 972 l 407 972 l 407 972 l 408 972 l 410 972 l 411 972 l 411 972 l 413 972 l 414 972 l 414 971 l 414 971 l 414 971 l 414 971 l 415 971 l 415 971 q 417 969 415 971 l 417 969 l 417 969 l 417 969 l 417 969 l 417 969 q 419 965 419 968 l 692 315 q 692 314 692 314 l 814 22 l 832 22 m 172 321 l 575 321 l 367 821 l 172 321 z "},"":{"ha":836,"x_min":-8,"x_max":844,"o":"m 534 1063 q 526 1055 534 1063 q 495 1047 518 1047 q 456 1063 472 1047 q 440 1102 440 1079 q 456 1142 440 1125 q 495 1158 472 1158 q 534 1142 518 1158 q 550 1102 550 1125 q 534 1063 550 1079 m 324 1063 q 316 1055 324 1063 q 285 1047 308 1047 q 246 1063 263 1047 q 229 1102 229 1079 q 246 1141 229 1125 q 285 1157 263 1157 q 324 1141 307 1157 q 340 1102 340 1125 q 324 1063 340 1079 m 832 22 q 843 11 843 22 q 832 0 843 0 l 688 0 q 676 11 676 0 q 688 22 676 22 l 700 22 l 585 299 l 164 299 l 56 22 l 75 22 q 88 11 88 22 q 75 0 88 0 l 3 0 q -8 11 -8 0 q 3 22 -8 22 l 32 22 l 144 314 q 146 315 146 314 l 356 854 q 357 856 356 856 l 399 965 l 400 967 l 400 967 l 400 968 l 401 968 l 401 968 l 401 969 l 403 969 l 403 969 l 404 971 l 404 971 l 406 971 l 406 972 l 407 972 l 407 972 l 408 972 l 410 972 l 411 972 l 411 972 l 413 972 l 414 972 l 414 971 l 414 971 l 414 971 l 414 971 l 415 971 l 415 971 q 417 969 415 971 l 417 969 l 417 969 l 417 969 l 417 969 l 417 969 q 419 965 419 968 l 692 315 q 692 314 692 314 l 814 22 l 832 22 m 172 321 l 575 321 l 367 821 l 172 321 z "},"":{"ha":836,"x_min":-8,"x_max":844,"o":"m 340 1086 q 331 1121 332 1101 q 331 1158 328 1140 q 386 1218 340 1213 q 456 1175 431 1224 q 467 1140 464 1158 q 467 1104 469 1121 q 413 1049 457 1057 q 340 1086 364 1040 m 353 1154 q 352 1124 350 1139 q 361 1096 354 1108 q 408 1071 376 1065 q 444 1108 438 1076 q 445 1136 447 1121 q 436 1164 443 1151 q 388 1196 418 1199 q 353 1154 360 1193 m 832 22 q 843 11 843 22 q 832 0 843 0 l 688 0 q 676 11 676 0 q 688 22 676 22 l 700 22 l 585 299 l 164 299 l 56 22 l 75 22 q 88 11 88 22 q 75 0 88 0 l 3 0 q -8 11 -8 0 q 3 22 -8 22 l 32 22 l 144 314 q 146 315 146 314 l 356 854 q 357 856 356 856 l 399 965 l 400 967 l 400 967 l 400 968 l 401 968 l 401 968 l 401 969 l 403 969 l 404 971 l 404 971 l 406 971 l 406 971 l 406 972 l 407 972 l 407 972 l 408 972 l 410 972 l 411 972 l 411 972 l 413 972 l 414 972 l 414 971 l 414 971 l 414 971 l 414 971 l 415 971 l 415 971 q 417 971 415 971 l 417 969 l 417 969 l 417 969 l 417 969 l 417 969 l 417 969 q 419 965 419 968 l 692 315 q 692 314 692 314 l 814 22 l 832 22 m 172 321 l 575 321 l 367 821 l 172 321 z "},"":{"ha":1279,"x_min":-12,"x_max":1246,"o":"m 978 950 q 974 950 978 950 q 965 950 971 950 q 949 950 958 950 q 926 950 939 950 q 897 950 913 950 q 861 950 882 950 q 817 950 840 950 q 765 950 794 950 q 706 950 736 950 l 706 554 l 938 554 q 1040 578 1017 557 q 1075 683 1067 600 q 1086 693 1075 693 q 1097 682 1097 693 l 1097 404 q 1086 393 1097 393 q 1075 404 1075 393 q 1040 510 1067 486 q 938 532 1017 529 l 706 532 l 706 22 q 827 22 769 22 q 923 22 885 22 q 989 22 961 22 q 1031 22 1017 22 q 1046 22 1046 22 l 1057 22 q 1172 68 1131 25 q 1224 197 1214 111 q 1235 208 1224 208 q 1246 196 1246 208 l 1246 11 q 1235 0 1246 0 l 1054 0 q 1051 0 1053 0 l 1046 0 q 990 0 1046 0 q 849 0 935 0 q 696 0 764 0 l 576 0 q 564 11 564 0 q 576 22 564 22 l 601 22 l 601 299 l 224 299 l 57 22 l 72 22 q 85 11 85 22 q 72 0 85 0 l 0 0 q -11 11 -11 0 q 0 22 -11 22 l 31 22 l 208 315 q 208 317 208 317 l 593 950 l 576 950 q 564 961 564 950 q 576 972 564 972 l 696 972 q 758 972 726 972 q 817 972 790 972 q 868 972 843 972 q 913 972 893 972 q 946 972 932 972 q 968 972 960 972 q 978 972 976 972 l 1051 972 q 1054 972 1053 972 l 1235 972 q 1246 961 1246 972 l 1246 776 q 1235 765 1246 765 q 1224 775 1224 765 q 1172 904 1214 861 q 1057 950 1131 947 l 978 950 m 601 321 l 601 921 l 238 321 l 601 321 z "},"":{"ha":867,"x_min":29,"x_max":842,"o":"m 814 231 q 828 238 818 242 q 836 224 839 235 q 711 60 806 119 q 531 1 633 10 q 500 0 515 0 q 494 -62 501 -26 q 531 -60 511 -60 q 629 -104 601 -54 q 640 -157 643 -128 q 617 -207 636 -186 q 501 -233 576 -254 q 493 -219 490 -231 q 506 -211 496 -210 q 572 -189 553 -219 q 582 -154 581 -174 q 576 -118 583 -136 q 532 -82 563 -81 l 531 -82 q 485 -87 503 -82 q 469 -82 475 -93 q 469 -75 468 -78 q 478 0 479 -29 q 231 74 340 3 q 68 274 121 144 q 31 475 31 368 q 68 679 31 582 q 188 858 110 783 q 375 961 265 933 q 557 974 461 986 q 726 911 653 961 q 839 740 825 844 q 839 738 839 739 q 806 647 840 674 q 779 638 793 639 q 756 647 765 638 q 742 707 735 665 q 742 710 742 708 q 751 747 749 725 q 753 789 756 771 q 674 908 746 863 q 492 954 603 954 q 297 872 378 944 q 175 688 215 799 q 139 469 138 585 q 179 257 139 354 q 316 80 225 144 q 524 24 407 15 q 700 79 624 31 q 814 231 786 135 z "},"":{"ha":757,"x_min":40,"x_max":724,"o":"m 454 950 q 451 950 454 950 q 441 950 447 950 q 426 950 435 950 q 403 950 417 950 q 374 950 390 950 q 338 950 358 950 q 294 950 317 950 q 243 950 272 950 q 183 950 214 950 l 183 554 l 415 554 q 517 578 493 557 q 551 682 543 600 q 564 693 553 693 q 575 682 575 693 l 575 404 q 564 393 575 393 q 551 404 553 393 q 517 510 543 486 q 415 532 493 529 l 183 532 l 183 22 q 303 22 246 22 q 399 22 361 22 q 466 22 438 22 q 508 22 494 22 q 522 22 522 22 l 533 22 q 649 68 608 25 q 700 197 692 111 q 711 207 700 207 q 722 196 722 207 l 722 11 q 711 0 722 0 l 531 0 q 529 0 529 0 l 522 0 q 500 0 522 0 q 441 0 478 0 q 361 0 404 0 q 267 0 318 0 q 172 0 215 0 l 172 0 l 53 0 q 42 11 42 0 q 53 22 42 22 l 78 22 l 78 950 l 53 950 q 42 961 42 950 q 53 972 42 972 l 172 972 q 259 972 215 972 q 336 972 303 972 q 397 972 369 972 q 439 972 424 972 q 454 972 454 972 l 529 972 q 531 972 531 972 l 711 972 q 722 961 722 972 l 722 776 q 711 764 722 764 q 700 775 700 764 q 649 904 692 861 q 533 950 608 947 l 454 950 m 331 1107 q 299 1158 308 1133 q 299 1208 288 1189 q 308 1219 303 1215 q 311 1222 310 1221 q 332 1225 321 1226 q 371 1206 353 1225 q 397 1163 386 1189 q 415 1058 418 1114 q 403 1047 414 1047 q 397 1049 400 1047 q 331 1107 361 1069 z "},"":{"ha":757,"x_min":40,"x_max":724,"o":"m 454 950 q 449 950 454 950 q 433 950 443 950 q 407 950 422 950 q 369 950 392 950 q 321 950 347 950 q 258 950 294 950 q 183 950 222 950 l 183 554 l 415 554 q 517 578 493 557 q 551 682 543 600 q 563 693 553 693 q 575 682 575 693 l 575 404 q 563 393 575 393 q 551 404 553 393 q 517 510 543 486 q 415 532 493 529 l 183 532 l 183 22 q 303 22 246 22 q 399 22 361 22 q 466 22 438 22 q 508 22 494 22 q 522 22 522 22 l 533 22 q 649 68 608 25 q 700 197 692 111 q 711 207 700 207 q 722 196 722 207 l 722 11 q 711 0 722 0 l 531 0 q 529 0 529 0 l 522 0 q 510 0 522 0 q 478 0 499 0 q 431 0 457 0 q 373 0 406 0 q 308 0 340 0 q 240 0 276 0 q 172 0 204 0 l 172 0 l 53 0 q 42 11 42 0 q 53 22 42 22 l 78 22 l 78 950 l 53 950 q 42 961 42 950 q 53 972 42 972 l 172 972 q 258 972 214 972 q 336 972 303 972 q 397 972 369 972 q 439 972 424 972 q 454 972 454 972 l 529 972 q 531 972 531 972 l 711 972 q 722 961 722 972 l 722 776 q 711 764 722 764 q 700 775 700 764 q 649 904 692 861 q 533 950 608 947 l 454 950 m 378 1047 q 367 1058 367 1047 q 383 1163 364 1114 q 411 1206 394 1190 q 449 1225 429 1225 q 469 1222 460 1226 q 472 1219 471 1221 q 482 1208 479 1215 q 482 1158 493 1189 q 451 1107 474 1133 q 383 1049 421 1069 q 378 1047 381 1047 z "},"":{"ha":757,"x_min":40,"x_max":724,"o":"m 279 1049 q 275 1064 269 1054 l 393 1260 q 396 1264 394 1263 q 411 1261 406 1269 l 536 1065 q 535 1051 540 1057 q 518 1050 526 1043 q 403 1157 504 1067 q 293 1050 356 1108 q 279 1049 286 1044 m 454 950 q 449 950 454 950 q 433 950 443 950 q 407 950 422 950 q 369 950 392 950 q 321 950 347 950 q 258 950 294 950 q 183 950 222 950 l 183 554 l 415 554 q 517 578 493 557 q 551 682 543 600 q 564 693 553 693 q 575 682 575 693 l 575 404 q 564 393 575 393 q 551 404 553 393 q 517 510 543 486 q 415 532 493 529 l 183 532 l 183 22 q 303 22 246 22 q 399 22 361 22 q 466 22 438 22 q 508 22 494 22 q 524 22 522 22 l 533 22 q 649 68 608 25 q 700 197 692 111 q 711 207 700 207 q 722 196 722 207 l 722 11 q 711 0 722 0 l 531 0 q 529 0 529 0 l 522 0 q 500 0 522 0 q 441 0 478 0 q 361 0 404 0 q 267 0 318 0 q 172 0 215 0 l 172 0 l 53 0 q 42 11 42 0 q 53 22 42 22 l 78 22 l 78 950 l 53 950 q 42 961 42 950 q 53 972 42 972 l 172 972 q 258 972 214 972 q 336 972 303 972 q 397 972 369 972 q 439 972 424 972 q 454 972 454 972 l 529 972 q 531 972 531 972 l 711 972 q 722 961 722 972 l 722 776 q 711 764 722 764 q 700 775 700 764 q 649 904 692 861 q 533 950 608 947 l 454 950 z "},"":{"ha":757,"x_min":40,"x_max":724,"o":"m 454 950 q 449 950 454 950 q 433 950 443 950 q 407 950 422 950 q 369 950 392 950 q 321 950 347 950 q 258 950 294 950 q 183 950 222 950 l 183 554 l 415 554 q 517 578 493 557 q 551 682 543 600 q 563 693 553 693 q 575 682 575 693 l 575 404 q 563 393 575 393 q 551 404 553 393 q 517 510 543 486 q 415 532 493 529 l 183 532 l 183 22 q 303 22 246 22 q 399 22 361 22 q 466 22 438 22 q 508 22 494 22 q 522 22 522 22 l 533 22 q 649 68 608 25 q 700 197 692 111 q 711 207 700 207 q 722 196 722 207 l 722 11 q 711 0 722 0 l 531 0 q 529 0 529 0 l 522 0 q 500 0 522 0 q 441 0 478 0 q 361 0 404 0 q 267 0 318 0 q 172 0 215 0 l 172 0 l 53 0 q 42 11 42 0 q 53 22 42 22 l 78 22 l 78 950 l 53 950 q 42 961 42 950 q 53 972 42 972 l 172 972 q 259 972 215 972 q 336 972 303 972 q 397 972 369 972 q 439 972 424 972 q 454 972 454 972 l 529 972 q 531 972 531 972 l 711 972 q 722 961 722 972 l 722 776 q 711 764 722 764 q 700 775 700 764 q 649 904 692 861 q 533 950 608 947 l 454 950 m 531 1063 q 522 1055 531 1063 q 491 1047 514 1047 q 452 1063 468 1047 q 436 1102 436 1079 q 453 1141 436 1125 q 492 1157 469 1157 q 531 1141 514 1157 q 547 1102 547 1125 q 531 1063 547 1079 m 320 1063 q 312 1055 320 1063 q 281 1047 304 1047 q 242 1063 258 1047 q 226 1102 226 1079 q 242 1141 226 1125 q 281 1157 258 1157 q 320 1141 304 1157 q 336 1102 336 1125 q 320 1063 336 1079 z "},"":{"ha":263,"x_min":40,"x_max":221,"o":"m 208 22 q 219 11 219 22 q 208 0 219 0 l 53 0 q 42 11 42 0 q 53 22 42 22 l 78 22 l 78 950 l 53 950 q 42 961 42 950 q 53 972 42 972 l 208 972 q 219 961 219 972 q 208 950 219 950 l 183 950 l 183 22 l 208 22 m 107 1107 q 75 1160 85 1133 q 75 1208 64 1189 q 85 1221 79 1215 q 88 1222 86 1221 q 108 1225 97 1226 q 147 1206 129 1225 q 174 1163 163 1190 q 192 1058 194 1114 q 179 1047 190 1047 q 174 1049 176 1047 q 107 1107 138 1069 z "},"":{"ha":263,"x_min":40,"x_max":221,"o":"m 208 22 q 219 11 219 22 q 208 0 219 0 l 53 0 q 42 11 42 0 q 53 22 42 22 l 78 22 l 78 950 l 53 950 q 42 961 42 950 q 53 972 42 972 l 208 972 q 219 961 219 972 q 208 950 219 950 l 183 950 l 183 22 l 208 22 m 82 1047 q 71 1058 71 1047 q 88 1163 68 1114 q 115 1206 99 1190 q 153 1225 133 1225 q 174 1222 164 1226 q 176 1221 175 1221 q 186 1208 182 1215 q 186 1160 197 1189 q 156 1107 178 1135 q 88 1049 125 1069 q 82 1047 85 1047 z "},"":{"ha":264,"x_min":-6,"x_max":268,"o":"m 210 950 l 185 950 l 185 22 l 210 22 q 221 11 221 22 q 210 0 221 0 l 54 0 q 43 11 43 0 q 54 22 43 22 l 79 22 l 79 950 l 54 950 q 43 961 43 950 q 54 972 43 972 l 210 972 q 221 961 221 972 q 210 950 221 950 m 263 1065 q 261 1051 267 1057 q 244 1051 253 1043 q 128 1157 217 1079 q 19 1050 82 1108 q 6 1049 13 1044 q 1 1065 -4 1056 l 119 1260 q 122 1264 119 1263 q 138 1261 132 1271 l 263 1065 z "},"":{"ha":263,"x_min":-31,"x_max":292,"o":"m 208 950 l 183 950 l 183 22 l 208 22 q 219 11 219 22 q 208 0 219 0 l 53 0 q 42 11 42 0 q 53 22 42 22 l 79 22 l 79 950 l 53 950 q 42 961 42 950 q 53 972 42 972 l 208 972 q 219 961 219 972 q 208 950 219 950 m 236 1158 q 247 1158 236 1158 q 275 1142 258 1158 q 292 1102 292 1125 q 275 1063 292 1079 q 236 1047 258 1047 q 197 1064 214 1047 q 181 1103 181 1081 q 197 1142 181 1125 q 236 1158 214 1158 m 65 1142 q 73 1133 65 1142 q 81 1102 81 1125 q 65 1063 81 1079 q 26 1047 49 1047 q -13 1064 3 1047 q -29 1103 -29 1081 q -13 1142 -29 1125 q 26 1158 3 1158 q 65 1142 49 1158 z "},"":{"ha":928,"x_min":18,"x_max":897,"o":"m 861 686 q 896 488 896 592 q 860 289 896 383 q 857 282 858 286 q 854 275 856 278 q 850 267 853 271 q 847 260 849 264 q 844 252 846 256 q 840 245 842 249 q 836 238 839 242 q 833 231 836 236 q 829 223 831 226 q 825 217 828 219 q 821 210 822 213 q 817 203 819 207 q 813 196 814 199 q 808 189 811 194 q 803 182 806 186 q 799 176 801 179 q 794 169 796 172 q 789 163 792 167 q 783 157 785 158 l 782 156 l 778 150 q 774 144 775 147 q 763 132 768 138 q 756 127 760 131 q 751 121 753 124 l 750 121 q 745 115 749 118 q 739 110 742 113 q 733 104 738 108 q 726 100 729 101 l 726 99 q 721 94 724 96 l 719 94 q 714 89 717 92 q 707 83 711 86 q 701 81 706 82 l 700 79 q 693 75 697 76 q 676 63 685 68 l 672 61 q 665 57 668 58 q 651 49 658 53 l 650 49 q 611 32 632 39 l 611 31 q 586 22 599 26 q 553 13 569 17 l 551 13 q 533 10 543 11 l 533 8 q 497 3 515 6 l 494 3 q 486 3 492 3 l 485 3 q 478 1 482 1 l 475 1 q 446 0 461 0 q 435 0 440 0 q 422 0 433 0 q 392 0 411 0 q 347 0 372 0 q 284 0 321 0 q 208 0 247 0 l 207 0 l 89 0 q 78 11 78 0 q 89 22 78 22 l 114 22 l 114 724 l 49 724 q 27 731 36 724 q 18 747 18 738 q 27 764 18 757 q 49 771 36 771 l 114 771 l 114 950 l 89 950 q 78 961 78 950 q 89 972 78 972 l 178 972 q 442 972 413 972 q 633 933 547 972 q 774 832 719 894 q 861 686 829 769 m 750 292 q 776 490 779 385 q 743 688 775 594 q 626 878 704 806 q 442 950 549 950 q 218 950 306 950 l 218 771 l 338 771 q 350 769 344 771 q 360 765 356 768 q 367 757 364 761 q 369 747 369 753 q 360 731 369 738 q 338 724 350 724 l 218 724 l 218 22 q 435 22 397 22 q 635 100 554 26 q 750 292 715 174 z "},"":{"ha":804,"x_min":42,"x_max":763,"o":"m 751 22 q 763 11 763 22 q 751 0 763 0 l 619 0 q 608 7 613 0 l 100 918 l 100 22 l 125 22 q 138 11 138 22 q 125 0 138 0 l 53 0 q 42 11 42 0 q 53 22 42 22 l 78 22 l 78 950 l 58 950 q 47 961 47 950 q 58 972 47 972 l 183 972 q 193 965 190 972 l 701 54 l 701 950 l 676 950 q 665 961 665 950 q 676 972 665 972 l 750 972 q 761 961 761 972 q 750 950 761 950 l 725 950 l 725 22 l 751 22 m 303 1085 q 287 1081 296 1075 q 283 1097 278 1088 q 301 1119 292 1110 q 351 1146 324 1144 q 397 1133 375 1147 q 414 1121 407 1128 q 431 1103 419 1114 q 447 1085 442 1090 q 463 1075 453 1081 q 483 1072 472 1069 q 504 1083 493 1074 q 520 1082 513 1090 q 518 1065 528 1074 q 476 1048 496 1047 q 444 1058 456 1049 q 414 1088 433 1067 q 399 1104 403 1100 q 386 1114 393 1110 q 353 1124 369 1125 q 317 1104 335 1122 q 303 1085 310 1096 z "},"":{"ha":913,"x_min":28,"x_max":883,"o":"m 414 1107 q 382 1160 392 1135 q 382 1208 371 1189 q 392 1221 386 1215 q 394 1222 393 1221 q 415 1225 404 1226 q 454 1206 436 1225 q 481 1163 469 1190 q 499 1058 501 1114 q 486 1047 497 1047 q 481 1049 483 1047 q 414 1107 444 1069 m 758 829 q 883 486 883 688 q 758 143 883 285 q 566 17 676 50 q 346 17 456 -17 q 154 143 236 50 q 29 486 29 285 q 154 829 29 688 q 346 957 236 924 q 566 957 456 990 q 758 829 676 924 m 688 157 q 785 486 785 293 q 688 815 785 679 q 540 935 624 903 q 373 935 457 967 q 225 815 289 904 q 128 486 128 679 q 225 157 128 293 q 372 38 288 69 q 540 38 456 7 q 688 157 624 69 z "},"":{"ha":913,"x_min":29,"x_max":883,"o":"m 444 1047 q 433 1058 433 1047 q 451 1163 431 1114 q 478 1206 463 1190 q 517 1225 496 1225 q 536 1222 526 1226 q 539 1221 539 1221 q 549 1208 546 1215 q 549 1160 560 1189 q 518 1107 540 1135 q 450 1049 488 1069 q 444 1047 447 1047 m 758 829 q 883 486 883 688 q 758 143 883 285 q 566 17 676 50 q 346 17 456 -17 q 154 143 236 50 q 29 486 29 285 q 154 829 29 688 q 295 936 215 900 q 456 972 375 972 q 617 936 538 972 q 758 829 697 900 m 688 157 q 785 486 785 293 q 688 815 785 679 q 540 935 624 903 q 373 935 457 967 q 225 815 289 904 q 128 486 128 679 q 225 157 128 293 q 372 38 288 69 q 540 38 456 7 q 688 157 624 69 z "},"":{"ha":913,"x_min":29,"x_max":883,"o":"m 329 1049 q 325 1065 319 1056 l 443 1260 q 447 1264 444 1263 q 463 1261 456 1271 l 586 1065 q 585 1051 592 1057 q 568 1051 576 1043 q 453 1157 540 1079 q 343 1050 406 1108 q 329 1049 336 1044 m 758 829 q 883 486 883 688 q 758 143 883 285 q 566 17 676 50 q 346 17 456 -17 q 154 143 236 50 q 29 486 29 285 q 154 829 29 688 q 346 957 236 924 q 566 957 456 990 q 758 829 676 924 m 688 157 q 785 486 785 293 q 688 815 785 679 q 540 935 624 903 q 373 935 457 967 q 225 815 289 904 q 128 486 128 679 q 225 157 128 293 q 372 38 288 69 q 540 38 456 7 q 688 157 624 69 z "},"":{"ha":913,"x_min":29,"x_max":883,"o":"m 356 1085 q 340 1081 350 1075 q 338 1097 331 1088 q 354 1119 346 1110 q 406 1146 378 1144 q 451 1133 429 1147 q 468 1121 460 1128 q 485 1103 474 1114 q 498 1089 493 1093 q 510 1078 503 1085 q 525 1072 518 1072 q 540 1073 532 1071 q 558 1083 549 1075 q 574 1082 567 1090 q 572 1065 581 1074 q 529 1048 550 1047 q 498 1058 508 1049 q 468 1088 488 1067 q 453 1104 457 1099 q 440 1114 446 1110 q 407 1124 424 1125 q 371 1104 388 1122 q 356 1085 364 1096 m 758 829 q 883 486 883 688 q 758 143 883 285 q 566 15 676 49 q 346 15 456 -18 q 154 143 236 49 q 29 486 29 285 q 154 829 29 688 q 346 957 236 924 q 566 956 456 990 q 758 829 676 922 m 688 157 q 785 486 785 293 q 688 815 785 679 q 540 934 624 903 q 373 935 457 965 q 225 815 289 904 q 128 486 128 679 q 225 157 128 293 q 372 38 288 69 q 540 38 456 7 q 688 157 624 69 z "},"":{"ha":913,"x_min":29,"x_max":883,"o":"m 600 1064 q 592 1056 600 1064 q 560 1047 583 1047 q 522 1063 538 1047 q 506 1102 506 1079 q 522 1142 506 1125 q 561 1158 539 1158 q 600 1142 583 1158 q 617 1103 617 1125 q 600 1064 617 1081 m 758 829 q 883 486 883 688 q 758 143 883 285 q 566 15 676 49 q 346 15 456 -18 q 154 143 236 49 q 29 486 29 285 q 154 829 29 688 q 346 957 236 924 q 566 956 456 990 q 758 829 676 922 m 688 157 q 785 486 785 293 q 688 815 785 679 q 540 934 624 903 q 373 935 457 965 q 225 815 289 904 q 128 486 128 679 q 225 157 128 293 q 372 38 288 69 q 540 38 456 7 q 688 157 624 69 m 390 1063 q 382 1055 390 1063 q 351 1047 374 1047 q 312 1063 328 1047 q 296 1102 296 1079 q 312 1142 296 1125 q 351 1158 328 1158 q 390 1142 374 1158 q 406 1102 406 1125 q 390 1063 406 1079 z "},"":{"ha":499,"x_min":39,"x_max":458,"o":"m 269 486 l 447 308 q 447 288 458 299 q 426 288 436 276 l 249 465 l 72 288 q 51 288 61 276 q 50 308 40 299 l 228 486 l 50 663 q 51 685 40 674 q 72 685 61 696 l 249 507 l 426 685 q 447 685 436 696 q 447 663 458 674 l 269 486 z "},"":{"ha":914,"x_min":29,"x_max":885,"o":"m 760 829 q 885 486 885 688 q 760 143 885 285 q 501 2 651 19 q 226 78 350 -15 l 178 -7 q 158 -13 171 -21 q 151 7 144 -6 l 203 96 q 156 143 178 118 q 31 486 31 285 q 156 829 31 688 q 402 968 258 947 q 667 910 546 989 l 706 979 q 726 985 714 993 q 732 965 739 978 l 692 893 q 760 829 728 865 m 226 157 q 232 149 229 153 l 643 868 q 430 948 549 963 q 226 815 311 933 q 129 486 129 679 q 226 157 129 293 m 689 157 q 786 486 786 293 q 689 815 786 679 q 664 846 676 832 l 253 124 q 474 24 349 15 q 689 157 599 32 z "},"":{"ha":793,"x_min":31,"x_max":761,"o":"m 364 1107 q 332 1160 342 1133 q 332 1208 321 1189 q 342 1221 336 1215 q 344 1222 343 1221 q 365 1225 356 1226 q 404 1206 386 1225 q 431 1163 419 1190 q 449 1058 451 1114 q 436 1047 447 1047 q 431 1049 433 1047 q 364 1107 394 1069 m 750 972 q 761 961 761 972 q 750 950 761 950 l 725 950 l 725 389 q 672 163 725 256 q 535 26 619 69 q 453 -1 496 7 l 450 -1 l 449 -1 l 449 -1 l 446 -1 l 444 -3 l 444 -3 l 443 -3 l 443 -3 l 442 -3 l 440 -3 l 440 -3 l 439 -3 q 401 -6 419 -6 q 244 40 317 -6 q 240 43 242 42 l 239 43 q 235 46 236 46 l 235 46 l 233 47 l 231 49 l 229 50 q 228 51 229 50 q 225 53 226 53 l 224 54 l 222 56 q 218 58 219 57 l 217 60 l 214 61 l 211 64 l 208 65 l 208 67 q 71 374 86 169 l 71 375 l 71 381 l 69 382 l 69 386 l 69 390 l 69 396 l 69 399 q 69 407 69 403 l 69 407 q 69 417 69 411 q 68 426 68 422 l 68 950 l 43 950 q 32 961 32 950 q 43 972 32 972 l 199 972 q 210 961 210 972 q 199 950 210 950 l 174 950 l 174 413 q 175 378 174 396 q 256 103 185 193 q 440 21 322 18 q 450 21 443 21 q 524 47 489 29 q 653 175 604 88 q 701 389 701 263 l 701 950 l 676 950 q 665 961 665 950 q 676 972 665 972 l 750 972 z "},"":{"ha":793,"x_min":32,"x_max":761,"o":"m 393 1047 q 381 1058 382 1047 q 399 1163 379 1114 q 425 1206 410 1190 q 464 1225 444 1225 q 485 1222 475 1226 q 488 1221 486 1221 q 497 1208 493 1215 q 497 1160 508 1189 q 465 1107 488 1135 q 399 1049 436 1069 q 393 1047 396 1047 m 750 972 q 761 961 761 972 q 750 950 761 950 l 725 950 l 725 389 q 672 163 725 256 q 535 26 619 69 q 453 -1 496 7 l 450 -1 l 449 -1 l 449 -1 l 446 -1 l 444 -3 l 444 -3 l 443 -3 l 443 -3 l 442 -3 l 440 -3 l 440 -3 l 439 -3 q 401 -6 419 -6 q 244 40 317 -6 q 240 43 243 42 l 239 43 q 235 46 236 44 l 235 46 l 233 47 l 231 49 l 229 50 q 228 51 229 50 q 225 53 226 53 l 224 54 l 222 56 q 218 58 219 57 l 217 60 l 214 61 l 211 64 l 208 65 l 208 67 q 71 374 86 169 l 71 375 l 71 381 l 69 382 l 69 386 l 69 390 l 69 396 l 69 399 q 69 407 69 401 l 69 407 q 69 417 69 410 q 68 426 68 421 l 68 950 l 43 950 q 32 961 32 950 q 43 972 32 972 l 199 972 q 210 961 210 972 q 199 950 210 950 l 174 950 l 174 413 q 175 378 174 396 q 256 103 185 193 q 440 21 322 18 q 450 21 443 21 q 524 47 489 29 q 653 175 604 88 q 701 389 701 263 l 701 950 l 676 950 q 665 961 665 950 q 676 972 665 972 l 750 972 z "},"":{"ha":793,"x_min":31,"x_max":761,"o":"m 269 1049 q 267 1065 260 1056 l 383 1260 q 388 1264 385 1263 q 403 1261 396 1271 l 526 1065 q 525 1051 532 1057 q 510 1051 517 1043 q 393 1157 481 1079 q 283 1050 346 1108 q 269 1049 278 1044 m 750 972 q 761 961 761 972 q 750 950 761 950 l 725 950 l 725 389 q 672 163 725 256 q 535 26 619 69 q 453 -1 496 7 l 450 -1 l 449 -1 l 449 -1 l 446 -1 l 444 -3 l 444 -3 l 443 -3 l 443 -3 l 442 -3 l 440 -3 l 440 -3 l 439 -3 q 401 -6 419 -6 q 244 40 317 -6 q 240 43 243 42 l 239 43 q 235 46 236 44 l 235 46 l 233 47 l 231 49 l 229 50 q 228 51 229 50 q 225 53 226 53 l 224 54 l 222 56 q 218 58 219 57 l 217 60 l 214 61 l 211 64 l 208 65 l 208 67 q 115 192 151 115 q 71 374 78 269 l 71 375 l 71 381 l 69 382 l 69 386 l 69 390 l 69 396 l 69 399 q 69 407 69 400 l 69 407 q 69 417 69 414 q 68 426 68 421 l 68 950 l 43 950 q 32 961 32 950 q 43 972 32 972 l 199 972 q 210 961 210 972 q 199 950 210 950 l 174 950 l 174 413 q 175 378 174 396 q 256 103 185 193 q 439 21 322 18 q 450 21 443 21 q 524 47 489 29 q 653 175 604 88 q 701 389 701 263 l 701 950 l 676 950 q 665 961 665 950 q 676 972 665 972 l 750 972 z "},"":{"ha":793,"x_min":32,"x_max":761,"o":"m 501 1047 q 490 1047 501 1047 q 463 1063 479 1047 q 446 1102 446 1079 q 463 1142 446 1125 q 501 1158 479 1158 q 540 1142 524 1158 q 557 1102 557 1125 q 540 1063 557 1079 q 501 1047 524 1047 m 750 972 q 761 961 761 972 q 750 950 761 950 l 725 950 l 725 389 q 699 226 725 300 q 631 103 674 151 q 535 26 589 54 q 453 -1 496 7 l 450 -1 l 449 -1 l 449 -1 l 446 -1 l 444 -3 l 444 -3 l 443 -3 l 443 -3 l 442 -3 l 440 -3 l 440 -3 l 439 -3 q 401 -6 419 -6 q 244 40 317 -6 q 240 43 243 40 l 239 43 q 235 46 236 46 l 235 46 l 233 47 l 231 49 l 229 50 q 228 51 229 50 q 225 53 226 53 l 224 54 l 222 56 q 218 58 219 57 l 217 60 l 214 61 l 211 64 l 208 65 l 208 67 q 71 374 86 169 l 71 375 l 71 381 l 69 382 l 69 386 l 69 390 l 69 396 l 69 399 q 69 402 69 399 q 69 407 69 406 l 69 407 q 69 417 69 411 q 69 426 69 421 l 69 950 l 43 950 q 32 961 32 950 q 43 972 32 972 l 199 972 q 210 961 210 972 q 199 950 210 950 l 174 950 l 174 413 q 175 378 174 396 q 256 103 185 193 q 440 21 322 18 q 450 21 443 21 q 524 47 489 29 q 653 175 604 88 q 701 389 701 263 l 701 950 l 676 950 q 665 961 665 950 q 676 972 665 972 l 750 972 m 291 1047 q 280 1047 291 1047 q 252 1064 268 1047 q 236 1103 236 1081 q 252 1142 236 1125 q 291 1158 268 1158 q 330 1142 314 1158 q 346 1102 346 1125 q 330 1063 346 1079 q 291 1047 314 1047 z "},"":{"ha":831,"x_min":-11,"x_max":842,"o":"m 415 1047 q 404 1058 404 1047 q 421 1163 401 1114 q 449 1206 433 1190 q 488 1225 467 1225 q 507 1222 497 1226 q 510 1221 510 1221 q 519 1208 517 1215 q 519 1160 531 1189 q 489 1107 511 1135 q 421 1049 458 1069 q 415 1047 418 1047 m 829 972 q 840 961 840 972 q 829 950 840 950 l 806 950 l 485 431 l 485 22 l 515 22 q 526 11 526 22 q 515 0 526 0 l 349 0 q 338 11 338 0 q 349 22 338 22 l 381 22 l 381 411 l 21 950 l 0 950 q -11 961 -11 950 q 0 972 -11 972 l 167 972 q 178 961 178 972 q 167 950 178 950 l 146 950 l 400 569 q 401 568 401 568 l 475 457 l 779 950 l 757 950 q 746 961 746 950 q 757 972 746 972 l 829 972 z "},"":{"ha":681,"x_min":61,"x_max":663,"o":"m 647 294 q 651 196 663 247 l 650 194 l 650 193 l 650 190 l 649 188 l 649 186 l 649 185 l 649 183 l 647 182 l 647 181 l 647 179 l 646 176 l 646 174 l 644 172 l 644 171 l 643 169 l 643 168 l 643 167 l 642 165 l 642 164 l 640 163 l 640 161 l 640 160 l 638 156 l 638 153 l 636 151 l 635 149 l 635 147 l 633 146 l 633 144 l 632 143 l 631 140 l 631 139 l 629 138 l 629 136 l 628 135 l 626 133 l 626 132 l 625 129 l 624 128 l 622 125 l 621 124 l 619 121 l 618 119 l 617 117 l 615 115 l 614 113 l 613 111 l 611 108 l 610 107 l 608 104 l 607 103 q 497 21 565 49 q 346 3 429 -7 q 336 15 335 4 q 349 25 338 26 l 351 25 q 518 104 460 13 q 551 194 543 144 q 554 292 561 243 q 521 378 546 342 q 456 425 496 414 l 449 426 q 400 440 417 435 q 361 453 383 444 q 327 476 339 463 q 311 506 315 489 q 326 551 306 533 q 394 590 347 568 l 396 590 q 464 703 446 619 q 471 785 474 743 q 456 865 469 829 q 363 953 426 939 l 361 954 l 360 954 l 358 954 l 356 954 l 354 954 l 353 954 l 351 954 l 350 956 l 349 956 l 347 956 l 346 956 l 339 956 q 212 922 256 956 q 167 822 168 888 q 167 714 167 778 q 167 711 167 713 l 167 14 q 156 3 167 3 l 74 3 q 63 14 63 3 l 63 765 l 63 768 q 65 806 63 788 l 67 806 q 67 810 67 806 q 68 814 67 810 q 68 818 68 817 l 68 819 q 69 822 69 821 l 69 824 q 71 826 69 824 l 71 828 q 72 831 71 829 l 72 832 q 75 839 74 835 l 76 843 q 78 847 78 846 l 79 850 l 79 851 l 81 854 l 81 856 l 82 858 l 83 858 l 85 863 l 86 865 l 86 867 l 89 868 l 89 869 l 90 872 l 90 874 l 92 875 l 93 876 l 94 879 l 97 882 l 97 883 l 99 886 l 100 886 q 101 889 100 888 l 104 892 l 104 893 q 107 894 106 894 l 107 896 l 108 899 l 110 899 l 111 901 l 113 901 l 114 904 l 115 904 l 117 907 l 118 907 l 119 910 l 121 910 l 122 913 l 124 913 l 125 915 l 128 918 l 129 918 l 131 919 l 132 921 l 133 922 l 135 924 l 138 925 l 140 928 l 142 928 l 143 929 l 144 931 l 147 932 l 147 933 l 150 935 l 151 935 l 153 936 l 156 938 l 157 939 l 158 939 l 160 940 l 161 940 q 167 944 164 943 l 171 946 l 174 949 l 175 949 l 178 950 l 182 951 l 185 953 l 189 956 l 193 957 l 196 958 l 199 958 l 200 960 l 204 961 l 208 963 l 213 964 q 336 979 269 982 q 458 950 403 975 q 525 909 497 933 q 570 851 553 885 q 588 781 588 818 l 588 779 q 588 775 588 778 l 588 772 l 588 769 l 588 768 l 588 765 l 588 764 l 588 761 l 588 760 q 586 756 588 758 q 586 751 586 753 q 585 746 586 747 q 585 742 585 743 q 583 736 583 739 q 582 732 583 736 q 581 727 582 729 q 579 724 581 725 q 578 719 579 721 q 576 714 578 717 q 575 710 576 714 q 574 706 574 708 q 572 703 572 703 q 569 698 571 700 q 567 694 568 696 q 565 690 567 693 q 564 688 564 688 q 561 683 563 685 q 560 679 560 681 q 557 676 557 676 q 554 673 556 675 q 551 669 553 671 q 549 666 550 668 q 547 663 549 664 q 544 660 544 661 q 542 657 543 658 q 538 653 539 654 q 535 650 538 653 l 532 647 q 529 644 531 646 q 526 642 528 643 q 524 639 525 640 q 521 636 522 638 l 517 633 l 514 632 q 511 629 513 631 l 507 626 l 504 624 l 500 621 l 497 619 l 494 617 l 490 615 l 488 613 l 483 610 l 481 608 l 476 606 l 469 601 l 465 600 l 463 599 l 458 596 l 451 593 l 449 590 l 444 589 l 440 588 l 433 583 l 426 581 l 424 579 l 417 575 l 413 574 l 410 572 l 406 571 q 393 565 399 567 q 345 537 360 549 q 333 511 331 525 q 358 482 338 494 q 397 464 378 469 q 454 449 415 458 l 461 447 l 465 446 q 471 444 467 446 l 476 443 l 481 442 q 485 440 482 442 q 490 439 488 439 l 494 438 q 499 436 496 436 l 504 433 l 508 432 l 513 431 l 517 429 l 521 426 l 525 425 l 529 424 l 533 421 l 536 419 l 540 418 l 544 415 l 547 414 l 551 411 l 556 410 l 558 407 q 563 404 560 406 l 565 403 l 568 400 l 572 399 l 575 396 l 578 393 l 582 390 l 585 389 l 588 386 l 590 383 q 591 383 590 383 q 593 381 592 382 l 596 378 l 599 376 q 601 374 600 374 l 603 371 l 606 368 l 608 365 q 609 364 608 365 q 611 363 610 363 l 613 360 l 615 357 l 617 354 l 619 351 l 621 349 l 624 346 l 625 343 l 626 340 q 629 338 628 339 l 631 335 l 632 331 l 633 328 l 636 325 l 638 322 l 639 319 l 640 317 l 642 313 l 642 310 q 643 310 643 310 q 643 307 643 308 l 644 304 l 646 301 l 647 297 l 647 294 z "},"":{"ha":635,"x_min":28,"x_max":606,"o":"m 349 817 q 317 869 326 844 q 317 918 306 899 q 326 931 321 925 q 329 932 328 931 q 350 936 339 936 q 388 915 369 935 q 415 872 404 900 q 432 768 435 824 q 421 757 432 757 q 415 760 418 757 q 349 817 378 781 m 593 22 q 604 11 604 22 q 593 0 604 0 l 475 0 q 463 11 463 0 l 463 97 q 400 33 439 58 q 241 -3 332 -10 q 90 54 150 3 l 88 56 l 86 58 l 83 61 q 81 64 82 63 l 78 67 q 76 68 78 67 l 74 71 q 71 74 74 72 q 29 190 29 125 l 29 192 l 29 193 l 29 194 l 29 196 l 29 197 l 29 199 l 29 200 l 29 201 l 31 203 l 31 204 l 31 206 l 31 207 l 31 210 l 31 211 l 31 213 l 32 214 l 32 215 l 32 218 l 32 221 l 33 222 l 33 224 l 33 225 l 33 226 l 35 229 l 35 231 l 35 232 l 36 233 l 36 235 l 36 236 l 36 238 l 38 240 l 38 242 l 39 244 l 39 246 l 40 247 l 40 249 l 40 250 l 42 251 l 43 254 l 43 256 l 43 257 l 44 258 l 44 260 l 46 261 l 47 264 q 143 358 78 328 q 290 390 208 389 l 463 390 l 463 415 q 463 431 463 424 q 419 603 461 544 q 296 663 378 663 l 290 663 q 256 658 272 661 q 188 617 208 647 q 172 542 167 588 q 168 486 182 508 q 144 469 158 474 q 133 468 139 468 q 125 468 129 468 q 96 488 107 472 q 85 529 85 504 q 149 638 85 590 q 251 681 192 669 q 289 685 269 683 l 290 685 q 315 685 303 685 l 317 685 l 318 685 l 318 685 l 319 685 l 322 685 q 504 608 438 678 q 568 425 568 540 l 568 22 l 593 22 m 463 147 l 463 367 l 290 367 q 196 338 235 367 q 139 264 157 310 q 126 175 122 221 q 157 92 131 128 q 356 36 218 8 q 388 53 372 43 q 463 147 440 86 z "},"":{"ha":635,"x_min":28,"x_max":606,"o":"m 296 757 q 285 768 285 757 q 303 872 282 824 q 329 915 314 900 q 368 936 347 935 q 388 932 378 936 q 390 931 390 931 q 400 918 397 925 q 400 869 411 899 q 369 817 392 844 q 301 760 339 781 q 296 757 300 757 m 593 22 q 604 11 604 22 q 593 0 604 0 l 475 0 q 463 11 463 0 l 463 97 q 400 35 439 58 q 241 -3 332 -8 q 90 54 150 3 l 88 57 l 86 58 l 83 61 q 81 64 82 63 l 78 67 q 76 68 78 67 l 74 71 q 71 74 74 72 q 29 190 29 125 l 29 192 l 29 193 l 29 194 l 29 196 l 29 199 l 29 201 l 29 203 l 31 204 l 31 206 l 31 207 l 31 210 l 31 211 l 31 213 l 31 214 l 32 217 l 32 218 l 32 221 l 32 222 l 33 224 l 33 225 l 33 226 l 35 229 l 35 231 l 35 232 l 36 235 l 36 236 l 36 238 l 38 240 l 38 243 l 39 244 l 39 246 l 39 247 l 40 247 l 40 250 l 42 251 l 42 254 l 43 256 l 43 257 l 44 258 l 44 260 l 46 261 l 47 264 q 143 358 78 328 q 290 390 208 389 l 463 390 l 463 415 q 463 431 463 424 q 419 603 460 544 q 296 663 378 663 l 290 663 q 256 658 272 661 q 188 617 208 647 q 172 542 167 588 q 167 486 182 508 q 144 469 158 474 q 133 468 139 468 q 125 468 129 468 q 96 488 107 472 q 85 529 85 504 q 149 638 85 590 q 250 681 192 669 l 251 681 q 289 685 269 683 l 290 685 q 315 685 303 685 l 317 685 l 318 685 l 318 685 l 319 685 l 321 685 l 322 685 q 503 608 438 678 q 568 425 568 540 l 568 22 l 593 22 m 463 147 l 463 367 l 290 367 q 196 338 235 367 q 139 264 157 310 q 126 175 122 221 q 157 92 131 128 q 356 36 218 8 q 388 53 372 43 q 463 147 439 86 z "},"":{"ha":635,"x_min":28,"x_max":606,"o":"m 213 758 q 208 775 203 765 l 325 971 q 329 974 326 972 q 344 971 339 981 l 468 775 q 467 761 474 767 q 451 761 460 753 q 335 867 422 789 q 225 760 288 818 q 213 758 219 754 m 593 22 q 604 11 604 22 q 593 0 604 0 l 475 0 q 463 11 463 0 l 463 97 q 400 35 439 58 q 241 -3 332 -8 q 90 54 150 3 l 88 57 l 86 58 l 83 61 q 81 64 82 63 l 78 67 q 76 68 78 67 l 74 71 q 71 74 74 72 q 29 190 29 125 l 29 192 l 29 193 l 29 194 l 29 197 l 29 199 l 29 200 l 29 201 l 29 203 l 31 204 l 31 206 l 31 207 l 31 210 l 31 211 l 31 213 l 31 214 l 32 217 l 32 218 l 32 221 l 32 222 l 33 224 l 33 225 l 33 226 l 35 229 l 35 231 l 35 232 l 36 235 l 36 236 l 36 238 l 38 240 l 38 242 l 39 244 l 39 246 l 39 247 l 40 247 l 40 250 l 42 251 l 42 254 l 43 256 l 43 257 l 44 258 l 44 260 l 46 261 l 47 264 q 106 336 67 307 q 192 377 146 365 q 290 390 238 389 l 463 390 l 463 415 q 463 431 463 425 q 419 603 460 544 q 296 663 378 663 l 290 663 q 254 658 272 661 q 188 617 208 647 q 172 542 167 588 q 167 486 182 508 q 144 469 158 474 q 133 468 139 468 q 125 468 129 468 q 96 488 107 472 q 85 529 85 504 q 149 638 85 590 q 250 681 192 669 l 251 681 q 289 685 269 683 q 315 685 303 685 l 317 685 l 318 685 l 318 685 l 319 685 l 322 685 q 503 608 438 678 q 568 425 568 540 l 568 22 l 593 22 m 463 147 l 463 367 l 290 367 q 196 338 235 367 q 139 264 157 310 q 126 175 122 221 q 157 92 131 128 q 356 36 218 8 q 388 53 372 43 q 463 147 439 86 z "},"":{"ha":635,"x_min":28,"x_max":606,"o":"m 593 22 q 604 11 604 22 q 593 0 604 0 l 475 0 q 463 11 463 0 l 463 97 q 400 35 439 58 q 241 -3 332 -8 q 90 54 150 3 l 88 57 l 86 58 l 83 61 q 81 64 82 63 l 78 67 q 76 68 78 67 l 74 71 q 71 74 74 72 q 29 190 29 125 l 29 192 l 29 193 l 29 194 l 29 196 l 29 199 l 29 201 l 29 203 l 31 204 l 31 206 l 31 207 l 31 210 l 31 211 l 31 213 l 31 214 l 32 217 l 32 218 l 32 221 l 32 222 l 33 224 l 33 225 l 33 226 l 35 229 l 35 231 l 35 232 l 36 235 l 36 236 l 36 238 l 38 240 l 38 243 l 39 244 l 39 246 l 39 247 l 40 247 l 40 250 l 42 251 l 42 254 l 43 256 l 43 257 l 44 258 l 44 260 l 46 261 l 47 264 q 106 336 67 307 q 192 377 146 365 q 290 390 238 389 l 463 390 l 463 415 q 463 431 463 425 q 419 603 460 544 q 296 663 378 663 l 290 663 q 254 658 272 661 q 188 617 208 647 q 172 542 167 588 q 167 486 182 508 q 144 469 158 474 q 133 468 139 468 q 125 468 129 468 q 96 488 107 472 q 85 529 85 504 q 149 638 85 590 q 250 681 192 669 l 251 681 q 289 685 269 683 q 315 685 303 685 l 317 685 l 318 685 l 319 685 l 322 685 q 503 608 438 678 q 568 425 568 540 l 568 22 l 593 22 m 463 147 l 463 367 l 290 367 q 196 338 235 367 q 139 264 157 310 q 126 175 122 221 q 157 92 131 128 q 356 36 218 8 q 388 53 372 43 q 463 147 439 86 m 197 794 q 182 791 192 785 q 178 807 172 797 q 196 829 186 819 q 247 856 219 854 q 293 843 271 857 q 308 831 301 838 q 326 813 315 825 q 339 799 335 803 q 351 788 343 794 q 366 781 360 782 q 381 783 372 781 q 399 793 390 785 q 415 792 407 800 q 414 776 422 783 q 381 757 396 761 q 353 760 367 753 q 331 774 339 767 q 310 797 324 782 q 293 814 299 810 q 281 824 288 819 q 249 833 264 835 q 213 814 229 832 q 197 794 204 806 z "},"":{"ha":635,"x_min":28,"x_max":606,"o":"m 451 774 q 443 765 451 774 q 412 757 435 757 q 373 774 389 757 q 357 813 357 790 q 373 851 357 835 q 412 868 389 868 q 451 851 435 868 q 467 813 467 835 q 451 774 467 790 m 240 774 q 232 765 240 774 q 201 757 224 757 q 163 774 179 757 q 146 813 146 790 q 163 851 146 835 q 201 868 179 868 q 240 851 224 868 q 257 813 257 835 q 240 774 257 790 m 593 22 q 604 11 604 22 q 593 0 604 0 l 475 0 q 463 11 463 0 l 463 97 q 400 35 439 58 q 241 -3 332 -8 q 90 54 150 3 l 88 57 l 86 58 l 83 61 q 81 64 82 63 l 78 67 q 76 68 78 67 l 74 71 q 71 74 74 72 q 29 190 29 125 l 29 193 l 29 194 l 29 196 l 29 199 l 29 200 l 29 201 l 29 203 l 31 204 l 31 206 l 31 207 l 31 210 l 31 211 l 31 214 l 32 217 l 32 218 l 32 221 l 32 222 l 33 224 l 33 225 l 33 226 l 35 229 l 35 231 l 35 232 l 36 235 l 36 236 l 36 238 l 38 240 l 38 242 l 39 244 l 39 246 l 39 247 l 40 247 l 40 250 l 42 251 l 42 254 l 43 256 l 43 257 l 44 258 l 44 260 l 46 261 l 47 264 q 106 336 67 307 q 192 377 146 365 q 290 390 238 389 l 463 390 l 463 415 q 463 431 463 425 q 419 603 460 544 q 296 663 378 663 l 290 663 q 256 658 272 661 q 188 617 208 647 q 172 542 167 588 q 167 486 182 508 q 144 469 158 474 q 133 468 139 468 q 125 468 129 468 q 96 488 107 472 q 85 529 85 504 q 149 638 85 590 q 250 681 192 669 l 251 681 q 289 685 269 683 l 290 685 q 315 685 303 685 l 317 685 l 318 685 l 319 685 l 322 685 q 503 608 438 678 q 568 425 568 540 l 568 22 l 593 22 m 463 147 l 463 367 l 290 367 q 196 338 235 367 q 139 264 157 310 q 126 175 122 221 q 157 92 131 128 q 356 36 218 8 q 388 53 372 43 q 463 147 439 86 z "},"":{"ha":635,"x_min":28,"x_max":606,"o":"m 593 22 q 604 11 604 22 q 593 0 604 0 l 475 0 q 463 11 463 0 l 463 97 q 400 35 439 58 q 241 -3 332 -8 q 90 54 150 3 l 88 57 l 86 58 l 83 61 q 81 64 82 63 l 78 67 q 76 68 78 67 l 74 71 q 71 74 74 72 q 29 190 29 125 l 29 193 l 29 194 l 29 196 l 29 199 l 29 200 l 29 201 l 29 203 l 31 204 l 31 206 l 31 207 l 31 210 l 31 211 l 31 214 l 32 217 l 32 218 l 32 221 l 32 222 l 33 224 l 33 225 l 33 226 l 35 229 l 35 231 l 35 232 l 35 233 l 36 236 l 36 238 l 38 240 l 38 242 l 39 244 l 39 246 l 39 247 l 40 247 l 40 250 l 42 251 l 42 254 l 43 256 l 43 257 l 44 258 l 44 260 l 46 261 l 47 264 q 106 336 67 307 q 192 377 146 365 q 290 390 238 389 l 463 390 l 463 415 q 463 431 463 424 q 419 603 460 544 q 296 663 378 663 l 290 663 q 256 658 272 661 q 188 617 208 647 q 172 542 167 588 q 167 486 182 508 q 144 469 158 474 q 133 468 139 468 q 125 468 129 468 q 96 488 107 472 q 85 529 85 504 q 149 638 85 590 q 250 681 192 669 l 251 681 q 289 685 269 683 l 290 685 q 315 685 303 685 l 317 685 l 318 685 l 318 685 l 319 685 l 322 685 q 504 608 438 678 q 568 425 568 540 l 568 22 l 593 22 m 463 147 l 463 367 l 290 367 q 196 338 235 367 q 139 264 157 310 q 126 175 122 221 q 157 92 131 128 q 356 36 218 8 q 388 53 372 43 q 463 147 440 86 m 240 796 q 229 831 232 811 q 231 868 228 850 q 285 928 240 922 q 356 885 331 933 q 367 850 364 868 q 367 814 369 831 q 311 758 357 767 q 240 796 264 750 m 253 864 q 252 834 250 850 q 261 806 254 818 q 308 781 276 775 q 344 818 338 786 q 344 847 347 832 q 336 874 342 861 q 288 906 318 908 q 253 864 260 903 z "},"":{"ha":1104,"x_min":28,"x_max":1074,"o":"m 1015 149 q 1031 154 1021 160 q 1036 139 1040 149 q 939 39 1006 76 q 892 18 917 26 q 843 6 868 10 q 792 0 818 1 q 675 17 729 -1 q 577 74 621 36 q 507 164 533 111 q 467 97 486 126 q 400 35 442 61 q 241 -3 332 -8 q 90 54 150 3 l 88 57 l 86 58 l 83 61 q 81 64 81 64 l 78 67 q 76 69 78 67 l 74 71 q 71 74 72 72 q 29 190 29 125 l 29 192 l 29 193 l 29 194 l 29 197 l 29 199 l 29 200 l 29 203 l 31 206 l 31 207 l 31 210 l 31 211 l 31 213 l 31 214 l 32 217 l 32 218 l 32 221 l 32 222 l 33 224 l 33 225 l 33 228 l 35 229 l 35 232 l 35 233 l 36 236 l 36 238 l 38 240 l 38 243 l 39 244 l 39 247 l 40 247 l 40 250 l 42 251 l 42 254 l 43 256 l 43 257 l 44 258 l 44 260 l 46 261 l 47 264 q 143 358 78 328 q 290 390 208 389 l 463 390 l 463 415 q 463 431 463 425 q 419 603 460 544 q 296 663 378 663 l 290 663 q 254 658 272 661 q 188 617 208 647 q 172 542 167 588 q 167 486 182 508 q 144 469 158 474 q 133 468 139 468 q 124 468 129 468 q 96 488 107 472 q 85 529 85 504 q 149 638 85 590 q 250 681 192 669 l 251 681 q 289 685 269 683 q 315 685 303 685 l 317 685 l 318 685 l 318 685 l 319 685 l 322 685 q 503 608 438 678 q 535 564 521 589 q 793 685 626 686 q 992 617 913 685 q 1069 436 1072 550 q 1032 324 1068 367 q 932 281 996 281 l 579 281 q 599 193 585 233 q 672 72 624 118 q 790 22 721 25 q 928 58 865 24 q 1015 149 989 93 m 463 147 l 463 367 l 290 367 q 196 338 235 367 q 139 264 157 310 q 126 175 122 221 q 157 92 131 128 q 356 36 218 8 q 388 53 372 43 q 463 147 439 86 m 575 340 q 576 303 575 321 l 851 303 q 965 396 936 311 q 974 475 976 433 q 954 554 971 517 q 887 633 931 603 q 782 663 843 663 q 668 610 715 658 q 596 488 621 563 q 575 340 575 418 z "},"":{"ha":667,"x_min":25,"x_max":636,"o":"m 540 469 q 547 501 542 485 q 551 536 551 519 q 518 608 550 578 q 426 654 485 640 q 265 635 333 676 q 164 488 197 594 q 142 340 142 418 q 165 193 143 261 q 239 72 190 118 q 357 22 288 25 q 519 75 450 25 q 599 197 586 122 q 611 206 600 208 q 621 193 622 204 q 532 56 606 110 q 453 17 496 31 q 365 0 411 3 q 360 -64 365 -26 q 394 -61 375 -61 q 493 -106 465 -56 q 503 -158 507 -129 q 482 -208 500 -187 q 365 -235 440 -256 q 357 -221 354 -231 q 371 -212 360 -211 q 438 -189 418 -221 q 447 -156 446 -175 q 442 -119 449 -137 q 396 -83 428 -82 l 394 -83 q 349 -89 358 -83 q 335 -83 339 -93 q 333 -76 333 -79 q 342 0 344 -29 q 333 0 338 0 q 136 81 217 4 l 133 83 l 131 86 l 128 89 l 125 90 l 122 93 l 121 96 l 118 99 l 115 101 l 114 104 l 111 107 l 108 110 l 107 113 l 104 115 l 103 118 l 100 121 l 97 125 l 96 128 l 94 131 l 92 133 l 90 136 l 88 139 l 86 143 l 85 146 l 82 149 l 81 151 l 79 156 l 76 158 l 75 161 l 74 164 l 72 168 q 35 372 25 263 q 131 596 47 513 l 133 599 l 136 601 l 139 604 l 142 607 l 144 610 l 147 613 l 150 615 l 154 617 l 157 619 l 160 622 q 361 685 246 686 q 525 642 451 685 q 625 521 599 600 q 633 467 636 490 q 618 424 632 440 q 585 404 604 407 q 578 405 582 404 q 571 406 574 406 q 546 428 554 411 q 540 469 539 444 z "},"":{"ha":671,"x_min":18,"x_max":640,"o":"m 311 817 q 279 869 289 844 q 279 918 269 899 q 289 931 283 925 q 292 932 290 931 q 313 936 303 936 q 351 915 333 935 q 378 872 367 900 q 396 768 399 824 q 383 757 396 757 q 379 760 381 757 q 311 817 342 781 m 583 149 q 598 154 588 160 q 603 139 608 149 q 506 39 572 76 q 358 0 440 3 q 156 64 242 -3 q 43 250 69 131 q 53 464 19 357 q 166 627 85 568 q 361 686 247 686 q 560 617 481 685 q 638 436 640 550 q 599 324 635 367 q 499 281 563 281 l 146 281 q 165 193 153 235 q 208 108 182 144 q 272 48 233 71 q 357 22 311 25 q 494 58 433 24 q 583 149 556 93 m 143 340 q 144 303 143 321 l 418 303 q 532 396 504 311 q 542 475 544 433 q 521 554 539 517 q 483 610 507 586 q 425 648 460 633 q 349 663 390 663 q 235 611 282 658 q 164 488 188 564 q 143 340 142 418 z "},"":{"ha":671,"x_min":18,"x_max":640,"o":"m 583 149 q 598 155 588 160 q 603 139 608 150 q 506 39 574 76 q 358 0 440 3 q 156 64 242 -3 q 43 250 69 131 q 53 464 19 357 q 166 627 85 568 q 361 686 247 686 q 560 617 481 685 q 638 436 640 550 q 620 356 636 390 q 573 301 604 321 q 499 281 542 281 l 146 281 q 165 193 153 235 q 239 72 190 118 q 357 22 288 26 q 494 58 433 24 q 583 149 556 93 m 143 340 q 144 303 143 321 l 418 303 q 532 396 504 311 q 542 475 544 433 q 521 554 539 517 q 455 633 499 603 q 349 663 411 663 q 235 611 282 658 q 164 488 188 564 q 143 340 142 418 m 303 757 q 290 768 292 757 q 308 872 288 824 q 335 915 319 900 q 374 936 353 935 q 394 932 385 936 q 397 931 396 931 q 407 918 403 925 q 407 869 418 899 q 375 817 397 844 q 308 760 346 781 q 303 757 306 757 z "},"":{"ha":671,"x_min":18,"x_max":640,"o":"m 208 758 q 206 775 199 765 l 322 971 q 326 974 324 972 q 342 971 335 981 l 465 775 q 464 761 471 767 q 449 761 456 753 q 332 867 435 776 q 222 760 285 818 q 208 758 217 754 m 583 149 q 598 154 588 160 q 603 139 608 149 q 506 39 574 76 q 358 0 440 3 q 156 64 242 -3 q 43 250 69 131 q 53 464 19 357 q 166 627 85 568 q 361 686 247 686 q 560 617 481 685 q 638 436 640 550 q 599 324 635 367 q 499 281 563 281 l 146 281 q 165 193 153 235 q 239 72 190 118 q 357 22 288 26 q 494 58 433 24 q 583 149 556 93 m 143 340 q 144 303 143 321 l 418 303 q 532 396 504 311 q 542 475 544 433 q 521 554 539 517 q 455 633 499 603 q 350 663 411 663 q 285 647 315 661 q 233 608 256 632 q 192 554 210 585 q 164 488 175 524 q 143 340 142 418 z "},"":{"ha":671,"x_min":18,"x_max":640,"o":"m 479 774 q 471 765 479 774 q 440 757 463 757 q 401 774 418 757 q 385 813 385 790 q 401 851 385 835 q 440 868 418 868 q 479 851 463 868 q 496 813 496 835 q 479 774 496 790 m 583 149 q 598 154 588 160 q 603 139 608 149 q 506 39 572 76 q 358 0 440 3 q 156 64 242 -3 q 43 250 69 131 q 53 464 19 357 q 166 627 85 568 q 361 686 247 686 q 560 617 481 685 q 638 436 640 550 q 620 356 636 390 q 573 301 604 321 q 499 281 542 281 l 146 281 q 165 193 153 235 q 239 72 190 118 q 357 22 288 26 q 494 58 433 24 q 583 149 556 93 m 143 340 q 144 303 143 321 l 418 303 q 532 396 504 311 q 542 475 544 433 q 521 554 539 517 q 455 633 499 603 q 350 663 411 663 q 235 611 282 658 q 164 488 188 564 q 143 340 142 418 m 269 774 q 261 765 269 774 q 230 757 253 757 q 191 774 207 757 q 175 813 175 790 q 191 851 175 835 q 230 868 207 868 q 269 851 253 868 q 285 813 285 835 q 269 774 285 790 z "},"":{"ha":254,"x_min":28,"x_max":219,"o":"m 72 817 q 42 869 50 844 q 42 918 31 899 q 51 931 46 925 q 54 932 53 931 q 75 936 64 936 q 113 915 94 935 q 140 872 129 900 q 157 768 160 824 q 146 757 157 757 q 140 760 143 757 q 72 817 103 781 m 208 22 q 219 11 219 22 q 208 0 219 0 l 53 0 q 42 11 42 0 q 53 22 42 22 l 78 22 l 78 493 q 71 556 78 539 q 39 581 64 572 q 33 596 29 585 q 39 601 35 600 q 110 639 88 626 q 163 682 142 658 q 179 682 171 690 q 182 674 182 679 l 182 22 l 208 22 z "},"":{"ha":256,"x_min":28,"x_max":232,"o":"m 208 22 q 219 11 219 22 q 208 0 219 0 l 53 0 q 42 11 42 0 q 53 22 42 22 l 78 22 l 78 493 q 71 556 78 539 q 39 581 64 572 q 33 596 29 585 q 39 601 35 600 q 110 639 88 626 q 163 682 142 658 q 179 682 171 690 q 182 674 182 679 l 182 22 l 208 22 m 219 918 q 219 869 231 899 q 189 817 211 844 q 121 760 158 781 q 115 757 118 757 q 104 768 104 757 q 121 872 101 824 q 149 915 133 900 q 188 936 167 935 q 207 932 197 936 q 210 931 208 931 q 219 918 217 925 z "},"":{"ha":256,"x_min":-3,"x_max":271,"o":"m 208 22 q 221 11 221 22 q 208 0 221 0 l 53 0 q 42 11 42 0 q 53 22 42 22 l 79 22 l 79 493 q 72 556 79 539 q 40 581 64 572 q 33 596 29 585 q 39 601 35 600 q 110 639 89 626 q 164 682 142 658 q 179 682 171 690 q 183 674 183 679 l 183 22 l 208 22 m 265 775 q 264 761 269 767 q 247 761 256 753 q 131 867 233 776 q 22 760 85 818 q 8 758 15 754 q 4 775 -1 765 l 122 971 q 125 974 122 972 q 140 971 135 981 l 265 775 z "}}}
